<?xml version="1.0" encoding="UTF-8"?>
<svg id="Capa_1" xmlns="http://www.w3.org/2000/svg" version="1.1" viewBox="0 0 300 300">
  <!-- Generator: Adobe Illustrator 30.5.1, SVG Export Plug-In . SVG Version: 2.1.4 Build 3)  -->
  <defs>
    <style>
      .st0, .st1 {
        fill: #ffd221;
      }

      .st1 {
        fill-rule: evenodd;
      }
    </style>
  </defs>
  <path class="st0" d="M150,300C67.29,300,0,232.71,0,150S67.29,0,150,0s150,67.29,150,150-67.29,150-150,150ZM150,16.11c-73.83,0-133.89,60.06-133.89,133.89s60.06,133.88,133.89,133.88,133.88-60.06,133.88-133.88S223.83,16.11,150,16.11Z"/>
  <path class="st1" d="M126.48,150.71v86.94c0,1.25,1.01,2.26,2.26,2.26h32.28c1.25,0,2.26-1.01,2.26-2.26v-88.35h23.41c1.18,0,2.16-.9,2.26-2.07l2.25-26.62c.11-1.32-.93-2.46-2.26-2.46h-25.66v-18.89c0-4.43,3.59-8.01,8.01-8.01h18.04c1.25,0,2.26-1.01,2.26-2.26v-26.62c0-1.25-1.01-2.26-2.26-2.26h-30.48c-17.89,0-32.39,14.5-32.39,32.39v25.66h-16.14c-1.25,0-2.26,1.01-2.26,2.26v26.62c0,1.25,1.01,2.26,2.26,2.26h16.14v1.42Z"/>
</svg>