<?xml version="1.0" encoding="UTF-8"?>
<svg id="Capa_1" xmlns="http://www.w3.org/2000/svg" version="1.1" viewBox="0 0 299.8 299.8">
  <!-- Generator: Adobe Illustrator 30.5.1, SVG Export Plug-In . SVG Version: 2.1.4 Build 3)  -->
  <defs>
    <style>
      .st0 {
        fill: #ffd221;
      }
    </style>
  </defs>
  <path class="st0" d="M149.9,299.8C67.25,299.8,0,232.55,0,149.9S67.25,0,149.9,0s149.9,67.25,149.9,149.9-67.25,149.9-149.9,149.9ZM149.9,14.24C75.1,14.24,14.24,75.1,14.24,149.9s60.86,135.66,135.66,135.66,135.66-60.86,135.66-135.66S224.7,14.24,149.9,14.24ZM200.44,89.08c-6.13,0-11.09,4.97-11.09,11.09s4.97,11.09,11.09,11.09,11.09-4.97,11.09-11.09-4.97-11.09-11.09-11.09ZM151.13,103.31c-25.69,0-46.59,20.9-46.59,46.59s20.9,46.59,46.59,46.59,46.59-20.9,46.59-46.59-20.9-46.59-46.59-46.59ZM151.13,179.75c-16.46,0-29.85-13.39-29.85-29.85s13.39-29.85,29.85-29.85,29.85,13.39,29.85,29.85-13.39,29.85-29.85,29.85ZM245.15,111.17c0-31.39-25.45-56.83-56.83-56.83h-75.01c-31.39,0-56.83,25.44-56.83,56.83v75.01c0,31.39,25.44,56.83,56.83,56.83h75.01c31.39,0,56.83-25.44,56.83-56.83v-75.01ZM227.35,186.19c0,21.56-17.48,39.03-39.03,39.03h-75.01c-21.56,0-39.03-17.47-39.03-39.03v-75.01c0-21.56,17.48-39.03,39.03-39.03h75.01c21.56,0,39.03,17.47,39.03,39.03v75.01Z"/>
</svg>