<?xml version="1.0" encoding="UTF-8"?>
<svg id="Capa_1" xmlns="http://www.w3.org/2000/svg" version="1.1" viewBox="0 0 300 300">
  <!-- Generator: Adobe Illustrator 30.5.1, SVG Export Plug-In . SVG Version: 2.1.4 Build 3)  -->
  <defs>
    <style>
      .st0 {
        fill: #ffd221;
      }
    </style>
  </defs>
  <g>
    <path class="st0" d="M150,300C67.29,300,0,232.71,0,150S67.29,0,150,0s150,67.29,150,150-67.29,150-150,150ZM150,16.14c-73.81,0-133.86,60.05-133.86,133.86s60.05,133.86,133.86,133.86,133.86-60.05,133.86-133.86S223.81,16.14,150,16.14Z"/>
    <path class="st0" d="M234.8,161.42v56.01c0,1.38-1.12,2.51-2.51,2.51h-28.91c-1.38,0-2.51-1.12-2.51-2.51v-52.09c0-13.71-4.9-23.07-17.18-23.07-9.37,0-14.94,6.3-17.4,12.4-.89,2.18-1.12,5.21-1.12,8.27v54.48c0,1.38-1.12,2.51-2.51,2.51h-28.9c-1.39,0-2.51-1.12-2.51-2.51.06-13.87.36-81.17.06-96.99-.03-1.4,1.1-2.54,2.5-2.54h28.85c1.38,0,2.51,1.12,2.51,2.51v11.95c-.07.11-.16.23-.23.33h.23v-.33c4.51-6.94,12.55-16.86,30.58-16.86,22.32,0,39.05,14.58,39.05,45.92h0ZM81.08,219.93h28.9c1.38,0,2.51-1.12,2.51-2.51v-97.02c0-1.38-1.12-2.51-2.51-2.51h-28.9c-1.38,0-2.51,1.12-2.51,2.51v97.02c0,1.38,1.12,2.51,2.51,2.51Z"/>
  </g>
  <circle class="st0" cx="94.51" cy="86.76" r="18.16"/>
</svg>