<?xml version="1.0" encoding="UTF-8"?>
<svg id="Capa_1" xmlns="http://www.w3.org/2000/svg" version="1.1" viewBox="0 0 300 300">
  <!-- Generator: Adobe Illustrator 30.5.1, SVG Export Plug-In . SVG Version: 2.1.4 Build 3)  -->
  <defs>
    <style>
      .st0 {
        fill: #ffd221;
      }
    </style>
  </defs>
  <path class="st0" d="M150,300C67.29,300,0,232.71,0,150S67.29,0,150,0s150,67.29,150,150-67.29,150-150,150ZM150,16.14c-73.81,0-133.86,60.05-133.86,133.86s60.05,133.86,133.86,133.86,133.86-60.05,133.86-133.86S223.81,16.14,150,16.14Z"/>
  <path class="st0" d="M206.93,125.31c-40.99,0-41.05,40.84-41.05,41.05,0,0-2.81,40.89,41.05,40.89,0,0,33.01,1.88,36.31-24.12.29-2.29-1.49-4.34-3.8-4.34h-11.47c-1.66,0-3.16,1.06-3.64,2.66-1.01,3.4-4.53,8.84-16.77,8.84,0,0-15.89,1.06-18.44-14.2-.38-2.3,1.46-4.37,3.79-4.37h47.66c2.05,0,3.75-1.61,3.82-3.66.37-10.96-1.64-42.74-37.46-42.74ZM191.42,157.41c-1.52,0-2.6-1.47-2.13-2.91,1.53-4.72,5.99-13.53,18.06-13.53s15.38,9.3,16.07,13.91c.2,1.34-.86,2.53-2.21,2.53h-29.79ZM142.19,147.9c-1.34-.44-1.54-2.28-.28-2.92,4.58-2.32,9.97-7.4,9.97-18.41,0-19.09-13.32-28.46-30.23-28.46h-52.81c-1.55,0-2.81,1.26-2.81,2.81v101.29c0,1.55,1.26,2.81,2.81,2.81h52.81s33.97,1.04,33.97-31.58c0,0,1.14-20.73-13.43-25.54ZM90.54,119.12c0-1.12.91-2.03,2.03-2.03h29.08s7.54,0,7.54,11.13-4.42,12.75-9.47,12.75h-27.16c-1.12,0-2.03-.91-2.03-2.03v-19.82ZM120.09,186.03h-27.52c-1.12,0-2.03-.91-2.03-2.03v-24.56c0-1.12.91-2.03,2.03-2.03h29.08s11.29-.1,11.24,14.72c0,12.49-8.37,13.79-12.8,13.89ZM183.94,102.38v9.14c0,1.11.9,2.01,2.01,2.01h40.1c1.11,0,2.01-.9,2.01-2.01v-9.14c0-1.11-.9-2.01-2.01-2.01h-40.1c-1.11,0-2.01.9-2.01,2.01Z"/>
</svg>