<?xml version="1.0" encoding="UTF-8"?>
<svg id="Capa_1" xmlns="http://www.w3.org/2000/svg" version="1.1" viewBox="0 0 300 300">
  <!-- Generator: Adobe Illustrator 30.5.1, SVG Export Plug-In . SVG Version: 2.1.4 Build 3)  -->
  <defs>
    <style>
      .st0 {
        fill: #ffd221;
      }
    </style>
  </defs>
  <path class="st0" d="M150,300C67.29,300,0,232.71,0,150S67.29,0,150,0s150,67.29,150,150-67.29,150-150,150ZM150,16.14c-73.81,0-133.86,60.05-133.86,133.86s60.05,133.86,133.86,133.86,133.86-60.05,133.86-133.86S223.81,16.14,150,16.14Z"/>
  <path class="st0" d="M184.15,125.37l.02,59.7c.01,31.8-25.89,57.07-57.27,55.71-31.14-1.36-55.22-28.58-52.32-59.94,2.82-30.6,30.94-53.64,62.08-49.19l-.03,30.37c-14.23-4.25-28.75,4.33-31.89,18.67s6.24,27.66,20.6,30.01c13.76,2.25,28.68-8.18,28.71-23.31l.26-119.96h29.8c.18,22.81,18.11,41.09,41.44,41.49l.11,29.78c-14.86-.01-28.74-4.31-41.5-13.33Z"/>
</svg>