<?xml version="1.0" encoding="UTF-8"?>
<svg id="Capa_1" xmlns="http://www.w3.org/2000/svg" version="1.1" viewBox="0 0 300 300">
  <!-- Generator: Adobe Illustrator 30.5.1, SVG Export Plug-In . SVG Version: 2.1.4 Build 3)  -->
  <defs>
    <style>
      .st0, .st1 {
        fill: #ffd221;
      }

      .st1 {
        fill-rule: evenodd;
      }
    </style>
  </defs>
  <path class="st0" d="M150,300C67.29,300,0,232.71,0,150S67.29,0,150,0s150,67.29,150,150-67.29,150-150,150ZM150,16.11c-73.83,0-133.89,60.06-133.89,133.89s60.06,133.89,133.89,133.89,133.88-60.06,133.88-133.89S223.83,16.11,150,16.11Z"/>
  <g>
    <path class="st1" d="M157.08,52.36c-49.94,0-90.56,40.63-90.56,90.56,0,17.57,4.99,34.44,14.46,49.08l-13.76,30.3c-1.27,2.79-.81,6.07,1.18,8.4,1.52,1.79,3.74,2.78,6.02,2.78.7,0,1.4-.09,2.09-.28l37.91-10.4c13.09,7,27.76,10.68,42.66,10.68,49.94,0,90.56-40.63,90.56-90.56s-40.63-90.56-90.56-90.56ZM157.08,217.67c-13.23,0-26.24-3.52-37.64-10.18-1.22-.71-2.6-1.08-3.99-1.08-.7,0-1.41.09-2.09.28l-24.76,6.79,8.62-19c1.17-2.58.87-5.6-.79-7.9-9.23-12.79-14.1-27.89-14.1-43.67,0-41.22,33.53-74.75,74.75-74.75s74.75,33.53,74.75,74.75-33.53,74.75-74.75,74.75Z"/>
    <path class="st1" d="M191.9,156.48c-3.79-2.27-8.73-4.8-13.2-2.97-3.43,1.4-5.62,6.77-7.84,9.51-1.14,1.41-2.5,1.63-4.25.92-12.87-5.13-22.73-13.72-29.83-25.55-1.2-1.84-.99-3.29.46-5,2.15-2.52,4.84-5.39,5.42-8.8.58-3.4-1.02-7.38-2.42-10.41-1.8-3.87-3.81-9.39-7.69-11.59-3.57-2.01-8.26-.89-11.44,1.7-5.48,4.47-8.13,11.46-8.05,18.4.02,1.97.27,3.94.72,5.84,1.11,4.57,3.22,8.85,5.6,12.91,1.79,3.06,3.74,6.03,5.85,8.89,6.88,9.35,15.44,17.47,25.36,23.55,4.95,3.03,10.29,5.69,15.81,7.52,6.2,2.05,11.72,4.18,18.41,2.91,7.01-1.33,13.91-5.67,16.69-12.42.82-2,1.24-4.22.77-6.34-.95-4.36-6.86-6.96-10.39-9.07Z"/>
  </g>
</svg>