<?xml version="1.0" encoding="UTF-8"?>
<svg id="Capa_1" xmlns="http://www.w3.org/2000/svg" version="1.1" viewBox="0 0 891.71 179.44">
  <!-- Generator: Adobe Illustrator 30.5.1, SVG Export Plug-In . SVG Version: 2.1.4 Build 3)  -->
  <defs>
    <style>
      .st0 {
        fill: #4d56cb;
      }
    </style>
  </defs>
  <g>
    <path class="st0" d="M147.06,89.49c-.03,31.75-25.88,57.57-57.64,57.57s-57.64-25.86-57.64-57.64,25.86-57.64,57.64-57.64V0c-23.89,0-46.34,9.3-63.23,26.19C9.3,43.08,0,65.54,0,89.43s9.3,46.34,26.19,63.23c16.89,16.89,39.35,26.19,63.23,26.19s46.34-9.3,63.23-26.19c16.88-16.88,26.17-39.31,26.19-63.17h-31.79Z"/>
    <path class="st0" d="M130.17,54.75h0c-9.86,0-17.86,8-17.86,17.86h0c0,9.33,7.56,16.89,16.89,16.89h17.86v-17.86c0-9.33-7.56-16.89-16.89-16.89Z"/>
  </g>
  <g>
    <path class="st0" d="M525,89.56c-.03,31.75-25.88,57.57-57.64,57.57s-57.64-25.86-57.64-57.64,25.86-57.64,57.64-57.64V.07c-23.89,0-46.34,9.3-63.23,26.19-16.89,16.89-26.19,39.35-26.19,63.23s9.3,46.34,26.19,63.23c16.89,16.89,39.35,26.19,63.23,26.19s46.34-9.3,63.23-26.19c16.88-16.88,26.17-39.31,26.19-63.17h-31.79Z"/>
    <path class="st0" d="M508.11,54.81h0c-9.86,0-17.86,8-17.86,17.86h0c0,9.33,7.56,16.89,16.89,16.89h17.86v-17.86c0-9.33-7.56-16.89-16.89-16.89Z"/>
  </g>
  <path class="st0" d="M334.18,89.56c-7.7,32.89-37.27,57.45-72.47,57.45h-34.57V.07h-36.93v178.73h0s36.93,0,36.93,0h0s34.57,0,34.57,0c28.37,0,55.05-11.05,75.11-31.11,16-16,26.26-36.21,29.76-58.13h-32.4Z"/>
  <g>
    <path class="st0" d="M622.18,99.61c1.78-3.15,4.2-5.61,7.27-7.39,3.07-1.78,6.48-2.66,10.23-2.66,4.4,0,8.25,1.06,11.53,3.19,3.28,2.12,5.68,5.14,7.18,9.04h-6.31c-1.12-2.43-2.73-4.31-4.84-5.62-2.11-1.31-4.63-1.97-7.56-1.97s-5.35.66-7.59,1.97c-2.24,1.31-4,3.18-5.27,5.59-1.27,2.41-1.91,5.24-1.91,8.49s.64,6.02,1.91,8.43c1.27,2.41,3.03,4.28,5.27,5.59,2.24,1.31,4.77,1.97,7.59,1.97s5.45-.65,7.56-1.94c2.1-1.29,3.72-3.16,4.84-5.59h6.31c-1.51,3.86-3.9,6.85-7.18,8.95-3.28,2.11-7.13,3.16-11.53,3.16-3.75,0-7.15-.88-10.23-2.64-3.07-1.76-5.49-4.2-7.27-7.33-1.78-3.13-2.67-6.66-2.67-10.6s.89-7.48,2.67-10.63Z"/>
    <path class="st0" d="M671.48,89.49v40.96h-5.27v-40.96h5.27Z"/>
    <path class="st0" d="M709.25,116.55h-25.37c.19,3.13,1.26,5.57,3.21,7.33,1.95,1.76,4.32,2.64,7.1,2.64,2.28,0,4.18-.53,5.71-1.59,1.53-1.06,2.6-2.48,3.21-4.26h5.68c-.85,3.05-2.55,5.53-5.1,7.44s-5.72,2.87-9.5,2.87c-3.01,0-5.71-.68-8.08-2.03-2.38-1.35-4.24-3.27-5.59-5.76-1.35-2.49-2.03-5.38-2.03-8.66s.66-6.16,1.97-8.63c1.31-2.47,3.16-4.37,5.53-5.71,2.37-1.33,5.11-2,8.2-2s5.68.66,7.99,1.97c2.32,1.31,4.1,3.12,5.36,5.42,1.25,2.3,1.88,4.9,1.88,7.79,0,1-.06,2.07-.17,3.19ZM702.65,107.08c-.89-1.45-2.1-2.55-3.62-3.3-1.53-.75-3.22-1.13-5.07-1.13-2.67,0-4.93.85-6.81,2.55-1.87,1.7-2.95,4.06-3.22,7.07h20.04c0-2.01-.44-3.74-1.33-5.18Z"/>
    <path class="st0" d="M716.38,105.92c1.31-2.45,3.12-4.35,5.42-5.71,2.3-1.35,4.86-2.03,7.68-2.03s5.19.6,7.24,1.8c2.05,1.2,3.57,2.7,4.58,4.52v-5.79h5.33v31.75h-5.33v-5.91c-1.04,1.85-2.6,3.39-4.66,4.61-2.07,1.22-4.47,1.83-7.21,1.83s-5.37-.7-7.65-2.09c-2.28-1.39-4.08-3.34-5.39-5.85-1.31-2.51-1.97-5.37-1.97-8.57s.66-6.09,1.97-8.55ZM739.84,108.27c-.97-1.78-2.27-3.14-3.91-4.08-1.64-.95-3.45-1.42-5.42-1.42s-3.77.46-5.39,1.39c-1.62.93-2.92,2.28-3.88,4.06-.97,1.78-1.45,3.86-1.45,6.26s.48,4.55,1.45,6.34c.96,1.8,2.26,3.17,3.88,4.11,1.62.95,3.42,1.42,5.39,1.42s3.77-.47,5.42-1.42c1.64-.95,2.94-2.32,3.91-4.11.96-1.8,1.45-3.89,1.45-6.29s-.48-4.48-1.45-6.26Z"/>
    <path class="st0" d="M780.39,101.63c2.39,2.34,3.59,5.71,3.59,10.11v18.71h-5.21v-17.96c0-3.17-.79-5.59-2.38-7.27-1.58-1.68-3.75-2.52-6.49-2.52s-4.99.87-6.63,2.61c-1.64,1.74-2.46,4.27-2.46,7.59v17.55h-5.27v-31.75h5.27v4.52c1.04-1.62,2.46-2.88,4.26-3.77,1.8-.89,3.77-1.33,5.94-1.33,3.86,0,6.99,1.17,9.39,3.51Z"/>
    <path class="st0" d="M624.8,174.63h14.14v4.29h-19.41v-40.38h5.27v36.09Z"/>
    <path class="st0" d="M644.72,140.97c-.7-.7-1.04-1.54-1.04-2.55s.35-1.85,1.04-2.55,1.54-1.04,2.55-1.04,1.79.35,2.46,1.04c.68.7,1.01,1.55,1.01,2.55s-.34,1.85-1.01,2.55c-.68.7-1.5,1.04-2.46,1.04s-1.85-.35-2.55-1.04ZM649.82,147.17v31.75h-5.27v-31.75h5.27Z"/>
    <path class="st0" d="M683.65,150.09c2.39,2.34,3.59,5.71,3.59,10.11v18.71h-5.21v-17.96c0-3.17-.79-5.59-2.38-7.27-1.58-1.68-3.75-2.52-6.49-2.52s-4.99.87-6.63,2.61c-1.64,1.74-2.46,4.27-2.46,7.59v17.55h-5.27v-31.75h5.27v4.52c1.04-1.62,2.46-2.88,4.26-3.77,1.8-.89,3.77-1.33,5.94-1.33,3.86,0,6.99,1.17,9.39,3.51Z"/>
    <path class="st0" d="M724.67,165.01h-25.37c.19,3.13,1.26,5.57,3.21,7.33,1.95,1.76,4.32,2.64,7.1,2.64,2.28,0,4.18-.53,5.71-1.59,1.53-1.06,2.6-2.48,3.21-4.26h5.68c-.85,3.05-2.55,5.53-5.1,7.44s-5.72,2.87-9.5,2.87c-3.01,0-5.71-.68-8.08-2.03-2.38-1.35-4.24-3.27-5.59-5.76-1.35-2.49-2.03-5.38-2.03-8.66s.66-6.16,1.97-8.63c1.31-2.47,3.16-4.37,5.53-5.71,2.37-1.33,5.11-2,8.2-2s5.68.66,7.99,1.97c2.32,1.31,4.1,3.12,5.36,5.42,1.25,2.3,1.88,4.9,1.88,7.79,0,1-.06,2.07-.17,3.19ZM718.07,155.54c-.89-1.45-2.1-2.55-3.62-3.3-1.53-.75-3.22-1.13-5.07-1.13-2.67,0-4.93.85-6.81,2.55-1.87,1.7-2.95,4.06-3.22,7.07h20.04c0-2.01-.44-3.74-1.33-5.18Z"/>
    <path class="st0" d="M732.49,148.07c1.78-3.15,4.2-5.61,7.27-7.39,3.07-1.78,6.48-2.66,10.23-2.66,4.4,0,8.25,1.06,11.53,3.19,3.28,2.12,5.68,5.14,7.18,9.04h-6.31c-1.12-2.43-2.73-4.31-4.84-5.62-2.11-1.31-4.63-1.97-7.56-1.97s-5.35.66-7.59,1.97c-2.24,1.31-4,3.18-5.27,5.59-1.27,2.41-1.91,5.24-1.91,8.49s.64,6.02,1.91,8.43c1.27,2.41,3.03,4.28,5.27,5.59,2.24,1.31,4.77,1.97,7.59,1.97s5.45-.65,7.56-1.94c2.1-1.29,3.72-3.16,4.84-5.59h6.31c-1.51,3.86-3.9,6.85-7.18,8.95-3.28,2.11-7.13,3.16-11.53,3.16-3.75,0-7.15-.88-10.23-2.64-3.07-1.76-5.49-4.2-7.27-7.33-1.78-3.13-2.67-6.66-2.67-10.6s.89-7.48,2.67-10.63Z"/>
    <path class="st0" d="M782.28,177.41c-2.41-1.35-4.31-3.27-5.68-5.76-1.37-2.49-2.06-5.38-2.06-8.66s.7-6.11,2.11-8.6c1.41-2.49,3.33-4.4,5.76-5.74,2.43-1.33,5.16-2,8.17-2s5.74.67,8.17,2c2.43,1.33,4.35,3.24,5.76,5.71,1.41,2.47,2.11,5.35,2.11,8.63s-.72,6.17-2.17,8.66c-1.45,2.49-3.41,4.41-5.88,5.76-2.47,1.35-5.21,2.03-8.23,2.03s-5.67-.68-8.08-2.03ZM795.69,173.47c1.66-.89,3-2.22,4.03-4,1.02-1.78,1.54-3.94,1.54-6.49s-.5-4.71-1.51-6.49c-1-1.78-2.32-3.1-3.94-3.97-1.62-.87-3.38-1.3-5.27-1.3s-3.7.43-5.3,1.3c-1.6.87-2.89,2.19-3.85,3.97-.97,1.78-1.45,3.94-1.45,6.49s.47,4.77,1.42,6.55c.95,1.78,2.21,3.1,3.79,3.97,1.58.87,3.32,1.3,5.21,1.3s3.67-.44,5.33-1.33Z"/>
    <path class="st0" d="M818.87,136.05v42.87h-5.27v-42.87h5.27Z"/>
    <path class="st0" d="M833.61,177.41c-2.41-1.35-4.31-3.27-5.68-5.76-1.37-2.49-2.06-5.38-2.06-8.66s.7-6.11,2.11-8.6c1.41-2.49,3.33-4.4,5.76-5.74,2.43-1.33,5.16-2,8.17-2s5.74.67,8.17,2c2.43,1.33,4.35,3.24,5.76,5.71,1.41,2.47,2.11,5.35,2.11,8.63s-.72,6.17-2.17,8.66c-1.45,2.49-3.41,4.41-5.88,5.76-2.47,1.35-5.21,2.03-8.23,2.03s-5.67-.68-8.08-2.03ZM847.02,173.47c1.66-.89,3-2.22,4.03-4,1.02-1.78,1.54-3.94,1.54-6.49s-.5-4.71-1.51-6.49c-1-1.78-2.32-3.1-3.94-3.97-1.62-.87-3.38-1.3-5.27-1.3s-3.7.43-5.3,1.3c-1.6.87-2.89,2.19-3.85,3.97-.97,1.78-1.45,3.94-1.45,6.49s.47,4.77,1.42,6.55c.95,1.78,2.21,3.1,3.79,3.97,1.58.87,3.32,1.3,5.21,1.3s3.67-.44,5.33-1.33Z"/>
    <path class="st0" d="M874.16,148.1c1.72-1,3.81-1.51,6.29-1.51v5.45h-1.39c-5.91,0-8.86,3.21-8.86,9.62v17.26h-5.27v-31.75h5.27v5.16c.93-1.81,2.25-3.22,3.97-4.23Z"/>
    <path class="st0" d="M885.66,178.22c-.7-.69-1.04-1.54-1.04-2.55s.35-1.85,1.04-2.55c.7-.69,1.54-1.04,2.55-1.04s1.79.35,2.46,1.04c.68.7,1.01,1.55,1.01,2.55s-.34,1.85-1.01,2.55c-.68.7-1.5,1.04-2.46,1.04s-1.85-.35-2.55-1.04Z"/>
  </g>
  <path class="st0" d="M637.35,35.64c-9.83,0-17.82-7.99-17.82-17.82s7.99-17.82,17.82-17.82,17.82,7.99,17.82,17.82-7.99,17.82-17.82,17.82ZM637.35,2.92c-8.22,0-14.9,6.69-14.9,14.9s6.69,14.91,14.9,14.91,14.91-6.69,14.91-14.91-6.69-14.9-14.91-14.9Z"/>
  <path class="st0" d="M641.14,25.85l-3.83-6.57h-2.54v6.57h-2.1V9.79h5.19c1.21,0,2.24.21,3.08.62.84.41,1.46.98,1.88,1.68.41.71.62,1.51.62,2.42,0,1.11-.32,2.08-.96,2.93-.64.85-1.59,1.41-2.87,1.68l4.03,6.73h-2.51ZM634.78,17.6h3.09c1.14,0,1.99-.28,2.56-.84.57-.56.85-1.31.85-2.25s-.28-1.69-.84-2.21c-.56-.52-1.42-.78-2.57-.78h-3.09v6.08Z"/>
  <g>
    <path class="st0" d="M812.72,51.1c-.98-.44-1.75-1.05-2.3-1.83-.56-.78-.84-1.68-.86-2.7h2.61c.09.88.45,1.62,1.09,2.22.64.6,1.56.9,2.79.9s2.09-.29,2.76-.87c.67-.58,1.01-1.33,1.01-2.25,0-.72-.2-1.3-.59-1.75s-.89-.79-1.48-1.02c-.59-.23-1.39-.48-2.4-.75-1.24-.32-2.23-.65-2.97-.97-.74-.32-1.38-.83-1.91-1.52-.53-.69-.79-1.62-.79-2.79,0-1.02.26-1.93.78-2.72.52-.79,1.25-1.4,2.19-1.83.94-.43,2.02-.65,3.24-.65,1.76,0,3.2.44,4.32,1.32,1.12.88,1.75,2.05,1.9,3.5h-2.69c-.09-.72-.47-1.35-1.13-1.9-.66-.55-1.54-.82-2.64-.82-1.02,0-1.86.26-2.5.79-.65.53-.97,1.27-.97,2.22,0,.68.19,1.24.58,1.67.39.43.86.76,1.43.98.57.22,1.36.48,2.38.77,1.24.34,2.23.68,2.99,1.01.75.33,1.4.84,1.94,1.53.54.69.81,1.63.81,2.81,0,.91-.24,1.78-.73,2.58-.48.81-1.2,1.46-2.15,1.96-.95.5-2.07.75-3.36.75s-2.35-.22-3.32-.66Z"/>
    <path class="st0" d="M828.88,38.85v8.69c0,.72.15,1.22.46,1.52.3.3.83.44,1.59.44h1.8v2.07h-2.21c-1.36,0-2.39-.31-3.07-.94-.68-.63-1.02-1.66-1.02-3.09v-8.69h-1.91v-2.02h1.91v-3.71h2.45v3.71h3.85v2.02h-3.85Z"/>
    <path class="st0" d="M848.76,36.83v14.75h-2.45v-2.18c-.47.75-1.12,1.34-1.95,1.76-.83.42-1.75.63-2.76.63-1.15,0-2.18-.24-3.09-.71-.92-.48-1.64-1.19-2.17-2.14-.53-.95-.79-2.11-.79-3.47v-8.64h2.42v8.32c0,1.45.37,2.57,1.1,3.35s1.74,1.17,3.01,1.17,2.34-.4,3.09-1.21c.75-.81,1.13-1.98,1.13-3.53v-8.1h2.45Z"/>
    <path class="st0" d="M852.91,40.18c.61-1.14,1.45-2.02,2.52-2.65,1.07-.63,2.26-.94,3.59-.94,1.15,0,2.22.27,3.2.79.99.53,1.74,1.22,2.26,2.09v-7.8h2.48v19.91h-2.48v-2.77c-.48.88-1.2,1.6-2.15,2.17-.95.57-2.06.85-3.34.85s-2.5-.32-3.57-.97-1.91-1.55-2.52-2.72c-.61-1.17-.92-2.49-.92-3.98s.3-2.83.92-3.97ZM863.81,41.27c-.45-.83-1.05-1.46-1.82-1.9-.76-.44-1.6-.66-2.52-.66s-1.75.22-2.5.65c-.75.43-1.35,1.06-1.8,1.88-.45.83-.67,1.79-.67,2.91s.22,2.11.67,2.95c.45.83,1.05,1.47,1.8,1.91.75.44,1.59.66,2.5.66s1.75-.22,2.52-.66c.76-.44,1.37-1.08,1.82-1.91s.67-1.81.67-2.92-.22-2.08-.67-2.91Z"/>
    <path class="st0" d="M871.18,33.95c-.32-.32-.48-.72-.48-1.18s.16-.86.48-1.18c.32-.32.72-.48,1.18-.48s.83.16,1.14.48c.31.32.47.72.47,1.18s-.16.86-.47,1.18c-.31.32-.7.48-1.14.48s-.86-.16-1.18-.48ZM873.55,36.83v14.75h-2.45v-14.75h2.45Z"/>
    <path class="st0" d="M880.4,50.88c-1.12-.63-2-1.52-2.64-2.68-.64-1.16-.96-2.5-.96-4.02s.33-2.84.98-4c.65-1.16,1.55-2.05,2.68-2.66,1.13-.62,2.4-.93,3.79-.93s2.66.31,3.79.93c1.13.62,2.02,1.5,2.68,2.65.65,1.15.98,2.49.98,4.01s-.34,2.87-1.01,4.02c-.67,1.16-1.58,2.05-2.73,2.68-1.15.63-2.42.94-3.82.94s-2.63-.31-3.75-.94ZM886.63,49.05c.77-.41,1.4-1.03,1.87-1.86.48-.83.71-1.83.71-3.01s-.23-2.19-.7-3.01c-.47-.83-1.08-1.44-1.83-1.84-.75-.4-1.57-.61-2.45-.61s-1.72.2-2.46.61-1.34,1.02-1.79,1.84c-.45.83-.67,1.83-.67,3.01s.22,2.22.66,3.04c.44.83,1.03,1.44,1.76,1.84.74.4,1.54.61,2.42.61s1.7-.21,2.48-.62Z"/>
  </g>
</svg>