<?xml version="1.0" encoding="UTF-8"?>
<svg id="Capa_2" xmlns="http://www.w3.org/2000/svg" version="1.1" viewBox="0 0 1003.61 240.17">
  <!-- Generator: Adobe Illustrator 30.5.1, SVG Export Plug-In . SVG Version: 2.1.4 Build 3)  -->
  <defs>
    <style>
      .st0 {
        fill: #fff;
      }
    </style>
  </defs>
  <path class="st0" d="M117.28,5.6C52.61,5.6,0,58.21,0,122.88s52.61,117.28,117.28,117.28,117.28-52.61,117.28-117.28S181.95,5.6,117.28,5.6ZM85.85,207.82c-10.09,0-20.23-3.45-30.15-10.24l-.26-.2c-18.96-15.75-31.1-37.82-34.19-62.14l-1.72-13.54,1.77,2.45c4.22,7.77,9.76,16.55,16.86,25.19,22.83,27.77,52.2,42.38,85.7,42.85-9.78,9.65-23.2,15.63-38,15.63h0ZM74.2,162.3c4.42.82,8.93,1.25,13.49,1.25,16.83,0,33.33-5.81,46.44-16.37l5.15-4.14.5,6.59c.1,1.38.16,2.77.16,4.16,0,8.27-1.87,16.11-5.21,23.12-22.59,1.93-42.84-2.97-60.53-14.61ZM186.59,190.5l-.04.04c-15.04,15.39-35.02,25.45-56.26,28.3l-.19.03-13.42,1.69,10.94-7.96c4.17-3.03,7.95-6.4,11.25-10.02,12.56-13.76,19.47-31.61,19.47-50.25s-6.69-35.88-18.83-49.53l-4.66-5.24,7-.54c30.08-2.32,56.76,20.13,59.46,50.02,1.46,16.16-3.9,32-14.72,43.46ZM146.17,81.4c-1.7,0-3.42.06-5.11.17-17.14,1.1-33.35,7.76-46.3,18.93,14.79,2.45,28.08,11.02,36.4,23.75l1.42,2.18-1.69,1.98c-10.53,12.37-25.87,19.46-42.1,19.46-30.47,0-55.26-24.79-55.26-55.26,0-10.85,3.1-21.17,8.86-30.03h150.61c10.22,12.83,17.11,28.12,19.81,44.39l2.09,12.64-8.2-9.84c-15.01-18.02-37.08-28.36-60.53-28.36Z"/>
  <g>
    <path class="st0" d="M308.12,138.54c-26.82,0-41.3-10.24-41.3-27.71v-12h.89c7.59,7.77,23.47,12.36,37.41,12.36,15.53,0,20.47-3.71,20.47-11.83,0-7.41-6.7-9.88-25.23-13.59-26.47-5.3-36.71-15-36.71-33.53,0-21.71,19.76-41.12,50.65-41.12s41.47,13.59,41.47,26.12v12.88h-.88c-8.12-8.12-22.77-11.65-35.47-11.65-16.59,0-22.23,4.41-22.23,11.29,0,5.47,2.29,8.47,24.88,13.06,25.06,5.12,37.06,15.35,37.06,34.24,0,25.24-18.53,41.47-51,41.47Z"/>
    <path class="st0" d="M423.54,138.54c-31.41,0-48.53-15.35-48.53-46.41v-53.47h13.06c14.65,0,21,4.94,21,19.77v34.59c0,14.3,6.7,18.71,15.88,18.71,7.94,0,14.29-4.59,14.29-19.94v-53.12h13.06c13.41,0,20.83,5.65,20.83,19.77v34.59c0,31.06-19.77,45.53-49.59,45.53Z"/>
    <path class="st0" d="M551.13,63.71c-4.23-1.59-7.41-1.94-11.82-1.94-8.12,0-14.47,4.06-14.47,15.88v58.06h-9.18c-14.47,0-23.29-6.71-23.29-22.94v-42.18c0-19.59,13.23-35.12,35.3-35.12,16.76,0,24.53,6.88,24.53,15.88v12.35h-1.06Z"/>
    <path class="st0" d="M623.31,29.47c-3.71-1.94-10.59-2.65-15-2.65-7.94,0-13.41,4.59-13.41,10.41v11.47h22.23v12.18c0,6.53-6,10.76-14.47,10.76h-7.77v64.06h-10.24c-15.88,0-22.41-6.18-22.41-20.82V48c0-34.94,21-44.65,39.36-44.65,16.41,0,22.59,8.3,22.59,18.36v7.77h-.89Z"/>
    <path class="st0" d="M758.49,52.59c-6.18-7.94-21.35-12.53-34.77-12.53-19.76,0-34.23,13.06-34.23,32.83,0,24.88,15.18,36.71,34.94,36.71,13.06,0,27.53-4.94,33.53-11.29h.88v12.53c0,15.7-15.7,27.71-39.53,27.71-33.36,0-63.36-24-63.36-62.47,0-35.47,24.89-64.95,65.47-64.95,23.82,0,37.94,11.83,37.94,28.94v12.53h-.88Z"/>
    <path class="st0" d="M791.49,33.18c-9.71,0-17.65-7.41-17.65-16.59s7.94-16.59,17.65-16.59,17.47,7.41,17.47,16.59-7.77,16.59-17.47,16.59ZM807.37,137.12c-17.82,0-31.76-8.82-31.76-31.77v-63.71h8.29c19.06,0,25.24,5.47,25.24,23.12v35.65c0,8.65,4.06,11.29,13.41,11.29h4.06v9.88c0,11.65-8.82,15.53-19.24,15.53Z"/>
    <path class="st0" d="M850.07,21.53c4.41-3.35,10.41-6.53,17.47-6.53h3.53v23.65h28.41v11.83c0,8.29-8.82,14.65-16.41,14.65h-12v35.12c0,6.53,4.06,10.41,10.59,10.41,7.94,0,11.64-.7,15.17-2.12h.89v13.06c0,8.12-7.41,15.53-24.88,15.53s-34.41-7.94-34.41-34.59v-60.18c0-8.82,5.12-15.88,11.65-20.82Z"/>
    <path class="st0" d="M983.67,110.12c-27.18,52.24-34.06,57.53-54.36,57.53-10.76,0-19.76-5.83-19.76-16.77v-8.12l14.47-1.06c8.82-.7,12.88-4.23,16.41-12.18-13.94-20.82-31.76-64.94-35.65-90.89h17.47c8.29,0,16.94,5.12,18.88,13.77,3.35,15.35,10.06,34.06,15.18,45.89,7.23-14.65,14.82-40.77,16.94-59.65h16.06c9.71,0,14.29,4.59,14.29,12.35,0,10.24-9.18,38.47-19.94,59.12Z"/>
  </g>
  <g>
    <path class="st0" d="M317.59,228.28c-.11,6.16-3.25,9.52-16.7,9.52h-8.18c-18.72,0-28.58-10.31-28.58-29.92v-14.23c0-7.28.56-15.47,1.46-21.63,1.23-9.19,5.49-11.55,11.77-11.55h40.12v5.16c0,5.38-3.25,8.07-10.31,8.07h-26.34c-.79,5.6-1.12,13.11-1.12,17.93h29.58v5.49c0,5.04-3.14,7.06-9.3,7.06h-20.28v4.48c0,13.34,4.37,15.91,16.25,15.91h4.93c5.6,0,11.32-.45,16.81-1.68l-.12,5.38Z"/>
    <path class="st0" d="M347.17,237.8c-12.44,0-19.17-6.61-19.17-18.83v-62.42h4.26c7.51,0,10.76,4.37,10.76,10.08v50.88c0,6.05,3.14,7.96,10.2,7.96h4.03v3.25c0,6.5-3.47,9.08-10.08,9.08Z"/>
    <path class="st0" d="M411.72,238.59c-15.47,0-23.42-6.05-23.42-15.13v-6.84h.34c5.16,4.6,12.1,8.29,21.41,8.29,11.54,0,15.24-3.92,15.24-10.09,0-5.27-2.02-7.62-18.27-11.09-13-2.8-20.4-9.31-20.4-19.73,0-12.78,10.76-24.88,28.8-24.88s23.09,7.62,23.09,14.01v7.06h-.45c-4.71-5.04-11.54-7.51-19.95-7.51-11.88,0-16.25,3.92-16.25,9.86,0,4.6,3.59,7.4,17.93,10.43,14.01,2.91,20.84,10.2,20.84,20.51,0,15.13-10.31,25.1-28.91,25.1Z"/>
    <path class="st0" d="M477.5,238.25h-3.03c-14.35,0-24.21-8.07-24.21-19.16s7.84-18.94,30.04-18.94h5.27v-.79c0-8.52-4.04-11.1-13-11.1-10.87,0-16.93,4.15-19.17,6.95h-.56v-4.82c0-6.73,6.05-14.79,21.97-14.79,13.45,0,25.55,6.28,25.55,27.12v13.9c0,12.78-9.42,21.63-22.86,21.63ZM485.68,210.91h-5.38c-11.43,0-14.68,2.69-14.68,7.62s3.81,7.51,10.42,7.51,9.64-3.14,9.64-9.3v-5.83Z"/>
    <path class="st0" d="M531.96,237.8c-12.44,0-19.17-6.61-19.17-18.83v-62.42h4.26c7.51,0,10.76,4.37,10.76,10.08v50.88c0,6.05,3.14,7.96,10.2,7.96h4.03v3.25c0,6.5-3.47,9.08-10.08,9.08Z"/>
    <path class="st0" d="M592.59,203.06c-4.04,11.1-10.76,25.66-17.48,34.86h-2.92c-4.48,0-6.84-1.57-9.86-6.05-8.18-12.44-18.49-38.78-19.84-55.14h8.07c5.16,0,8.4,3.92,8.96,7.17,2.13,11.21,5.16,22.86,11.55,35.3,5.72-11.32,10.98-27.35,13.23-42.48h6.39c5.16,0,7.06,2.24,7.06,7.17,0,1.79-1.46,9.08-5.16,19.16Z"/>
    <path class="st0" d="M631.24,238.25h-3.03c-14.35,0-24.21-8.07-24.21-19.16s7.84-18.94,30.04-18.94h5.27v-.79c0-8.52-4.04-11.1-13-11.1-10.87,0-16.92,4.15-19.16,6.95h-.56v-4.82c0-6.73,6.05-14.79,21.97-14.79,13.45,0,25.55,6.28,25.55,27.12v13.9c0,12.78-9.42,21.63-22.86,21.63ZM639.42,210.91h-5.38c-11.43,0-14.68,2.69-14.68,7.62s3.81,7.51,10.42,7.51,9.64-3.14,9.64-9.3v-5.83Z"/>
    <path class="st0" d="M691.31,238.59c-15.91,0-28.13-13.9-28.13-30.49,0-19.84,9.64-32.73,27.23-32.73,6.05,0,12.67,4.26,15.02,9.53v-28.35h4.6c7.17,0,10.31,4.15,10.31,10.2v42.59c0,17.59-8.29,29.25-29.02,29.25ZM690.52,188.04c-7.62,0-12.55,7.4-12.55,17.15,0,12.55,6.5,20.74,15.13,20.74s12.11-6.28,12.11-17.26c0-15.13-6.61-20.62-14.68-20.62Z"/>
    <path class="st0" d="M762.02,175.38c18.16,0,28.58,14.57,28.58,30.6,0,18.15-10.42,32.62-29.92,32.62-18.16,0-28.58-14.46-28.58-30.49,0-18.15,10.42-32.73,29.92-32.73ZM760.67,188.82c-8.63,0-13,7.17-13,17.15,0,11.99,4.37,19.16,14.35,19.16,8.74,0,13-7.17,13-17.03,0-12.11-4.48-19.28-14.35-19.28Z"/>
    <path class="st0" d="M836.65,191.41c-2.24-.9-4.82-1.8-8.74-1.8-6.72,0-10.42,3.7-10.42,12.89v34.74h-4.15c-6.72,0-10.99-3.36-10.99-9.64v-27.79c0-12.11,6.39-23.65,22.3-23.65,9.3,0,12.55,5.27,12.55,9.86v5.38h-.56Z"/>
  </g>
</svg>