<?xml version="1.0" encoding="UTF-8"?>
<svg id="Capa_1" xmlns="http://www.w3.org/2000/svg" version="1.1" viewBox="0 0 369.69 34.16">
  <!-- Generator: Adobe Illustrator 30.5.1, SVG Export Plug-In . SVG Version: 2.1.4 Build 3)  -->
  <defs>
    <style>
      .st0 {
        fill: #fff;
      }
    </style>
  </defs>
  <path class="st0" d="M6.08,24.21c.29,1.51,1.37,4.38,4.41,4.38s4.66-2.33,4.66-6.99V.64h6.29v20.96c0,8.91-4.54,12.56-10.95,12.56C3.08,34.16.5,29,0,25.3l6.08-1.1Z"/>
  <path class="st0" d="M35.22.64h7.49l11.87,32.88h-6.54l-2.66-7.63h-12.86l-2.66,7.63h-6.5L35.22.64ZM43.51,20.51l-4.54-13.06-4.58,13.06h9.12Z"/>
  <path class="st0" d="M68.37.64h7.49l11.87,32.88h-6.54l-2.66-7.63h-12.86l-2.66,7.63h-6.5L68.37.64ZM76.65,20.51l-4.54-13.06-4.58,13.06h9.12Z"/>
  <path class="st0" d="M102.8,15.07h13.61v9c0,5.8-5.87,10.05-13.07,10.09-8.74.04-15.28-6.03-15.28-17.08S94.6,0,103.34,0c7.08,0,11.37,3.88,12.95,8.04l-5.75,1.69c-.83-1.46-2.91-4.16-7.2-4.16-5.08,0-8.99,4.16-8.99,11.51s3.91,11.51,8.99,11.51c3.75,0,6.79-2.28,6.79-4.66v-3.88h-7.33v-4.98Z"/>
  <path class="st0" d="M125.28,24.66c.5.96,2.25,3.93,7.08,3.93,4.12,0,5.79-1.92,5.79-4.48,0-2.42-1.79-3.79-6.41-4.7-8.24-1.69-10.87-5.3-10.87-10.05,0-5.57,4.08-9.36,11.45-9.36,6.49,0,10.03,3.38,11.28,6.67l-5.33,2.01c-.75-1.28-2.16-3.06-5.83-3.11-3.46,0-5.29,1.6-5.29,3.88,0,2.15,1.54,3.65,6.33,4.57,6.95,1.28,10.95,3.88,10.95,10.14s-4.21,10-12.07,10-11.32-4.2-12.41-7.49l5.33-2.01Z"/>
  <path class="st0" d="M147.73,17.08c0-11.78,7.45-17.08,15.32-17.08s15.32,5.3,15.32,17.08-7.45,17.08-15.32,17.08-15.32-5.3-15.32-17.08ZM172.12,17.08c0-7.12-3.91-11.51-9.08-11.51s-9.03,4.38-9.03,11.51,3.87,11.51,9.03,11.51,9.08-4.38,9.08-11.51Z"/>
  <path class="st0" d="M182.95.64h6.29v27.31h16.15v5.57h-22.44V.64Z"/>
  <path class="st0" d="M214.43.64v17.58c0,7.03,2.37,10.37,6.58,10.37s6.62-3.33,6.62-10.37V.64h6.25v17.58c0,10.37-4.16,15.94-12.87,15.94s-12.87-5.57-12.87-15.94V.64h6.29Z"/>
  <path class="st0" d="M247.61,6.21h-10.24V.64h26.73v5.57h-10.24v27.31h-6.25V6.21Z"/>
  <path class="st0" d="M267.93.64h6.29v32.88h-6.29V.64Z"/>
  <path class="st0" d="M279.13,17.08c0-11.78,7.45-17.08,15.32-17.08s15.32,5.3,15.32,17.08-7.45,17.08-15.32,17.08-15.32-5.3-15.32-17.08ZM303.53,17.08c0-7.12-3.91-11.51-9.08-11.51s-9.03,4.38-9.03,11.51,3.87,11.51,9.03,11.51,9.08-4.38,9.08-11.51Z"/>
  <path class="st0" d="M314.35,33.52V.64h7.62l12.45,24.11V.64h6.29v32.88h-7.62l-12.45-24.11v24.11h-6.29Z"/>
  <path class="st0" d="M350.53,24.66c.5.96,2.25,3.93,7.08,3.93,4.12,0,5.79-1.92,5.79-4.48,0-2.42-1.79-3.79-6.41-4.7-8.24-1.69-10.87-5.3-10.87-10.05,0-5.57,4.08-9.36,11.45-9.36,6.49,0,10.03,3.38,11.28,6.67l-5.33,2.01c-.75-1.28-2.16-3.06-5.83-3.11-3.46,0-5.29,1.6-5.29,3.88,0,2.15,1.54,3.65,6.33,4.57,6.95,1.28,10.95,3.88,10.95,10.14s-4.21,10-12.07,10-11.32-4.2-12.41-7.49l5.33-2.01Z"/>
</svg>