<?xml version="1.0" encoding="UTF-8"?>
<svg id="Capa_1" xmlns="http://www.w3.org/2000/svg" version="1.1" viewBox="0 0 381.38 185.86">
  <!-- Generator: Adobe Illustrator 30.5.1, SVG Export Plug-In . SVG Version: 2.1.4 Build 3)  -->
  <defs>
    <style>
      .st0 {
        fill: #fff;
      }
    </style>
  </defs>
  <g>
    <path id="Trazado_746" class="st0" d="M65.41,25.54l1.84,3.72,4.11.6-2.97,2.9.7,4.09-3.68-1.93-3.67,1.92.7-4.09-2.97-2.9,4.11-.6,1.84-3.71Z"/>
    <path id="Trazado_747" class="st0" d="M92.42,32.43l1.84,3.72,4.11.6-2.97,2.9.7,4.09-3.68-1.93-3.67,1.93.7-4.09-2.97-2.9,4.11-.6,1.84-3.72Z"/>
    <path id="Trazado_748" class="st0" d="M113.13,49.2l1.84,3.72,4.11.6-2.97,2.9.7,4.09-3.68-1.93-3.68,1.93.7-4.09-2.97-2.9,4.11-.6,1.84-3.72Z"/>
    <path id="Trazado_749" class="st0" d="M124.97,73.2l1.84,3.72,4.11.6-2.97,2.9.7,4.09-3.68-1.93-3.68,1.93.7-4.09-2.97-2.9,4.11-.6,1.84-3.72Z"/>
    <path id="Trazado_750" class="st0" d="M125.42,101.06l1.84,3.72,4.11.6-2.97,2.9.7,4.09-3.68-1.93-3.68,1.93.7-4.09-2.97-2.9,4.11-.6,1.84-3.72Z"/>
    <path id="Trazado_751" class="st0" d="M113.16,125.17l1.84,3.72,4.11.6-2.97,2.9.7,4.09-3.68-1.93-3.68,1.93.7-4.09-2.97-2.9,4.11-.6,1.84-3.72Z"/>
    <path id="Trazado_752" class="st0" d="M92.55,141.95l1.84,3.72,4.11.6-2.97,2.9.7,4.09-3.68-1.93-3.68,1.93.7-4.09-2.97-2.9,4.11-.6,1.84-3.72Z"/>
    <path id="Trazado_753" class="st0" d="M65.4,147.84l1.84,3.72,4.11.6-2.97,2.9.7,4.09-3.68-1.93-3.68,1.93.7-4.09-2.97-2.9,4.11-.6,1.84-3.72Z"/>
    <path id="Trazado_754" class="st0" d="M38.84,141.96l1.84,3.72,4.11.6-2.97,2.9.7,4.09-3.67-1.94-3.68,1.93.7-4.09-2.97-2.9,4.11-.6,1.84-3.71Z"/>
    <path id="Trazado_755" class="st0" d="M18.23,125.2l1.84,3.72,4.11.6-2.97,2.9.7,4.09-3.68-1.93-3.67,1.93.7-4.09-2.97-2.91,4.11-.6,1.84-3.72Z"/>
    <path id="Trazado_756" class="st0" d="M5.95,101.24l1.84,3.72,4.11.6-2.97,2.9.7,4.09-3.67-1.93-3.68,1.92.7-4.09-2.97-2.9,4.11-.6,1.84-3.71Z"/>
    <path id="Trazado_757" class="st0" d="M5.95,73.2l1.84,3.72,4.11.6-2.97,2.9.7,4.09-3.67-1.93-3.67,1.93.7-4.09L0,77.52l4.11-.6,1.84-3.72Z"/>
    <path id="Trazado_758" class="st0" d="M17.6,49.23l1.83,3.72,4.11.6-2.97,2.9.7,4.09-3.68-1.93-3.67,1.93.7-4.09-2.97-2.9,4.11-.6,1.85-3.72Z"/>
    <path id="Trazado_759" class="st0" d="M38.81,32.44l1.84,3.72,4.11.6-2.97,2.9.7,4.09-3.68-1.93-3.68,1.93.7-4.09-2.97-2.9,4.11-.6,1.84-3.72Z"/>
    <g id="Grupo_171">
      <path id="Trazado_760" class="st0" d="M96.9,102s-.04,0-.06-.01c-.28,0-.51.23-.51.51s.23.51.51.51h0s.04,0,.06-.01c.02,0,.04,0,.06.01.28,0,.51-.23.51-.51s-.23-.51-.51-.51h0s-.04,0-.06.01Z"/>
      <path id="Trazado_761" class="st0" d="M102.57,94.85c-.44.07-.86.23-1.24.46-.22.15-.46.25-.72.3.15-.3.21-.64.18-.98-.09-.93-.09-2.46-.09-2.46,0,0-.31.93-.76,1.15-.46.22-1.31.53-1.46.84s-.78.31-1.02,1.24c-.06.4-.19.79-.38,1.15-.06.11-.12.21-.2.32.3-1.34.47-2.71.51-4.08,0-.22,0-.42,0-.64.19-.16.37-.33.53-.51.2-.32,2.58-1.14,2.91-1.78.33-.62.51-1.07.67-1.33.24-.55.36-1.13.38-1.73-.02-.8-.11-1.59-.27-2.37-.37.19-.7.44-.98.75-.07.1-.16.19-.26.27,0-.23-.03-.45-.11-.67-.33-.82-.84-1.91-.84-1.91,0,0-.44.69-.69,1.11-.4.8-.8.86-.87,1.18-.04.33-.53.53-.71,1.18-.05.17-.09.34-.12.51-.18-1.37-.4-2.62-.66-3.74.11-.36.24-1.15.56-1.4.41-.41.61-.98.53-1.55-.01-.49-.09-.99-.22-1.46-.07-.38-1.24-2-1.15-2.46,0,0-.58,1.31-.8,1.82-.58-.58-1.24-1.08-1.95-1.49-.29-.51-.59-1.01-.9-1.52.01-.15.05-.47.1-.81.15-.53.18-1.08.09-1.62-.15-.38-.47-.69-.62-1.15-.09-.44-.31-.84-.62-1.15-.38-.4-.93-.93-.93-.93,0,0-.15.69-.29,1.24-.13-.06-.26-.12-.39-.15-.09-.04-.29-.14-.5-.25-.27-.36-.53-.71-.77-1.01.14-.09.23-.25.23-.42,0-.29-.22-.53-.51-.54-.29,0-.53.22-.54.51,0,.29.22.53.51.54.11,0,.22-.03.31-.09.07.11.27.43.57.9-.25-.14-.49-.28-.6-.35-.2-.13-.31,1.39.15,2.23-.07-.02-.15-.04-.22-.06-.58-.15-1.18-.2-1.77-.15.22,0,.78.6.84.91.19.47.52.87.93,1.15.42.24.81.53,1.15.86.6.31,1.28.44,1.96.38.2.13.44.18.68.17.29.49.57.99.85,1.49-.12.43-.18.88-.18,1.33h0c-.38-.07-1.69-.38-1.69-.38.08.69.31,1.35.67,1.93-.07.07-.13.16-.15.26-.03.16.01.33.11.47.18.27.43.48.73.61l-6.34,4.46c.3-5.46.1-10.93-.62-16.35.77-.29.56-.64.56-.64l-.3-.75c.08.04.16.06.25.06.14,0,.27-.05.36-.15.19-.24.15-.58-.09-.78-.14-.15-.31-.26-.49-.35l.9-.13.52-2.18h0l-2.13.72-.05.91c-.1-.17-.23-.32-.38-.45-.18-.22-.51-.25-.73-.07-.22.18-.25.51-.07.73.03.04.06.07.1.1.22.2.49.35.78.41,0,.02.02.04.03.06l-10.64,11.71-7.06-11.8c.43-2.86-1.1-7.2-1.16-7.38.1-.38.14-.78.12-1.18.32-.1.57-.35.67-.67h.01v-.03h0c-.25-.33-.53-.64-.82-.93.13.03.25.04.38.05h.05c.31.02.57-.21.6-.52-.02-.3-.28-.53-.58-.51h0c-.2-.01-.41.01-.6.07l.58-.71-1.09-1.97h0l-1.08,1.97.58.71c-.19-.06-.39-.08-.59-.07-.17,0-.33.06-.45.18-.09.09-.14.21-.14.34,0,.13.05.25.14.34.12.11.28.18.44.18h.05c.1,0,.21-.01.31-.03-.18.17-.41.43-.57.61-.06.05-.11.11-.15.18l-.04.04s.01.05.02.08v.05c.07.16.19.29.32.39-.81,1.5-2.8,5.86-1.65,10.4l-6.1,10.21-10.67-11.76c.32-.05.61-.2.85-.42.13-.11.2-.27.21-.43.02-.26-.18-.48-.43-.5,0,0-.01,0-.02,0-.16,0-.32.06-.44.16-.16.13-.29.28-.39.45l-.05-.91-2.13-.72h0l.52,2.18.91.13c-.18.08-.34.2-.48.34-.13.11-.2.27-.21.43,0,.13.04.25.12.35.09.09.21.15.33.15h.03c.09,0,.17-.02.25-.06l-.3.75s-.21.35.56.64c-.72,5.42-.93,10.89-.62,16.35l-6.34-4.46c.3-.12.55-.33.73-.6.09-.12.13-.27.12-.42-.01-.11-.06-.22-.14-.3.37-.59.61-1.25.68-1.94,0,0-1.31.31-1.69.38h0c0-.45-.06-.89-.18-1.33.28-.5.56-1,.85-1.49.24.02.48-.04.68-.17.67.06,1.35-.07,1.96-.38.35-.34.73-.63,1.15-.86.41-.29.74-.69.93-1.15.07-.31.62-.91.84-.91-.6-.05-1.2,0-1.77.15-.07.02-.14.04-.22.06.46-.84.35-2.36.15-2.23-.11.07-.36.21-.6.35.3-.47.5-.79.57-.9.08.06.18.09.28.09.28,0,.51-.23.51-.51,0-.28-.23-.51-.51-.51-.28,0-.51.23-.51.51,0,.17.09.33.23.42-.24.3-.5.65-.77,1.01-.22.12-.41.22-.5.25-.14.04-.27.09-.39.15-.14-.56-.29-1.24-.29-1.24,0,0-.55.53-.93.93-.32.32-.53.72-.62,1.15-.15.46-.46.78-.62,1.15-.09.54-.06,1.09.09,1.62.05.34.08.66.1.81-.31.51-.61,1.02-.9,1.52-.71.41-1.37.91-1.95,1.49-.22-.51-.8-1.82-.8-1.82.09.46-1.09,2.08-1.15,2.46-.13.48-.21.97-.22,1.46-.08.57.12,1.15.53,1.55.32.26.45,1.04.56,1.4-.26,1.12-.49,2.37-.66,3.74-.03-.17-.07-.34-.12-.51-.18-.64-.67-.84-.71-1.18-.07-.31-.46-.38-.86-1.18-.25-.42-.69-1.11-.69-1.11,0,0-.51,1.09-.84,1.91-.08.21-.12.44-.11.67-.1-.08-.19-.17-.26-.27-.27-.31-.61-.57-.98-.75-.15.78-.24,1.58-.27,2.37.01.59.14,1.18.38,1.73.16.27.33.71.67,1.33.33.64,2.71,1.46,2.91,1.78.17.18.35.35.54.51,0,.21-.01.42-.01.64.04,1.37.21,2.74.51,4.08-.07-.1-.14-.21-.2-.32-.19-.36-.32-.75-.38-1.15-.24-.93-.87-.93-1.02-1.24s-1-.62-1.46-.84c-.44-.22-.75-1.15-.75-1.15,0,0,0,1.53-.09,2.46-.03.34.03.68.18.98-.26-.05-.5-.15-.72-.3-.38-.23-.8-.39-1.24-.46.1.83.26,1.65.46,2.46.2.6.51,1.15.93,1.62.22.24.53.62,1.07,1.15.55.56,1.95.67,3.48,1.18.44.14.83.43,1.08.82.06.2.1.37.14.5.17.67.4,1.49.67,2.38-.54-.54-1.27-.84-2.04-.85-.53-.09-2.62-.62-2.62-.62.55.67.93,1.46,1.11,2.31-.8-.14-1.62-.14-2.42,0,.84.63,1.54,1.42,2.06,2.32.31.83.75,1.61,1.31,2.31.24.15.93,1,1.4,1.46s2.31.22,2.93.22c.49.09.96.24,1.41.45.59.74,1.24,1.42,1.96,2.04-.63-.26-1.21-.64-1.7-1.11-.3-.41.04,1.36.39,1.94-.47-.01-.94-.15-1.34-.39-.51-.4-.07,1.4.49,1.91,1.19,1.06,1.08,1.23,1.27,1.3-1,.2-2.4.54-2.83.29-.56-.31.62.78,1.33,1.04,1.02.38.89,1.04,2,1.4.98.43,2.04.67,3.11.71.55-.19,1.11-.33,1.68-.42.67-.08,1.81-.98,3.11-1.14,1.22.75,2.47,1.45,3.76,2.07.05.03.13.06.2.09-.15.01-.29.03-.44.06-.92.27-1.88.37-2.84.31-.42-.22.48,1.02,1.05,1.49-.85.19-1.73.25-2.6.19-.62-.13,1.24,1.66,1.97,1.86l.09.02c-.45.18-.93.28-1.42.32-.64-.04,2.04,1.71,2.77,1.6,2.35-.33,4.57.47,5.66.02.98-.38,1.55-.64,2.04-.8.49-.18.75-.62,1.07-.84.3-.39.68-.7,1.12-.91.04.02.09.03.13.03.83.05,1.65.05,2.48,0-.37.15-.71.36-1.01.61-.85.25-1.68.53-2.5.86-1.42.93-2.74,2.02-3.93,3.24,0,0,2-.15,2.31-.15s1-1.38,1.31-1.62c.09-.06.6-.32,1.34-.67-.76,1.31-.5,2.98.62,3.99-.53-.62.07-1.71.07-1.71l1.09.69c-1.36-2.34.75-3.89,1.45-4.33.07-.03.14-.06.22-.08.2.28.52.46.86.47.33-.01.64-.17.83-.44.14.05.28.11.42.16.81.55,2.55,2.05,1.28,4.22l1.09-.69s.6,1.09.07,1.71c1.1-.99,1.38-2.61.67-3.91.65.31,1.1.54,1.18.6.31.24,1,1.62,1.31,1.62s2.31.15,2.31.15c-1.19-1.22-2.5-2.3-3.93-3.24-.76-.31-1.53-.58-2.32-.8-.32-.28-.69-.5-1.08-.66.83.05,1.65.05,2.48,0,.02,0,.03,0,.05,0,.42.23.79.53,1.09.89.31.22.58.66,1.07.84.49.15,1.07.42,2.04.8,1.09.44,3.31-.35,5.66-.02.73.11,3.42-1.64,2.77-1.6-.48-.04-.96-.15-1.42-.32l.09-.02c.73-.2,2.6-1.99,1.97-1.86-.87.06-1.75,0-2.6-.19.57-.47,1.47-1.71,1.05-1.49-.96.06-1.92-.04-2.84-.31-.14-.03-.29-.05-.44-.06.07-.03.14-.07.2-.09,1.29-.63,2.55-1.32,3.76-2.07,1.3.16,2.44,1.06,3.11,1.14.57.09,1.14.23,1.68.42,1.07-.04,2.12-.28,3.11-.71,1.11-.35.98-1.02,2-1.4.71-.27,1.89-1.35,1.33-1.04-.43.25-1.82-.09-2.83-.29.19-.07.08-.24,1.27-1.3.55-.51,1-2.31.49-1.91-.41.24-.87.37-1.34.39.35-.57.69-2.35.39-1.94-.49.48-1.07.86-1.7,1.11.71-.62,1.37-1.3,1.96-2.04.45-.21.92-.36,1.41-.45.62,0,2.46.25,2.93-.22s1.15-1.31,1.4-1.46c.56-.69,1-1.47,1.31-2.31.52-.91,1.23-1.7,2.06-2.33-.8-.14-1.62-.14-2.42,0,.17-.85.55-1.64,1.1-2.3,0,0-2.08.53-2.62.62-.76,0-1.5.31-2.04.85.27-.88.49-1.7.67-2.38.03-.13.08-.3.14-.5.26-.39.64-.68,1.08-.82,1.54-.51,2.93-.62,3.48-1.18.53-.53.84-.91,1.07-1.15.42-.47.74-1.02.93-1.62.21-.81.36-1.63.46-2.46ZM97.02,93.37c-.08,1.06-.24,2.11-.48,3.14-.03-.44-.15-.86-.35-1.25-.22-.46-.53-.46-.69-.93s-.69-.62-1-1c-.28-.31-.6-.59-.93-.84-.22.96-.27,1.95-.15,2.93.06.15.1.3.11.46-.23-.09-.43-.15-.43-.15-.4.91.07,1.84.22,2.68.14.38.32.74.53,1.09.15.31.09.6.24.84.15.2.48.23.83.55,0,.41.07.82.19,1.21-.3.99-.62,2-.97,3.01-.03-.38-.16-.75-.37-1.07-.3-.37-.54-.79-.69-1.24-.31-.84-.93-.84-1.02-1.68-.13.61-.23,1.22-.29,1.84-.05.54,0,1.09.13,1.62.02.35-.03.7-.14,1.03,0-.46-.1-.92-.3-1.34-.15-.29-.21-.61-.16-.93-.33.57-.73,1.09-1.18,1.57l-.29-.48c4.05-7.08,3.1-19.18,2.95-20.84.65-.14.54-.47.54-.47l-.13-.79c.06.05.13.08.2.1.05.01.09.02.14.02.1,0,.19-.03.27-.08.12-.08.19-.22.2-.36,0,0,0-.02,0-.03.22.28.5.51.83.67.55.15,1.02.4,1.09.62h0c.35,1.45.61,2.92.78,4.4h0c-.62-.7-.78-2.01-2.15-2.71.04.31.04.62,0,.93-.09.4-.13.8-.13,1.21-.41-.27-.77-.63-1.05-1.04-.12.99-.02,1.99.31,2.93.55,1,.55,1.53,1.15,1.75.34.12.66.31.93.55.27.2.6.33.93.38.08,0,.15.05.2.12.03.16.07.31.12.47.01.42.01.8,0,1.15h0ZM43.25,85.03l4.1,2.89c-.06,1.54.14,3.07.58,4.54l-3.41,5.7c-.56-1.23-1.99-5.22-1.28-13.13ZM36.93,81.68c.15-.27.41-.46.71-.54.02.31-.08.62-.27.86-.05.08-.13.13-.22.16-.07.02-.15.01-.21-.03-.06-.04-.1-.11-.1-.18,0-.1.02-.19.08-.27ZM50.4,72.19l3.26,3.6c-.07.99-.21,4.09.65,6.03l-2.98,4.96c-.71-1.44-2.18-5.69-.93-14.59ZM63.13,69.86c1.45-.25,2.92-.26,4.37-.01l.46.78c-1.75-.38-3.56-.38-5.3.02l.47-.79ZM63.5,69.24l1.82-3.04,1.81,3.02c-1.2-.16-2.42-.16-3.62.01h0ZM62.25,71.33c2-.56,4.11-.56,6.11-.02l.5.84c-2.31-.8-4.82-.79-7.12.03l.51-.84ZM61.26,72.98c2.58-1.12,5.5-1.14,8.09-.04l12.54,20.96h-4.6c-.21-.13-.41-.27-.61-.43-.07-.06-.14-.11-.21-.16-.3-.2-.67-.27-1.03-.2-.19.04-.37.1-.54.19-.17.09-.33.19-.48.31-.01.02-.03.03-.05.04-.08-.03-.16-.06-.23-.1-.41-.2-.78-.44-1.13-.73-.11-.09-.23-.18-.36-.25-.21-.11-.45-.17-.69-.17-.17,0-.33.03-.49.07-.23.07-.44.17-.64.3-.13.08-.26.18-.39.27-.01.01-.03.03-.05.03l-.03-.02c-.23-.15-.48-.27-.74-.37-.23-.09-.45-.21-.66-.34-.3-.18-.59-.39-.86-.61-.1-.08-.2-.15-.31-.22-.22-.13-.47-.21-.73-.23-.18-.01-.35,0-.53.04-.23.05-.46.13-.67.25-.11.06-.22.14-.33.21v-7.26c.77-.05,1.36-.31,1.36-.64s-.55-2.51-1.29-3.04c-.45-.32-1.06-.34-1.52-.04,0,0-.95.55-.46,1.33,0,0,.1.24.52.07.18-.07.31-.23.34-.42v.19c-.01.27-.38.42-.4.43-.18.48-.31.98-.39,1.49,0,.33.6.59,1.37.64v7.37l-.07-.04c-.32-.19-.62-.41-.91-.65-.1-.09-.22-.17-.33-.24-.23-.13-.48-.21-.74-.24-.21-.02-.42,0-.62.04-.24.05-.48.14-.7.26-.23.12-.45.27-.66.43-.02.02-.03.03-.06.03l-.05-.03c-.1-.06-.19-.11-.29-.17-.13-.08-.27-.14-.42-.2-.19-.07-.37-.15-.55-.25-.51-.27-1-.6-1.44-.97-.04-.04-.08-.07-.13-.1-.34-.27-.75-.43-1.18-.47-.01,0-.03,0-.04-.01h-.24s-.04,0-.06.01c-.28.02-.56.09-.82.2-.3.12-.58.28-.85.47-.3.21-.58.45-.85.7-.34.33-.66.68-.95,1.05-.29.36-.56.73-.81,1.12-.01.02-.03.04-.04.06-.18.22-.37.44-.58.64-.12.13-.26.24-.39.36h-2.56l12.51-20.92ZM79.3,86.78l-2.97-4.97c.85-1.94.71-5.04.64-6.03l3.26-3.6c1.24,8.89-.23,13.15-.94,14.6ZM92.99,81.15c.3.08.56.27.72.54.05.08.08.17.08.26,0,.07-.04.14-.1.18-.06.04-.14.05-.21.03-.09-.03-.17-.09-.22-.17-.19-.24-.28-.55-.26-.86h0ZM86.1,98.15l-3.41-5.69c.44-1.47.64-3,.58-4.54l4.1-2.89c.72,7.89-.71,11.88-1.27,13.11h0ZM42.11,105.01l3.2-5.35h38.84s-.03-.02-.05-.03c-.07-.04-.13-.07-.2-.11-.23-.14-.45-.3-.66-.46-.38-.3-.74-.62-1.1-.95-.51-.48-1.01-.98-1.49-1.48-.32-.33-.63-.67-.94-1.01-.13-.15-.27-.29-.42-.43-.26-.25-.55-.47-.85-.67-.13-.08-.27-.16-.42-.22h4.09l6.42,10.73h-46.43ZM48.52,94.28h2.37c-.46.4-.94.77-1.43,1.12-.04.03-.09.06-.14.09-.27.16-.52.34-.77.53-.4.31-.79.64-1.17.97s-.74.69-1.1,1.04l2.24-3.75ZM65.22,92.82c.09.04.18.08.27.12.1.04.21.09.31.14.28.15.54.32.79.52.41.32.79.68,1.13,1.07.53.59,1.07,1.17,1.62,1.74.23.23.45.47.68.7.58.58,1.18,1.15,1.8,1.69l.12.1.02.02h0s-3.03.01-3.03.01c-.03,0-.06,0-.09-.03l-.2-.16c-.42-.33-.83-.68-1.23-1.04-.46-.41-.91-.83-1.35-1.27-.96-.94-1.89-1.91-2.79-2.91-.16-.17-.31-.35-.47-.52-.35-.37-.72-.71-1.12-1.03-.01-.01-.03-.02-.04-.04l.02-.02c.19-.14.4-.25.62-.34.12-.05.25-.08.39-.1.23-.03.47,0,.67.12.1.05.2.12.28.19.23.19.47.37.72.54.28.19.57.35.88.5h0ZM77.46,94.84s.09.04.14.06c.12.04.23.1.34.17.28.17.55.37.79.6.16.14.31.3.45.46.28.32.58.64.87.95.27.28.54.56.81.83.33.33.66.65,1.01.96.02.01.03.03.05.05h-.02s-1.69,0-1.69,0c-.04,0-.08,0-.11-.04-.32-.26-.63-.53-.93-.81s-.58-.55-.87-.83c-.63-.62-1.24-1.26-1.83-1.92-.13-.14-.25-.28-.38-.41-.29-.3-.61-.58-.95-.82l-.04-.03s0-.01.01-.02c.14-.09.3-.16.46-.2.16-.04.33,0,.47.08.06.04.11.08.17.12.38.32.8.58,1.25.79h0ZM75.17,95.06c.23.2.45.41.65.64.44.49.89.97,1.35,1.45.41.42.83.84,1.26,1.25.17.16.35.32.52.48l.04.04s-.02,0-.02,0h-2.37s-.02,0-.03,0c-.03,0-.06,0-.08-.03-.16-.13-.32-.26-.47-.39-.45-.38-.88-.77-1.29-1.18-.25-.24-.49-.47-.73-.71-.63-.63-1.24-1.28-1.84-1.94-.13-.14-.26-.29-.4-.43-.22-.23-.45-.45-.7-.65l-.03-.03h0s.02-.03.02-.03c.16-.12.33-.22.51-.29.12-.05.24-.08.36-.08.13,0,.27.02.39.08.08.04.15.09.22.15.37.31.77.57,1.19.79.12.06.24.11.36.16.12.05.23.1.34.17.27.16.53.34.76.55h0ZM71.49,95.04c.34.38.68.75,1.03,1.12.32.33.64.66.96.99.56.56,1.12,1.1,1.71,1.62.04.04.09.08.13.12l.02.03h-.02s-2.13,0-2.13,0c-.03,0-.07,0-.09-.03-.16-.13-.32-.25-.47-.38-.51-.42-1-.87-1.47-1.33-.26-.25-.51-.5-.76-.75-.68-.68-1.34-1.37-1.98-2.08-.15-.16-.29-.33-.45-.49-.38-.4-.8-.76-1.25-1.08-.21-.15-.44-.28-.67-.4l-.04-.02s0-.01.01-.02c.19-.13.41-.22.63-.27.11-.03.23-.04.35-.03.14.01.27.05.39.12.09.05.18.11.26.18.46.38.97.71,1.51.96.08.04.15.07.23.1.13.05.27.12.39.19.28.17.55.36.81.57.32.26.61.55.89.86h0ZM62.01,93.27c.21.21.41.42.6.64.22.24.44.48.66.72.4.43.8.85,1.21,1.27.73.75,1.47,1.48,2.25,2.18.3.27.6.53.91.79l.05.04h-21.23s0-.03.01-.04c.1-.1.2-.2.3-.29.32-.31.64-.62.97-.92.4-.36.81-.71,1.23-1.04.26-.2.52-.38.8-.55.08-.05.16-.1.23-.15.67-.47,1.31-.98,1.91-1.55.34-.32.66-.66.96-1.03.02-.02.04-.05.06-.07.25-.4.52-.78.82-1.14.24-.29.49-.57.76-.84.28-.28.58-.53.9-.75.21-.14.44-.27.67-.36.16-.06.33-.11.5-.13.29-.04.59.02.85.17.11.06.22.14.32.22.24.2.49.39.74.56.3.2.61.39.93.55.17.09.34.16.52.23.12.05.23.1.34.16.3.16.58.35.85.56.31.24.6.49.87.76h0ZM57.22,106.41c1.02.76,2.19,1.32,3.42,1.65-.82.25-6.16,1.66-10.73-1.65h7.31ZM64.51,110.74s.51-2.66.8-4.33h0c.3,1.68.8,4.33.8,4.33.12.9-.17,1.81-.8,2.48-.63-.66-.92-1.58-.8-2.48h0ZM73.41,106.41h7.31c-4.57,3.31-9.91,1.9-10.73,1.65,1.23-.33,2.39-.89,3.42-1.66h0ZM92.01,80.22c-.06-.08-.09-.19-.07-.29.01-.05.04-.1.08-.14.02.02.04.04.07.05.26.17.48.38.65.64.02.09.02.19,0,.28-.3-.09-.56-.28-.72-.55h0ZM86.27,67.43c-.14.11-.34.09-.45-.04-.22-.19-.37-.45-.43-.73.01-.01.02-.03.02-.04.3.02.58.15.78.37.14.1.17.29.07.44h0ZM85.66,65.33l.82-.28h0l-.2.85-.66.1h0l.03-.67ZM84.13,65.49s.11-.08.18-.07c.1,0,.2.04.27.12.22.18.37.43.43.71-.05,0-.1.01-.14.04-.25-.06-.48-.18-.67-.35-.15-.1-.19-.3-.09-.45,0,0,0,0,0,0h0ZM66.33,55.57s.06,0,.09,0c.15-.04.31.05.34.2s-.05.31-.2.34c-.05.01-.1.01-.15,0-.31.01-.61-.08-.85-.28.21-.19.48-.29.77-.28h0ZM65.32,53.94h0l.42.76-.42.51h0l-.42-.51.42-.76ZM64.23,56.12h0c-.1,0-.2-.04-.28-.11-.09-.08-.1-.22-.02-.31,0,0,.01-.01.02-.02.08-.07.18-.11.29-.11.31-.03.61.07.85.27-.24.19-.55.29-.86.27h0ZM65.13,61.19c.38-.64.67-1.34.86-2.07.28,1.65.18,3.34-.28,4.95l-.39-.66-1.29,2.15c-.12-1.54.27-3.09,1.11-4.39h0ZM46.06,65.52c.07-.07.17-.11.28-.11.06,0,.12.03.17.07.04.05.06.11.06.17,0,.1-.06.2-.14.27-.21.21-.48.34-.77.37h-.04c.04-.31.2-.6.45-.79h0ZM44.15,65.05h0l.82.28.03.66h0l-.66-.1-.2-.84ZM44.53,67.51c-.06,0-.12-.03-.17-.07-.04-.05-.06-.11-.06-.17,0-.11.06-.21.14-.27.2-.21.46-.34.75-.37h.06c-.05.31-.21.58-.45.78-.07.07-.18.11-.28.1h0ZM38.62,80.22c-.16.26-.42.45-.71.54-.02-.09-.02-.17,0-.26.17-.26.4-.49.66-.66.02-.01.04-.03.06-.05.04.04.07.1.07.16,0,.1-.02.19-.08.27ZM33.61,92.22c.05-.15.09-.31.12-.47.05-.07.12-.11.2-.12.34-.05.66-.18.93-.38.27-.24.59-.43.93-.55.6-.22.6-.75,1.15-1.75.33-.94.43-1.94.31-2.93-.28.41-.64.76-1.05,1.04,0-.41-.04-.81-.13-1.21-.04-.31-.04-.62,0-.93-1.38.71-1.53,2.02-2.15,2.71h0c.17-1.47.43-2.94.78-4.39h0c.07-.22.53-.46,1.09-.62.32-.15.59-.37.81-.65h0c0,.15.08.29.2.37.08.06.17.09.27.08.05,0,.1,0,.14-.02.07-.02.14-.05.2-.1l-.13.79s-.11.34.54.47c-.15,1.66-1.1,13.78,2.96,20.85l-.28.47c-.45-.47-.85-1-1.18-1.57.05.32,0,.65-.16.93-.2.42-.31.88-.31,1.34-.11-.33-.16-.68-.14-1.03.14-.53.18-1.08.13-1.62-.06-.62-.16-1.23-.29-1.84-.09.84-.71.84-1.02,1.68-.15.45-.38.88-.69,1.24-.21.32-.34.69-.37,1.07-.35-1-.68-2.02-.97-3.01.12-.39.18-.8.19-1.21.35-.32.69-.35.83-.55.15-.25.09-.53.25-.84.21-.34.39-.71.53-1.09.15-.84.62-1.77.22-2.68,0,0-.2.07-.43.15.02-.16.06-.31.11-.46.12-.98.07-1.97-.15-2.93-.34.25-.65.53-.93.84-.31.38-.84.53-1,1s-.46.47-.69.93c-.2.39-.32.82-.35,1.25-.24-1.03-.4-2.08-.48-3.14,0-.35,0-.74,0-1.15h0ZM68.44,124.18c-.69,0-1.37.18-1.99.5,0-.02-.02-.04-.03-.06.81-1.37,1.71-2.69,2.7-3.95.46,1.21.19,2.57-.69,3.51ZM64.3,124.68c-.61-.32-1.29-.5-1.99-.5-.88-.94-1.15-2.3-.69-3.51.99,1.26,1.89,2.57,2.7,3.95,0,.02-.01.04-.02.06ZM88.05,114.95c.04-.07.08-.15.09-.23.18-.47.28-.96.31-1.46-.09-.63-.25-1.24-.46-1.84-.22-.56-.76-1.84-1.31-2.08,0,0-.44,1.46-.6,2-.1.52-.29,1.01-.55,1.46-.12.19-.24.39-.34.59-.03-.34-.02-.69.03-1.03.09-1.02-1.53-2.62-1.53-2.62-.03.92-.3,1.82-.78,2.62-.44.67-.72,1.43-.84,2.22-.05.54-.27,1.05-.62,1.46-.46.63.05,3.26.11,3.56-1.03.64-2.11,1.26-3.11,1.76-.3.15-.64.3-1.01.46.07-.07.14-.12.21-.19.72-.64,1.25-1.46,1.53-2.37.48-.08-.65-.21-1.3-.15.38-.58.91-1.37,1.28-2.05.29-.56-2.48.18-2.48.18-.3.12-.54.21-.74.29.2-.63.35-1.29.45-1.94-.02-.22-1.18.15-2.11.56-.69.41-1.34.88-1.95,1.4-.82.53-.93,1.86-1.31,2.48-.2.33-.36.67-.48,1.04,0-.41-.2-.8-.55-1.03h0l-.03-.02s-.03-.01-.04-.02c-.05-.02-.1-.03-.15-.04-.18-.04-.46-.08-.92-.13-.81-.17-1.63.18-2.09.87-.41,1.06-.75,2.15-1.01,3.26-.11-.05-.24-.07-.36-.08-.12,0-.25.03-.36.08-.26-1.11-.6-2.2-1.01-3.26-.45-.69-1.28-1.03-2.09-.86-.45.05-.74.1-.92.13-.05,0-.1.02-.15.04l-.04.02-.03.02h0c-.28.14-.56.52-.57,1.43-.09-.51-.29-1-.57-1.44-.38-.62-.49-1.95-1.31-2.48-.61-.52-1.26-.99-1.95-1.4-.93-.4-2.09-.78-2.11-.56.1.66.25,1.31.45,1.94-.2-.07-.44-.17-.74-.29,0,0-2.77-.73-2.48-.18.37.68.9,1.47,1.28,2.05-.65-.06-1.78.06-1.3.15.29.91.81,1.73,1.53,2.37.07.07.14.12.21.19-.37-.15-.71-.31-1.01-.46-1-.51-2.08-1.12-3.11-1.76.06-.3.57-2.93.11-3.56-.35-.41-.57-.92-.62-1.46-.12-.79-.41-1.55-.84-2.22-.47-.79-.74-1.69-.78-2.62,0,0-1.62,1.6-1.53,2.62.05.34.06.69.03,1.03-.1-.2-.22-.4-.34-.59-.27-.45-.46-.95-.56-1.46-.16-.53-.6-2-.6-2-.56.25-1.09,1.53-1.31,2.08-.22.6-.38,1.21-.46,1.84.03.5.13.99.31,1.46.02.08.05.16.1.23-1.19-.85-2.22-1.9-3.04-3.1.03-.29.14-.57.33-.81.49-.52.88-1.12,1.15-1.77.08-.46.08-.94,0-1.4.05-.46.12-.92.22-1.38l-.03-.09h1.29c2.3,1.7,10.58,6.92,20.31,2.67-.04.12-.09.24-.15.35,0,0-2.09,2.84,2.64,3.8h0c4.73-.96,2.64-3.8,2.64-3.8-.07-.11-.12-.23-.16-.35,9.74,4.26,18.02-.97,20.32-2.67h1.31l-.03.09c.1.45.17.91.22,1.38-.08.46-.08.94,0,1.4.28.65.67,1.26,1.15,1.77.18.23.29.51.33.81-.83,1.2-1.86,2.25-3.05,3.1h0Z"/>
      <path id="Trazado_762" class="st0" d="M80.51,117.6c-.25,0-.46.19-.47.43,0,0,0,0,0,0,0,.25.19.46.44.47,0,0,.01,0,.02,0,.26,0,.46-.21.46-.47-.01-.25-.22-.44-.46-.44Z"/>
      <path id="Trazado_763" class="st0" d="M83.13,120.81c-.26,0-.46.21-.46.47,0,.25.19.46.44.46,0,0,.01,0,.02,0,.26,0,.46-.21.47-.46,0-.25-.21-.46-.47-.47Z"/>
      <path id="Trazado_764" class="st0" d="M89.21,110.66c-.26,0-.46.21-.46.46,0,.25.21.46.46.47.26,0,.46-.21.47-.47,0-.25-.19-.46-.44-.47,0,0-.01,0-.02,0Z"/>
      <path id="Trazado_765" class="st0" d="M92.47,112.96c0,.28.23.51.51.51.28,0,.5-.21.51-.49,0,0,0-.01,0-.02,0-.28-.23-.51-.51-.51-.28.01-.5.23-.51.51Z"/>
      <path id="Trazado_766" class="st0" d="M93.67,102.08c.28,0,.5-.21.51-.49,0,0,0-.01,0-.02,0-.28-.23-.51-.51-.51-.28.01-.5.23-.51.51,0,.28.23.51.51.51Z"/>
      <path id="Trazado_767" class="st0" d="M95.22,91.84c-.28,0-.5.21-.51.49,0,0,0,.01,0,.02.01.28.25.5.53.49.26-.01.48-.22.49-.49,0-.28-.21-.5-.49-.51,0,0-.01,0-.02,0Z"/>
      <path id="Trazado_768" class="st0" d="M98.06,83.52c.28,0,.5-.22.5-.5s-.22-.5-.5-.5-.5.22-.5.5.22.5.5.5Z"/>
      <path id="Trazado_769" class="st0" d="M94.45,84.45c.28,0,.5-.21.51-.49,0,0,0-.01,0-.02,0-.28-.23-.51-.51-.51s-.51.23-.51.51c0,.28.21.5.49.51,0,0,.01,0,.02,0Z"/>
      <path id="Trazado_770" class="st0" d="M91.41,76.16c0-.28-.23-.49-.51-.49-.28,0-.5.22-.5.5s.22.5.5.5c.28,0,.5-.21.51-.49,0,0,0-.01,0-.02Z"/>
      <path id="Trazado_771" class="st0" d="M93.6,74.52c.28,0,.5-.21.51-.49,0,0,0-.01,0-.02-.01-.28-.25-.5-.53-.49-.26.01-.48.22-.49.49,0,.28.21.5.49.51,0,0,.01,0,.02,0Z"/>
      <path id="Trazado_772" class="st0" d="M98.71,92.44c0,.27.23.49.51.49.27,0,.49-.22.49-.49,0-.27-.22-.49-.49-.49-.28,0-.5.21-.51.49Z"/>
      <path id="Trazado_773" class="st0" d="M50.13,117.6c-.25,0-.45.19-.46.44,0,.26.21.46.46.47.25,0,.46-.19.47-.44,0,0,0-.01,0-.02,0-.25-.21-.45-.46-.44,0,0,0,0,0,0Z"/>
      <path id="Trazado_774" class="st0" d="M47.97,121.28c0-.26-.21-.46-.46-.47-.25,0-.46.21-.47.47,0,.26.21.46.47.46.25,0,.46-.19.46-.44,0,0,0-.01,0-.02Z"/>
      <path id="Trazado_775" class="st0" d="M41.43,110.66c-.25,0-.46.19-.46.44,0,0,0,.01,0,.02,0,.26.21.46.46.47.25,0,.46-.21.47-.47,0-.26-.21-.46-.47-.46Z"/>
      <path id="Trazado_776" class="st0" d="M37.66,113.48c.28,0,.51-.23.51-.51-.01-.28-.23-.5-.51-.51-.28,0-.51.23-.51.51,0,.28.21.5.49.51,0,0,.01,0,.02,0Z"/>
      <path id="Trazado_777" class="st0" d="M36.97,101.06c-.28,0-.51.23-.51.51,0,.28.21.5.49.51,0,0,.01,0,.02,0,.28,0,.51-.23.51-.51-.01-.28-.23-.5-.51-.51Z"/>
      <path id="Trazado_778" class="st0" d="M34.31,102.5c0-.28-.21-.5-.49-.51,0,0-.01,0-.02,0-.28,0-.51.23-.51.51s.23.51.51.51h0c.28,0,.5-.21.51-.49,0,0,0-.01,0-.02Z"/>
      <path id="Trazado_779" class="st0" d="M35.42,92.86c.28,0,.51-.23.51-.51-.01-.28-.25-.5-.53-.49-.26.01-.48.22-.49.49,0,.28.23.51.51.51Z"/>
      <path id="Trazado_780" class="st0" d="M32.58,83.52c.28,0,.5-.22.5-.5s-.22-.5-.5-.5-.5.22-.5.5.22.5.5.5Z"/>
      <path id="Trazado_781" class="st0" d="M36.2,83.43c-.28,0-.51.23-.51.51,0,.28.23.51.51.51.28,0,.51-.23.51-.51,0-.28-.23-.51-.51-.51Z"/>
      <path id="Trazado_782" class="st0" d="M39.23,76.16c0,.28.21.5.49.51,0,0,.01,0,.02,0,.28,0,.5-.22.5-.5s-.22-.5-.5-.5c-.28,0-.5.21-.51.49,0,0,0,0,0,0Z"/>
      <path id="Trazado_783" class="st0" d="M37.04,74.52c.28,0,.5-.21.51-.49,0,0,0-.01,0-.02-.01-.28-.25-.5-.53-.49-.26.01-.48.22-.49.49,0,.28.21.5.49.51,0,0,.01,0,.02,0Z"/>
      <path id="Trazado_784" class="st0" d="M31.94,92.44c0-.28-.23-.49-.51-.49-.27,0-.49.22-.49.49,0,.27.22.49.49.49.28,0,.5-.21.51-.49Z"/>
      <path id="Trazado_785" class="st0" d="M59.32,85.3c.22-.04.29.02.38.22l.13-.04-.13-.31.89-.38-.09-.18-1.24.56.07.13Z"/>
      <path id="Trazado_786" class="st0" d="M59.03,83.7l-.18.02.15.69.75-.07-.02-.13c-.1-.04-.17-.12-.2-.22-.03-.16.06-.32.22-.36.15-.06.31.02.37.16,0,.01,0,.02.01.04.06.12,0,.26-.12.32-.01,0-.03.01-.04.01l.04.18c.21-.06.33-.28.27-.5,0,0,0,0,0-.01-.03-.25-.26-.42-.5-.39-.02,0-.05,0-.07.02-.23.04-.38.27-.34.5,0,.01,0,.02,0,.03.02.1.07.18.15.24l-.38.02-.13-.55Z"/>
      <path id="Trazado_787" class="st0" d="M59.1,82.59c.25.02.31-.18.36-.26l.09-.29c.07-.22.11-.29.26-.27.2.02.22.25.2.38-.02.18-.11.38-.36.36l-.02.18c.14.03.28-.01.38-.11.1-.11.15-.25.15-.4.02-.25-.04-.56-.38-.58-.18-.03-.35.09-.38.26l-.13.4c-.02.09-.1.16-.2.15-.2-.02-.22-.22-.2-.36-.01-.16.11-.3.27-.31.01,0,.03,0,.04,0v-.18c-.15,0-.44.02-.49.51-.04.23.11.46.35.5.02,0,.04,0,.05,0Z"/>
      <path id="Trazado_788" class="st0" d="M60.54,80.46l-.15-.04-.27.8-.44-.15.24-.71-.15-.07-.24.73-.4-.13.26-.78-.18-.07-.31.98,1.33.42.31-.98Z"/>
      <path id="Trazado_789" class="st0" d="M60.74,80.16l-.51-.32.22-.37c.13-.18.09-.44-.09-.57-.01,0-.02-.02-.04-.02-.09-.05-.19-.07-.29-.05-.11.03-.21.11-.27.21l-.3.53,1.17.74.11-.14ZM59.7,79.49l.21-.32c.04-.08.12-.13.21-.13.04,0,.07.03.1.05.13.09.14.2.05.33l-.18.29-.39-.22Z"/>
      <path id="Trazado_790" class="st0" d="M60.65,78.2l.89.84.11-.13-.86-.84.33-.35-.13-.11-.78.82.11.11.33-.33Z"/>
      <path id="Trazado_791" class="st0" d="M62.27,78.4l-.84-1.11-.13.11.82,1.11.16-.11Z"/>
      <path id="Trazado_792" class="st0" d="M63.4,77.73l-.07-.13-.75.38-.2-.4.67-.36-.07-.15-.69.35-.2-.38.73-.38-.07-.15-.91.46.64,1.24.91-.49Z"/>
      <path id="Trazado_793" class="st0" d="M63.73,77.64l-.18-.82c-.04-.11-.07-.22-.09-.33l.64,1.07.18-.04.13-1.22c.04.11.06.22.07.33l.18.8h0l.18-.02-.29-1.38-.26.07-.13,1.24-.64-1.07-.27.04.31,1.35.17-.02Z"/>
      <path id="Trazado_794" class="st0" d="M65.66,77.41c.31.02.5-.14.5-.37.02-.16-.08-.31-.24-.35.12-.05.2-.16.19-.29.02-.2-.1-.36-.37-.38l-.61-.02-.06,1.39.59.02ZM65.34,76.2l.3.03c.2,0,.27.06.27.19-.02.15-.11.2-.29.18h-.32l.04-.4ZM65.64,76.81c.13,0,.29.05.29.22,0,.13-.11.22-.29.22l-.35-.03.02-.45.33.03Z"/>
      <path id="Trazado_795" class="st0" d="M65.12,76.01h0Z"/>
      <path id="Trazado_796" class="st0" d="M66.63,76.97l.45.13c.22.07.2.19.18.3-.05.11-.07.22-.06.33l.22.06h0c-.04-.06-.04-.08-.02-.17l.03-.24c.07-.18,0-.24-.06-.29.09-.04.23-.07.27-.27.09-.29-.11-.41-.33-.48l-.62-.21-.37,1.36.18.05.14-.57ZM66.86,76.38l.4.14c.09.02.23.06.16.26-.04.18-.17.17-.3.14l-.38-.11.12-.43Z"/>
      <path id="Trazado_797" class="st0" d="M68.44,78.4l.07-.13-.71-.42.22-.4.67.38.09-.13-.67-.4.22-.35.71.42.09-.15-.89-.51-.69,1.2.89.51Z"/>
      <path id="Trazado_798" class="st0" d="M69.3,79.28c.24.25.65.26.9.01,0,0,.02-.02.03-.03.28-.18.37-.55.19-.83-.01-.02-.03-.05-.05-.07l-.37-.42-1.06.88.35.45ZM70.19,78.51c.16.18.13.37-.11.59-.24.2-.47.19-.62.02l-.21-.24.74-.62.21.26Z"/>
      <path id="Trazado_799" class="st0" d="M70.23,80.79l.15-.07-.38-.75.42-.2.33.69.15-.09-.35-.67.4-.2.36.73.15-.07-.47-.91-1.24.62.46.91Z"/>
      <path id="Trazado_800" class="st0" d="M71.41,81.68l-.95.13.02.18,1.35-.2-.02-.13c-.22-.02-.24-.09-.31-.31l-.13.02.04.31Z"/>
      <path id="Trazado_801" class="st0" d="M71.52,82.49c-.12,0-.24.07-.27.19-.04-.15-.18-.26-.33-.27-.12,0-.24.04-.32.13-.07.1-.11.21-.11.33-.04.22.11.42.33.46.02,0,.05,0,.07,0,.15.03.29-.05.35-.19.04.11.15.19.27.18.18.02.37-.09.37-.4.04-.2-.1-.39-.3-.43-.02,0-.04,0-.06,0ZM70.88,83.15c-.2,0-.22-.16-.22-.27,0-.12.08-.23.21-.24.02,0,.03,0,.05,0,.12,0,.22.11.21.23,0,.01,0,.03,0,.04.02.12-.07.23-.19.24-.02,0-.04,0-.05,0ZM71.52,83.15c-.12-.03-.21-.13-.21-.26,0-.11.1-.2.21-.19.09,0,.2.04.18.22,0,.18-.1.22-.18.22Z"/>
      <path id="Trazado_802" class="st0" d="M71.32,83.63l-.02.18c.09.02.31.09.25.33-.04.2-.2.24-.29.2-.18-.02-.22-.15-.27-.31l-.04-.2c-.06-.22-.24-.39-.47-.44l-.22.91.16.04.18-.73c.07.02.16.09.2.29l.04.15c.07.25.13.42.36.47.22.06.45-.07.51-.3,0,0,0,0,0-.01.07-.24-.06-.49-.3-.56-.02,0-.05-.01-.08-.02Z"/>
      <path id="Trazado_803" class="st0" d="M71.06,84.92l-.13.29-.87-.42-.09.18,1.24.58.04-.13c-.18-.13-.15-.22-.07-.44l-.13-.05Z"/>
      <path id="Trazado_804" class="st0" d="M63.63,89.82l.15.03,1.02-4.2c-.05,0-.1,0-.15-.02l-1.01,4.15v.03Z"/>
      <path id="Trazado_805" class="st0" d="M63.48,88.02l.14.05.85-2.49s-.1-.03-.14-.04l-.84,2.45v.03Z"/>
      <path id="Trazado_806" class="st0" d="M62.03,89.55l.14.06,1.97-4.14-.14-.06-1.95,4.1-.02.04Z"/>
      <path id="Trazado_807" class="st0" d="M61.72,88.86l2.14-3.52s-.09-.05-.13-.07l-2.13,3.52.13.08Z"/>
      <path id="Trazado_808" class="st0" d="M60.4,88.92l-.02.03.12.09,3.04-3.88s-.07-.07-.12-.1l-3.02,3.86Z"/>
      <path id="Trazado_809" class="st0" d="M60.6,87.96l2.69-2.99h0s-.08-.07-.12-.11l-2.69,2.99.11.1Z"/>
      <path id="Trazado_810" class="st0" d="M63.06,84.75s-.06-.08-.1-.12l-3.98,3.51.1.11,3.96-3.49h.01Z"/>
      <path id="Trazado_811" class="st0" d="M62.84,84.49h0s-.07-.08-.1-.12l-2.1,1.48-.03.02.09.12,2.14-1.51Z"/>
      <path id="Trazado_812" class="st0" d="M62.65,84.22s-.05-.09-.07-.13l-1.47.82.07.13,1.47-.82Z"/>
      <path id="Trazado_813" class="st0" d="M60.89,84.5l.06.14,1.55-.68s-.05-.09-.07-.13l-1.54.67Z"/>
      <path id="Trazado_814" class="st0" d="M60.72,84.03l.05.14,1.58-.51h.04s-.05-.15-.05-.15l-1.61.52Z"/>
      <path id="Trazado_815" class="st0" d="M62.28,83.35c-.01-.05-.03-.1-.04-.15l-1.65.36.03.15,1.66-.36Z"/>
      <path id="Trazado_816" class="st0" d="M60.51,83.06l.02.15,1.7-.18c0-.05-.01-.1-.02-.15l-1.7.18Z"/>
      <path id="Trazado_817" class="st0" d="M60.48,82.71l1.71-.02s0-.05,0-.07,0-.05,0-.08l-1.72.02v.15Z"/>
      <path id="Trazado_818" class="st0" d="M60.51,82.25l1.67.14h.03c0-.05.01-.1.02-.15l-1.67-.14h-.04v.15Z"/>
      <path id="Trazado_819" class="st0" d="M60.56,81.71l1.69.37c0-.05.02-.1.03-.15l-1.69-.37-.03.15Z"/>
      <path id="Trazado_820" class="st0" d="M60.7,81.26l1.6.53h.02s.03-.09.04-.14l-1.62-.53-.05.14Z"/>
      <path id="Trazado_821" class="st0" d="M60.9,80.65l-.06.14,1.58.67s.04-.09.07-.14l-1.55-.66h-.03Z"/>
      <path id="Trazado_822" class="st0" d="M61.05,80.34l1.5.82h.01s.05-.08.07-.12l-1.52-.82-.07.13Z"/>
      <path id="Trazado_823" class="st0" d="M61.34,79.93l1.37.98s.07-.08.1-.12l-1.38-.99-.09.13Z"/>
      <path id="Trazado_824" class="st0" d="M61.77,79.42l-.1.12,1.26,1.09h.01s.06-.07.1-.1l-1.24-1.07-.03-.02Z"/>
      <path id="Trazado_825" class="st0" d="M62.12,79.07l-.11.1,1.15,1.21s.08-.06.12-.1l-1.13-1.19-.03-.02Z"/>
      <path id="Trazado_826" class="st0" d="M62.51,78.76l-.12.1,1.04,1.3s.07-.07.12-.1l-1.02-1.27-.02-.03Z"/>
      <path id="Trazado_827" class="st0" d="M62.99,78.49l-.13.07.82,1.42h0s.09-.04.13-.06l-.81-1.4-.02-.03Z"/>
      <path id="Trazado_828" class="st0" d="M63.41,78.3l-.14.06.69,1.48s.09-.05.14-.07l-.67-1.45-.02-.03Z"/>
      <path id="Trazado_829" class="st0" d="M63.9,78.13l-.14.05.54,1.54s.1-.03.14-.04l-.53-1.51v-.03Z"/>
      <path id="Trazado_830" class="st0" d="M64.4,77.97l-.15.03.33,1.62h0c.05-.01.1-.02.15-.03l-.33-1.59v-.03Z"/>
      <path id="Trazado_831" class="st0" d="M64.94,79.58c.05,0,.1-.01.15-.02l-.17-1.65h-.15s.16,1.67.16,1.67Z"/>
      <path id="Trazado_832" class="st0" d="M65.37,77.9h-.15l.02,1.65h.02s.08.01.13.01l-.02-1.63v-.04Z"/>
      <path id="Trazado_833" class="st0" d="M65.54,79.56v.02c.05,0,.1,0,.15.02l.16-1.67h-.15s-.16,1.63-.16,1.63Z"/>
      <path id="Trazado_834" class="st0" d="M65.99,79.64h.03s.33-1.64.33-1.64l-.15-.03-.33,1.64s.07.02.12.03Z"/>
      <path id="Trazado_835" class="st0" d="M66.82,78.17l-.14-.05-.52,1.54v.03s.09.03.13.04l.52-1.53v-.04Z"/>
      <path id="Trazado_836" class="st0" d="M67.28,78.35l-.14-.06-.67,1.49v.02s.08.05.12.07l.66-1.48v-.04Z"/>
      <path id="Trazado_837" class="st0" d="M67.56,78.48l-.79,1.41-.02.03.13.07.81-1.45-.13-.07Z"/>
      <path id="Trazado_838" class="st0" d="M67,80.07h-.01s.08.08.12.11l1.01-1.3.02-.03-.12-.09-1.01,1.31Z"/>
      <path id="Trazado_839" class="st0" d="M67.26,80.29l.11.1,1.11-1.2.03-.03-.11-.1-1.13,1.23Z"/>
      <rect id="Rectángulo_81" class="st0" x="67.33" y="79.94" width="1.66" height=".15" transform="translate(-35.99 65.87) rotate(-41.84)"/>
      <path id="Trazado_840" class="st0" d="M67.74,80.77l-.03.02s.07.07.1.12l1.31-.97.03-.02-.09-.12-1.32.98Z"/>
      <path id="Trazado_841" class="st0" d="M67.9,81.01l-.03.02s.05.09.07.13l1.44-.81.03-.02-.07-.13-1.44.81Z"/>
      <path id="Trazado_842" class="st0" d="M68.05,81.31h-.02c.02.05.05.1.07.14l1.5-.66.03-.02-.06-.14-1.52.67Z"/>
      <path id="Trazado_843" class="st0" d="M68.15,81.63s.03.1.04.14l1.53-.52h.04s-.05-.15-.05-.15l-1.56.53Z"/>
      <path id="Trazado_844" class="st0" d="M68.24,81.9s.03.1.03.15l1.63-.37-.04-.15-1.63.37Z"/>
      <path id="Trazado_845" class="st0" d="M68.29,82.22c0,.05.01.1.02.15l1.6-.14h.04v-.15s-1.65.14-1.65.14Z"/>
      <path id="Trazado_846" class="st0" d="M68.33,82.62s0,.03,0,.05l1.65.02v-.15l-1.65-.02s.01.07.01.1Z"/>
      <path id="Trazado_847" class="st0" d="M68.27,83.17c-.01.05-.02.1-.03.15l1.59.36.03-.15-1.59-.36Z"/>
      <path id="Trazado_848" class="st0" d="M69.93,83.18l.02-.15-1.64-.18v.03s0,.08-.01.12l1.6.18h.03Z"/>
      <path id="Trazado_849" class="st0" d="M69.7,84.14l.05-.14-1.52-.51h-.04s0,0,0,0c-.01.04-.03.09-.04.13l1.51.5.03.02Z"/>
      <path id="Trazado_850" class="st0" d="M68.09,83.8s-.05.09-.07.14l1.45.65.03.02.06-.14-1.48-.67h0Z"/>
      <path id="Trazado_851" class="st0" d="M67.88,84.19l1.38.8.03.02.07-.13-1.41-.82s-.05.09-.07.13Z"/>
      <path id="Trazado_852" class="st0" d="M67.71,84.46l2.06,1.5.09-.12-2.05-1.5s-.07.08-.1.12Z"/>
      <path id="Trazado_853" class="st0" d="M67.58,84.6s-.06.08-.1.12l3.8,3.46.03.02.1-.11-3.81-3.47v-.02Z"/>
      <path id="Trazado_854" class="st0" d="M67.26,84.93l2.59,2.98.11-.1-2.58-2.98h0s-.06.05-.08.07l-.03.03Z"/>
      <path id="Trazado_855" class="st0" d="M67.03,85.13l2.92,3.86.12-.09-2.93-3.87s-.08.07-.12.1Z"/>
      <path id="Trazado_856" class="st0" d="M66.72,85.3l2.03,3.47.02.03.13-.08-2.05-3.5s-.09.05-.13.07Z"/>
      <path id="Trazado_857" class="st0" d="M66.46,85.45l1.87,4.08.02.03.14-.06-1.89-4.12s-.09.06-.13.08Z"/>
      <path id="Trazado_858" class="st0" d="M66.13,85.55l.8,2.43v.04s.16-.05.16-.05l-.82-2.46s-.1.03-.14.04Z"/>
      <path id="Trazado_859" class="st0" d="M65.82,85.63l.97,4.16.15-.04-.97-4.16c-.05.01-.1.03-.15.04Z"/>
      <path id="Trazado_860" class="st0" d="M51.19,113.28s-.47.54-.21,1.01c.28.33.77.36,1.09.09.03-.03.06-.06.09-.09,0,0-1.14.02-.97-1.01Z"/>
      <path id="Trazado_861" class="st0" d="M78.47,114.29c.28.33.77.36,1.09.09.03-.03.06-.06.09-.09.26-.46-.21-1.01-.21-1.01.17,1.03-.97,1.01-.97,1.01Z"/>
      <path id="Trazado_862" class="st0" d="M55.47,112.7l-.25-.15-.61,1.03.25.15c.3.14.66.01.8-.29.12-.26.04-.57-.19-.74Z"/>
      <path id="Trazado_863" class="st0" d="M57.47,113.74c-.29-.14-.64,0-.78.29,0,0,0,0,0,.01-.15.28-.05.64.24.79.28.15.64.05.79-.24,0-.02.02-.04.03-.06.15-.29.04-.64-.25-.79,0,0-.01,0-.02,0Z"/>
      <path id="Trazado_864" class="st0" d="M64.39,115.53c-.32-.01-.6.24-.61.56,0,0,0,0,0,.01-.04.32.19.61.51.65.32.04.61-.19.65-.51,0-.03,0-.05,0-.08.03-.32-.21-.6-.53-.63,0,0-.01,0-.02,0Z"/>
      <path id="Trazado_865" class="st0" d="M70.01,115.62l-.34.09.14.52.34-.09c.14-.02.23-.16.2-.29,0-.01,0-.02,0-.04-.03-.14-.16-.23-.3-.2-.01,0-.02,0-.03,0Z"/>
      <path id="Trazado_866" class="st0" d="M70.11,115.15c-.02-.12-.14-.2-.26-.17-.01,0-.02,0-.03,0l-.32.08.12.46.32-.08c.12-.03.2-.15.17-.27,0,0,0-.02,0-.02Z"/>
      <path id="Trazado_867" class="st0" d="M72.29,114.2c-.07,0-.15.01-.21.05l-.24.09.21.53.3-.12c.14-.04.21-.19.17-.33,0-.01-.01-.03-.02-.04-.03-.1-.11-.17-.21-.18Z"/>
      <path id="Trazado_868" class="st0" d="M74.34,113.45l.08.53.42-.23-.39-.36c-.06-.06-.16-.17-.16-.17h0s.03.15.05.23Z"/>
      <path id="Trazado_869" class="st0" d="M78.84,113.57l-.5-.19c.35-.14.73-.18,1.09-.1l-.61-.55c-1.25-1.12-3.06-1.35-4.55-.58-5.49,3.41-12.44,3.41-17.93,0-1.49-.77-3.3-.54-4.54.58l-.61.55c.37-.08.75-.04,1.09.1l-.5.19c.64.25.38.72.38.72l.78-.69c1.17.49,2.31,1.06,3.41,1.71,2.73,1.54,5.83,2.32,8.97,2.27h0c3.14.06,6.23-.73,8.97-2.27,1.1-.65,2.24-1.22,3.41-1.71l.78.69s-.26-.47.38-.72ZM54.78,113.9l-.45-.27.81-1.36.45.27c.38.22.5.71.28,1.08-.22.38-.71.5-1.08.28ZM55.9,114.53l-.2-.1.75-1.39.19.11-.74,1.39ZM56.85,115.04c-.41-.19-.58-.67-.39-1.08,0,0,0-.01,0-.02.2-.4.69-.56,1.09-.36.39.19.56.66.38,1.06-.18.41-.66.6-1.07.42,0,0-.01,0-.02-.01h0ZM59.05,114.57c-.06-.11-.16-.2-.27-.25-.13-.07-.28-.02-.35.11,0,0,0,0,0,0-.12.3.63.5.44.98-.09.23-.36.35-.59.25-.01,0-.02-.01-.04-.02-.18-.07-.33-.21-.41-.38l.18-.11c.07.13.18.24.31.3.12.06.27.02.33-.1,0,0,0-.01,0-.02.12-.32-.62-.53-.44-.98.11-.24.39-.34.62-.23,0,0,0,0,.01,0,.15.05.28.16.36.31l-.16.14ZM60.37,116.33c-.31-.06-.52-.35-.46-.67,0-.02,0-.04.01-.06l.26-.99.22.06-.27.99c-.06.21.07.43.29.49s.43-.07.49-.29l.26-.98.21.06-.26.99c-.07.31-.38.5-.69.43-.02,0-.04-.01-.06-.02h0ZM62.62,116.78l-.21-.04-.51-1.14c-.04-.1-.09-.25-.09-.25h0s-.01.14-.03.23l-.18,1.01-.22-.04.28-1.56.22.04.51,1.14c.04.09.09.25.09.25h0s.01-.14.03-.23l.18-1.01.22.04-.28,1.56ZM63.22,116.85l-.22-.03.18-1.57.22.03-.18,1.57ZM64.32,116.96c-.45-.02-.79-.4-.77-.85,0,0,0-.01,0-.02.04-.45.43-.78.88-.74.43.04.75.4.74.82-.01.45-.39.8-.83.78,0,0-.01,0-.02,0h0ZM66.48,116.93l-.75-.99c-.06-.08-.14-.22-.14-.22h0s.02.14.02.23l.04,1.02h-.22s-.06-1.57-.06-1.57h.22s.74.99.74.99c.06.08.14.22.14.22h0s-.02-.14-.03-.23l-.04-1.03h.22s.06,1.57.06,1.57h-.22ZM67.95,116.78l-.25-1.56.22-.04.22,1.37.7-.11.03.19-.92.15ZM69.05,116.59l-.32-1.55.22-.05.32,1.55-.22.05ZM70.19,116.32l-.55.14-.4-1.53.54-.14c.21-.08.45.02.53.22,0,.02.01.03.02.05.04.14,0,.28-.1.38h0c.17.01.31.13.35.3.07.24-.07.49-.31.56-.02,0-.05.01-.07.01h0ZM70.99,116.1l-.5-1.5.87-.29.06.18-.66.22.16.47.54-.18.06.18-.54.18.16.48.7-.23.06.18-.91.3ZM72.98,115.37l-.54-.46-.31.13.24.58-.21.08-.59-1.46.45-.18c.09-.04.19-.07.29-.08.26.02.45.24.44.5,0,.11-.06.22-.14.3h0s.05.03.07.05l.54.44-.23.1ZM73.76,115.02l-.59-1.26-.49.23-.08-.17,1.18-.56.08.17-.49.23.59,1.26-.2.09ZM75.34,114.2l-.36-.32-.52.29.08.47-.2.11-.26-1.66.2-.11,1.26,1.12-.2.11ZM76.15,113.72l-.45.28-.84-1.34.45-.28c.37-.23.86-.12,1.09.25.23.37.12.86-.25,1.09h0Z"/>
      <path id="Trazado_870" class="st0" d="M75.4,112.55l-.24.15.63,1.02.24-.15c.27-.19.33-.57.13-.84-.18-.24-.5-.32-.77-.18Z"/>
    </g>
  </g>
  <rect class="st0" x="156.72" width="1.67" height="185.86"/>
  <g>
    <path class="st0" d="M185.82,52.82v6.4h3.9c.33,0,.57-.16.71-.49s.25-.72.34-1.19c.05-.22.2-.33.45-.33.05,0,.12,0,.2.03.08.02.15.03.2.05-.03.37-.06.78-.09,1.25-.02.47-.04.88-.04,1.23,0,.28,0,.63.02,1.04.02.41.05.87.1,1.39-.13.03-.26.05-.38.05-.27,0-.42-.11-.48-.32-.08-.47-.2-.86-.34-1.19-.14-.32-.38-.49-.71-.49h-3.9v5.9c0,.35.23.58.68.7.45.12,1.19.17,2.23.17h1.38c.48,0,.9-.07,1.26-.21.36-.14.67-.33.95-.58.28-.24.52-.53.74-.86.22-.33.42-.7.62-1.1.05-.12.17-.17.38-.17.08,0,.17.03.26.08.09.05.18.1.26.15-.15.32-.28.7-.39,1.14-.11.44-.21.86-.31,1.26-.1.4-.2.74-.31,1.03-.11.28-.25.42-.41.42-.13,0-.33,0-.58-.03s-.52-.03-.81-.04c-.29,0-.59-.02-.89-.04-.3-.02-.56-.03-.77-.03h-5.48c-.48,0-1,.01-1.55.04-.55.03-1.08.05-1.58.09-.03-.17-.05-.3-.05-.4,0-.23.08-.37.25-.4.63-.12,1.09-.24,1.36-.38s.41-.37.41-.7v-12.73c0-.33-.12-.56-.36-.69s-.71-.25-1.41-.39c-.17-.03-.25-.18-.25-.43,0-.08,0-.15.01-.21,0-.06.02-.12.04-.19.72.05,1.32.08,1.8.1s.92.03,1.3.03h4.93c.75,0,1.4-.03,1.95-.08.55-.05.92-.08,1.1-.08.22,0,.36.14.44.41.08.27.14.6.19.99.05.38.11.79.18,1.22.07.43.19.8.38,1.1-.13.1-.28.15-.45.15-.22,0-.36-.07-.43-.22-.2-.43-.39-.8-.57-1.11-.18-.31-.4-.56-.64-.76s-.53-.35-.88-.45c-.34-.1-.76-.15-1.26-.15h-3.7Z"/>
    <path class="st0" d="M211.94,52.28c.03-.07.07-.13.11-.2.04-.07.11-.12.21-.15s.23-.06.4-.09c.17-.02.4-.04.7-.04.13,0,.31,0,.53-.01.22,0,.45-.02.7-.03.25,0,.5-.02.76-.04.26-.02.5-.03.71-.05.03.17.05.3.05.4,0,.27-.08.41-.25.43-.6.08-1,.2-1.2.34-.2.14-.3.33-.3.56,0,.02.01.24.04.66s.06,1.13.11,2.12c.05.99.11,2.31.19,3.96.07,1.65.16,3.7.26,6.15.02.32.12.55.33.7.2.15.61.27,1.23.38.08.02.15.06.19.14.04.07.06.16.06.26s-.02.23-.05.4c-.58-.03-1.11-.06-1.59-.09-.48-.02-.91-.04-1.31-.04-.17,0-.38,0-.62.01-.25,0-.51.02-.79.02-.27,0-.55.02-.81.04-.27.02-.5.03-.7.05-.03-.17-.05-.3-.05-.4,0-.27.08-.4.25-.4.67-.13,1.12-.27,1.36-.4.24-.13.36-.36.36-.67,0-.05-.01-.36-.04-.92s-.06-1.26-.1-2.08-.08-1.7-.12-2.65-.08-1.85-.12-2.69-.08-1.57-.11-2.18c-.03-.61-.05-.98-.05-1.11l-5.48,13.23c-.07.15-.13.26-.19.34-.06.08-.14.11-.24.11-.12,0-.19,0-.23-.02l-6.13-14.05c-.02.17-.04.57-.06,1.21-.02.64-.06,1.4-.1,2.29-.04.88-.09,1.82-.14,2.8s-.1,1.89-.14,2.73c-.04.83-.07,1.53-.1,2.1-.03.57-.04.87-.04.9,0,.52.57.88,1.7,1.08.17.02.25.15.25.4,0,.1-.02.23-.05.4-.45-.03-.89-.06-1.33-.09-.43-.02-.82-.04-1.15-.04-.27,0-.62.01-1.08.04-.45.03-.88.05-1.27.09-.03-.17-.05-.3-.05-.4,0-.23.08-.37.25-.4.45-.08.81-.2,1.09-.36s.43-.4.46-.71c0-.15.02-.57.05-1.26.03-.69.07-1.51.11-2.46.04-.95.09-1.96.14-3.03.05-1.07.1-2.05.14-2.96.04-.91.08-1.66.1-2.25.02-.59.04-.9.04-.91,0-.27-.1-.46-.31-.59-.21-.12-.6-.24-1.19-.34-.17-.02-.25-.16-.25-.43,0-.1.02-.23.05-.4.22.02.46.03.74.05.27.02.55.03.82.04.28,0,.54.02.79.03.25,0,.45.01.6.01.3,0,.53.01.7.04.17.03.3.05.4.09s.17.08.21.15c.04.07.08.13.11.2l5.35,12.48,5.08-12.48Z"/>
    <path class="st0" d="M227.47,59.38c.53.07,1.07.19,1.6.36.53.18,1.02.42,1.45.74.43.32.78.71,1.05,1.19.27.47.4,1.04.4,1.69,0,.73-.14,1.39-.41,1.97-.28.58-.67,1.08-1.18,1.48-.51.4-1.12.71-1.84.92-.72.22-1.51.33-2.38.33h-3.95c-.28,0-.6,0-.96.03-.36.02-.7.03-1.01.05-.37.02-.74.03-1.12.05-.02-.03-.02-.08-.02-.15-.02-.03-.03-.07-.03-.12v-.12c0-.23.09-.37.28-.4.65-.13,1.1-.26,1.35-.39s.38-.35.38-.69v-12.73c0-.17-.03-.3-.09-.41s-.15-.2-.29-.28c-.13-.07-.31-.14-.53-.2s-.49-.12-.82-.19c-.18-.03-.28-.19-.28-.48,0-.08,0-.15.03-.2,0-.05,0-.1.02-.15.5.03,1.04.06,1.61.09.58.03,1.06.04,1.46.04h3.08c.93,0,1.73.1,2.39.31.66.21,1.2.5,1.61.86.42.37.72.79.91,1.26s.29.97.29,1.49c0,.38-.07.76-.23,1.12-.15.37-.35.71-.61,1.03-.26.32-.57.6-.94.85-.37.25-.78.44-1.23.57v.08ZM223.8,59.05c1.47,0,2.52-.26,3.16-.77s.96-1.33.96-2.45c0-1.02-.32-1.77-.96-2.26-.64-.49-1.7-.74-3.16-.74h-.38v6.23h.38ZM223.42,66.13c0,.18.06.33.17.45.12.12.26.21.44.28.18.07.36.11.56.14.2.03.39.04.58.04.63,0,1.21-.05,1.73-.15.52-.1.96-.28,1.33-.53.37-.25.65-.59.85-1.01.2-.42.3-.96.3-1.61,0-1.2-.41-2.11-1.24-2.73-.83-.62-1.95-.92-3.39-.92h-1.33v6.05Z"/>
    <path class="st0" d="M242.35,62.1h-5.58l-1.6,4.03c-.08.2-.12.37-.12.5,0,.35.51.6,1.52.75.12.02.2.06.24.14.04.07.06.16.06.26s-.02.23-.05.4c-.45-.03-.92-.06-1.42-.09-.5-.02-.99-.04-1.48-.04-.33,0-.68,0-1.03.03-.35.02-.72.05-1.1.1-.03-.13-.05-.27-.05-.4,0-.12.02-.22.06-.3s.13-.13.26-.15c.52-.08.9-.19,1.16-.31.26-.12.45-.32.56-.59l6.03-14.5c.12-.28.27-.42.48-.42.07,0,.17.02.3.05l6.05,14.95c.1.23.33.42.68.55.35.13.69.22,1.02.28.1.03.18.08.24.14.06.06.09.16.09.31,0,.1-.02.23-.05.4-.53-.03-1.06-.06-1.58-.09-.52-.02-1-.04-1.45-.04s-1,.01-1.6.04c-.6.03-1.14.05-1.62.09-.03-.17-.05-.3-.05-.4,0-.15.03-.25.09-.31.06-.06.11-.09.16-.09.43-.08.78-.18,1.05-.29.27-.11.4-.27.4-.49,0-.1-.03-.22-.1-.38l-1.58-4.12ZM241.95,61.08l-2.33-6.12-2.43,6.12h4.75Z"/>
    <path class="st0" d="M251.47,53.58c0-.33-.12-.57-.36-.71s-.7-.26-1.36-.36c-.17-.03-.25-.18-.25-.43,0-.1.02-.23.05-.4.53.03,1.09.06,1.66.09.58.03,1.05.04,1.44.04s.88-.01,1.44-.04c.56-.02,1.08-.05,1.56-.09.03.17.05.3.05.4,0,.27-.09.41-.27.43-.62.1-1.04.22-1.26.36s-.34.38-.34.71v10.83c0,1.17-.05,2.17-.15,3-.1.83-.32,1.59-.65,2.26-.33.68-.81,1.32-1.43,1.93-.62.61-1.43,1.26-2.45,1.96-.22-.17-.33-.34-.33-.52,0-.12.04-.22.12-.3.92-.88,1.57-1.78,1.95-2.7.38-.92.58-1.96.58-3.13v-13.33Z"/>
    <path class="st0" d="M266.6,62.1h-5.58l-1.6,4.03c-.08.2-.12.37-.12.5,0,.35.51.6,1.52.75.12.02.2.06.24.14.04.07.06.16.06.26s-.02.23-.05.4c-.45-.03-.92-.06-1.42-.09-.5-.02-.99-.04-1.48-.04-.33,0-.68,0-1.03.03-.35.02-.72.05-1.1.1-.03-.13-.05-.27-.05-.4,0-.12.02-.22.06-.3s.13-.13.26-.15c.52-.08.9-.19,1.16-.31.26-.12.45-.32.56-.59l6.03-14.5c.12-.28.27-.42.48-.42.07,0,.17.02.3.05l6.05,14.95c.1.23.33.42.68.55.35.13.69.22,1.02.28.1.03.18.08.24.14.06.06.09.16.09.31,0,.1-.02.23-.05.4-.53-.03-1.06-.06-1.58-.09-.52-.02-1-.04-1.45-.04s-1,.01-1.6.04c-.6.03-1.14.05-1.62.09-.03-.17-.05-.3-.05-.4,0-.15.03-.25.09-.31.06-.06.11-.09.16-.09.43-.08.78-.18,1.05-.29.27-.11.4-.27.4-.49,0-.1-.03-.22-.1-.38l-1.58-4.12ZM266.2,61.08l-2.33-6.12-2.43,6.12h4.75Z"/>
    <path class="st0" d="M290.85,59.93c0,.98-.17,1.96-.51,2.93s-.86,1.84-1.55,2.61c-.69.78-1.57,1.4-2.63,1.88-1.06.48-2.3.71-3.71.71h-5.13c-.43,0-.93.01-1.48.04-.55.03-1.08.05-1.6.09-.03-.17-.05-.3-.05-.4,0-.23.09-.37.28-.4.62-.15,1.06-.29,1.32-.42.27-.13.4-.35.4-.65v-12.73c0-.33-.12-.57-.38-.7-.25-.13-.7-.26-1.35-.38-.1-.02-.17-.07-.21-.15-.04-.08-.06-.17-.06-.28s.02-.23.05-.4c.35.03.65.05.91.06.26,0,.5.02.74.04s.46.03.69.03h5.84c1.4,0,2.63.22,3.69.65,1.06.43,1.94,1.02,2.64,1.75s1.23,1.59,1.58,2.58.52,2.03.52,3.15ZM288.22,60.4c0-2.57-.64-4.47-1.91-5.71-1.28-1.24-3.14-1.86-5.59-1.86h-2.18v13.3c0,.17.04.31.12.42.08.12.23.21.42.28.2.07.48.12.83.15.35.03.79.05,1.33.05,1.28,0,2.37-.15,3.25-.46s1.6-.75,2.15-1.33c.55-.58.95-1.27,1.2-2.09s.38-1.73.38-2.75Z"/>
    <path class="st0" d="M300.83,62.1h-5.58l-1.6,4.03c-.08.2-.12.37-.12.5,0,.35.51.6,1.52.75.12.02.2.06.24.14.04.07.06.16.06.26s-.02.23-.05.4c-.45-.03-.92-.06-1.42-.09-.5-.02-.99-.04-1.48-.04-.33,0-.68,0-1.03.03-.35.02-.72.05-1.1.1-.03-.13-.05-.27-.05-.4,0-.12.02-.22.06-.3s.13-.13.26-.15c.52-.08.9-.19,1.16-.31.26-.12.45-.32.56-.59l6.03-14.5c.12-.28.27-.42.48-.42.07,0,.17.02.3.05l6.05,14.95c.1.23.33.42.68.55.35.13.69.22,1.02.28.1.03.18.08.24.14.06.06.09.16.09.31,0,.1-.02.23-.05.4-.53-.03-1.06-.06-1.58-.09-.52-.02-1-.04-1.45-.04s-1,.01-1.6.04c-.6.03-1.14.05-1.62.09-.03-.17-.05-.3-.05-.4,0-.15.03-.25.09-.31.06-.06.11-.09.16-.09.43-.08.78-.18,1.05-.29.27-.11.4-.27.4-.49,0-.1-.03-.22-.1-.38l-1.58-4.12ZM300.43,61.08l-2.33-6.12-2.43,6.12h4.75Z"/>
    <path class="st0" d="M198.09,89.93c0,.98-.17,1.96-.51,2.93s-.86,1.84-1.55,2.61c-.69.78-1.57,1.4-2.63,1.88-1.06.48-2.3.71-3.71.71h-5.13c-.43,0-.93.01-1.48.04-.55.03-1.08.05-1.6.09-.03-.17-.05-.3-.05-.4,0-.23.09-.37.28-.4.62-.15,1.06-.29,1.32-.42.27-.13.4-.35.4-.65v-12.73c0-.33-.12-.57-.38-.7-.25-.13-.7-.26-1.35-.38-.1-.02-.17-.07-.21-.15-.04-.08-.06-.17-.06-.28s.02-.23.05-.4c.35.03.65.05.91.06.26,0,.5.02.74.04s.46.03.69.03h5.84c1.4,0,2.63.22,3.69.65,1.06.43,1.94,1.02,2.64,1.75s1.23,1.59,1.58,2.58.52,2.03.52,3.15ZM195.47,90.4c0-2.57-.64-4.47-1.91-5.71-1.28-1.24-3.14-1.86-5.59-1.86h-2.18v13.3c0,.17.04.31.12.42.08.12.23.21.42.28.2.07.48.12.83.15.35.03.79.05,1.33.05,1.28,0,2.37-.15,3.25-.46s1.6-.75,2.15-1.33c.55-.58.95-1.27,1.2-2.09s.38-1.73.38-2.75Z"/>
    <path class="st0" d="M204.74,82.83v6.4h3.9c.33,0,.57-.16.71-.49s.25-.72.34-1.19c.05-.22.2-.33.45-.33.05,0,.12,0,.2.03.08.02.15.03.2.05-.03.37-.06.78-.09,1.25-.02.47-.04.88-.04,1.23,0,.28,0,.63.02,1.04.02.41.05.87.1,1.39-.13.03-.26.05-.38.05-.27,0-.42-.11-.48-.32-.08-.47-.2-.86-.34-1.19-.14-.32-.38-.49-.71-.49h-3.9v5.9c0,.35.23.58.68.7.45.12,1.19.17,2.23.17h1.38c.48,0,.9-.07,1.26-.21.36-.14.67-.33.95-.58.28-.24.52-.53.74-.86.22-.33.42-.7.62-1.1.05-.12.17-.17.38-.17.08,0,.17.03.26.08.09.05.18.1.26.15-.15.32-.28.7-.39,1.14-.11.44-.21.86-.31,1.26-.1.4-.2.74-.31,1.03-.11.28-.25.42-.41.42-.13,0-.33,0-.58-.03s-.52-.03-.81-.04c-.29,0-.59-.02-.89-.04-.3-.02-.56-.03-.77-.03h-5.48c-.48,0-1,.01-1.55.04-.55.03-1.08.05-1.58.09-.03-.17-.05-.3-.05-.4,0-.23.08-.37.25-.4.63-.12,1.09-.24,1.36-.38s.41-.37.41-.7v-12.73c0-.33-.12-.56-.36-.69s-.71-.25-1.41-.39c-.17-.03-.25-.18-.25-.43,0-.08,0-.15.01-.21,0-.06.02-.12.04-.19.72.05,1.32.08,1.8.1s.92.03,1.3.03h4.93c.75,0,1.4-.03,1.95-.08.55-.05.92-.08,1.1-.08.22,0,.36.14.44.41.08.27.14.6.19.99.05.38.11.79.18,1.22.07.43.19.8.38,1.1-.13.1-.28.15-.45.15-.22,0-.36-.07-.43-.22-.2-.43-.39-.8-.57-1.11-.18-.31-.4-.56-.64-.76s-.53-.35-.88-.45c-.34-.1-.76-.15-1.26-.15h-3.7Z"/>
    <path class="st0" d="M225.12,82.83v6.4h3.9c.33,0,.57-.16.71-.49s.25-.72.34-1.19c.05-.22.2-.33.45-.33.05,0,.12,0,.2.03.08.02.15.03.2.05-.03.37-.06.78-.09,1.25-.02.47-.04.88-.04,1.23,0,.28,0,.63.02,1.04.02.41.05.87.1,1.39-.13.03-.26.05-.38.05-.27,0-.42-.11-.48-.32-.08-.47-.2-.86-.34-1.19-.14-.32-.38-.49-.71-.49h-3.9v5.9c0,.35.23.58.68.7.45.12,1.19.17,2.23.17h1.38c.48,0,.9-.07,1.26-.21.36-.14.67-.33.95-.58.28-.24.52-.53.74-.86.22-.33.42-.7.62-1.1.05-.12.17-.17.38-.17.08,0,.17.03.26.08.09.05.18.1.26.15-.15.32-.28.7-.39,1.14-.11.44-.21.86-.31,1.26-.1.4-.2.74-.31,1.03-.11.28-.25.42-.41.42-.13,0-.33,0-.58-.03s-.52-.03-.81-.04c-.29,0-.59-.02-.89-.04-.3-.02-.56-.03-.77-.03h-5.48c-.48,0-1,.01-1.55.04-.55.03-1.08.05-1.58.09-.03-.17-.05-.3-.05-.4,0-.23.08-.37.25-.4.63-.12,1.09-.24,1.36-.38s.41-.37.41-.7v-12.73c0-.33-.12-.56-.36-.69s-.71-.25-1.41-.39c-.17-.03-.25-.18-.25-.43,0-.08,0-.15.01-.21,0-.06.02-.12.04-.19.72.05,1.32.08,1.8.1s.92.03,1.3.03h4.93c.75,0,1.4-.03,1.95-.08.55-.05.92-.08,1.1-.08.22,0,.36.14.44.41.08.27.14.6.19.99.05.38.11.79.18,1.22.07.43.19.8.38,1.1-.13.1-.28.15-.45.15-.22,0-.36-.07-.43-.22-.2-.43-.39-.8-.57-1.11-.18-.31-.4-.56-.64-.76s-.53-.35-.88-.45c-.34-.1-.76-.15-1.26-.15h-3.7Z"/>
    <path class="st0" d="M240.25,96.25c0,.28.12.48.38.6.25.12.59.17,1.02.17h2.73c.48,0,.9-.06,1.25-.19s.65-.3.9-.54.47-.52.66-.86c.19-.34.36-.73.51-1.16.05-.13.15-.2.3-.2.08,0,.17.02.26.06.09.04.19.09.29.14-.12.5-.23,1.03-.34,1.59s-.2,1.19-.29,1.89c-.02.18-.07.3-.15.35s-.18.08-.3.08c-.28,0-.64-.02-1.06-.06-.43-.04-.8-.06-1.11-.06h-6.25c-.38,0-.87.01-1.45.04-.58.03-1.14.05-1.67.09-.03-.17-.05-.3-.05-.4,0-.23.08-.37.25-.4.68-.12,1.15-.25,1.4-.39s.38-.36.38-.66v-12.75c0-.33-.12-.57-.35-.71s-.68-.26-1.35-.36c-.08-.02-.15-.06-.19-.14-.04-.08-.06-.16-.06-.26,0-.12.02-.26.05-.42.57.03,1.13.06,1.68.09.55.03,1.02.04,1.4.04.57,0,1.17-.01,1.8-.04.63-.02,1.2-.05,1.7-.09.03.17.05.3.05.4,0,.28-.09.43-.27.45-.72.08-1.25.2-1.59.36-.34.16-.51.45-.51.86v12.5Z"/>
    <path class="st0" d="M265.75,85.73c-.17.03-.29.05-.38.05-.22,0-.38-.04-.48-.12-.1-.08-.17-.17-.22-.27-.43-.95-.95-1.64-1.55-2.08s-1.42-.65-2.45-.65c-.4,0-.78.05-1.14.16s-.67.27-.94.47c-.27.21-.48.46-.64.76s-.24.63-.24,1c0,.78.33,1.42.99,1.92.66.5,1.63,1.01,2.91,1.53,1.6.63,2.78,1.34,3.54,2.11.76.78,1.14,1.73,1.14,2.86,0,.68-.1,1.32-.31,1.91-.21.59-.53,1.11-.98,1.55-.44.44-1.01.79-1.71,1.04-.7.25-1.54.38-2.52.38-1.03,0-1.97-.11-2.81-.33-.84-.22-1.55-.5-2.14-.85-.05-.7-.12-1.38-.22-2.03-.1-.65-.22-1.3-.35-1.95.12-.05.26-.08.42-.08.2,0,.35.05.46.14.11.09.2.24.29.44.42,1.2.95,2.08,1.61,2.65.66.57,1.58.85,2.76.85.53,0,1-.08,1.4-.23.4-.15.73-.36,1-.62.27-.27.47-.57.6-.9.13-.33.2-.69.2-1.07,0-.87-.3-1.55-.89-2.05s-1.44-.95-2.54-1.35c-.72-.27-1.37-.55-1.95-.84-.58-.29-1.08-.63-1.5-1.01-.42-.38-.74-.83-.96-1.34-.23-.51-.34-1.11-.34-1.81,0-.62.11-1.2.34-1.74.23-.54.55-1.01.98-1.41.42-.4.94-.72,1.54-.95s1.27-.35,2.02-.35,1.53.08,2.25.23c.72.15,1.52.4,2.42.75.03.5.08,1.04.14,1.61.06.58.14,1.11.24,1.61Z"/>
    <path class="st0" d="M277.57,92.1h-5.58l-1.6,4.03c-.08.2-.12.37-.12.5,0,.35.51.6,1.52.75.12.02.2.06.24.14.04.07.06.16.06.26s-.02.23-.05.4c-.45-.03-.92-.06-1.42-.09-.5-.02-.99-.04-1.48-.04-.33,0-.68,0-1.03.03-.35.02-.72.05-1.1.1-.03-.13-.05-.27-.05-.4,0-.12.02-.22.06-.3s.13-.13.26-.15c.52-.08.9-.19,1.16-.31.26-.12.45-.32.56-.59l6.03-14.5c.12-.28.27-.42.48-.42.07,0,.17.02.3.05l6.05,14.95c.1.23.33.42.68.55.35.13.69.22,1.02.28.1.03.18.08.24.14.06.06.09.16.09.31,0,.1-.02.23-.05.4-.53-.03-1.06-.06-1.58-.09-.52-.02-1-.04-1.45-.04s-1,.01-1.6.04c-.6.03-1.14.05-1.62.09-.03-.17-.05-.3-.05-.4,0-.15.03-.25.09-.31.06-.06.11-.09.16-.09.43-.08.78-.18,1.05-.29.27-.11.4-.27.4-.49,0-.1-.03-.22-.1-.38l-1.58-4.12ZM277.17,91.08l-2.33-6.12-2.43,6.12h4.75Z"/>
    <path class="st0" d="M289.55,96.25c0,.28.12.48.38.6.25.12.59.17,1.02.17h2.73c.48,0,.9-.06,1.25-.19s.65-.3.9-.54.47-.52.66-.86c.19-.34.36-.73.51-1.16.05-.13.15-.2.3-.2.08,0,.17.02.26.06.09.04.19.09.29.14-.12.5-.23,1.03-.34,1.59s-.2,1.19-.29,1.89c-.02.18-.07.3-.15.35s-.18.08-.3.08c-.28,0-.64-.02-1.06-.06-.43-.04-.8-.06-1.11-.06h-6.25c-.38,0-.87.01-1.45.04-.58.03-1.14.05-1.67.09-.03-.17-.05-.3-.05-.4,0-.23.08-.37.25-.4.68-.12,1.15-.25,1.4-.39s.38-.36.38-.66v-12.75c0-.33-.12-.57-.35-.71s-.68-.26-1.35-.36c-.08-.02-.15-.06-.19-.14-.04-.08-.06-.16-.06-.26,0-.12.02-.26.05-.42.57.03,1.13.06,1.68.09.55.03,1.02.04,1.4.04.57,0,1.17-.01,1.8-.04.63-.02,1.2-.05,1.7-.09.03.17.05.3.05.4,0,.28-.09.43-.27.45-.72.08-1.25.2-1.59.36-.34.16-.51.45-.51.86v12.5Z"/>
    <path class="st0" d="M309.7,83.8c.07-.18.1-.35.1-.5,0-.23-.12-.41-.35-.53-.23-.12-.61-.21-1.12-.27-.2-.02-.3-.16-.3-.43,0-.08,0-.16.02-.22,0-.05,0-.11.03-.17.03,0,.14,0,.32.02.18.02.4.03.66.05.26.02.54.03.84.04.3,0,.58.01.85.01.55,0,1.05-.02,1.51-.05s.73-.06.81-.08c0,.05,0,.11.02.17,0,.05,0,.1.01.14,0,.04.01.08.01.11,0,.27-.09.42-.28.45-.53.03-.92.12-1.17.25s-.44.36-.58.67l-6.18,14.85s-.07,0-.11.01c-.04,0-.08.01-.11.01-.18,0-.33-.14-.45-.42l-5.88-14.58c-.1-.23-.27-.41-.5-.53-.23-.12-.65-.22-1.25-.3-.18-.02-.27-.17-.27-.45,0-.13.02-.27.05-.4.5.03,1.04.06,1.63.09.58.03,1.09.04,1.52.04s.93-.01,1.53-.04c.6-.02,1.16-.05,1.67-.09.03.17.05.3.05.4,0,.25-.1.39-.3.43-.98.1-1.48.37-1.48.8,0,.12.02.22.05.33l4.25,10.88,4.38-10.7Z"/>
    <path class="st0" d="M320.85,92.1h-5.58l-1.6,4.03c-.08.2-.12.37-.12.5,0,.35.51.6,1.52.75.12.02.2.06.24.14.04.07.06.16.06.26s-.02.23-.05.4c-.45-.03-.92-.06-1.42-.09-.5-.02-.99-.04-1.48-.04-.33,0-.68,0-1.03.03-.35.02-.72.05-1.1.1-.03-.13-.05-.27-.05-.4,0-.12.02-.22.06-.3s.13-.13.26-.15c.52-.08.9-.19,1.16-.31.26-.12.45-.32.56-.59l6.03-14.5c.12-.28.27-.42.48-.42.07,0,.17.02.3.05l6.05,14.95c.1.23.33.42.68.55.35.13.69.22,1.02.28.1.03.18.08.24.14.06.06.09.16.09.31,0,.1-.02.23-.05.4-.53-.03-1.06-.06-1.58-.09-.52-.02-1-.04-1.45-.04s-1,.01-1.6.04c-.6.03-1.14.05-1.62.09-.03-.17-.05-.3-.05-.4,0-.15.03-.25.09-.31.06-.06.11-.09.16-.09.43-.08.78-.18,1.05-.29.27-.11.4-.27.4-.49,0-.1-.03-.22-.1-.38l-1.58-4.12ZM320.45,91.08l-2.33-6.12-2.43,6.12h4.75Z"/>
    <path class="st0" d="M345.1,89.93c0,.98-.17,1.96-.51,2.93s-.86,1.84-1.55,2.61c-.69.78-1.57,1.4-2.63,1.88-1.06.48-2.3.71-3.71.71h-5.13c-.43,0-.93.01-1.48.04-.55.03-1.08.05-1.6.09-.03-.17-.05-.3-.05-.4,0-.23.09-.37.28-.4.62-.15,1.06-.29,1.32-.42.27-.13.4-.35.4-.65v-12.73c0-.33-.12-.57-.38-.7-.25-.13-.7-.26-1.35-.38-.1-.02-.17-.07-.21-.15-.04-.08-.06-.17-.06-.28s.02-.23.05-.4c.35.03.65.05.91.06.26,0,.5.02.74.04s.46.03.69.03h5.84c1.4,0,2.63.22,3.69.65,1.06.43,1.94,1.02,2.64,1.75s1.23,1.59,1.58,2.58.52,2.03.52,3.15ZM342.48,90.4c0-2.57-.64-4.47-1.91-5.71-1.28-1.24-3.14-1.86-5.59-1.86h-2.18v13.3c0,.17.04.31.12.42.08.12.23.21.42.28.2.07.48.12.83.15.35.03.79.05,1.33.05,1.28,0,2.37-.15,3.25-.46s1.6-.75,2.15-1.33c.55-.58.95-1.27,1.2-2.09s.38-1.73.38-2.75Z"/>
    <path class="st0" d="M347.35,89.93c0-1.15.21-2.23.62-3.25s.98-1.91,1.7-2.67c.72-.77,1.55-1.38,2.5-1.83.95-.45,1.95-.67,3-.67,1.45,0,2.72.23,3.8.69,1.08.46,1.98,1.08,2.69,1.85.71.78,1.24,1.67,1.59,2.69.35,1.02.52,2.08.52,3.2,0,1.32-.22,2.5-.65,3.54-.43,1.04-1.03,1.92-1.79,2.65-.76.72-1.65,1.28-2.68,1.66-1.03.38-2.12.58-3.29.58s-2.27-.2-3.25-.6c-.98-.4-1.83-.97-2.54-1.71-.71-.74-1.26-1.63-1.65-2.66-.39-1.03-.59-2.18-.59-3.45ZM355.95,97.15c.78,0,1.5-.15,2.15-.45.65-.3,1.21-.72,1.67-1.25.47-.53.83-1.17,1.09-1.9.26-.73.39-1.53.39-2.4,0-1.2-.12-2.31-.38-3.34s-.63-1.92-1.14-2.67c-.51-.76-1.15-1.35-1.93-1.79s-1.68-.65-2.71-.65c-.68,0-1.34.13-1.96.39-.62.26-1.18.63-1.65,1.12-.47.49-.85,1.1-1.14,1.81-.28.72-.43,1.54-.43,2.47,0,1.23.13,2.38.4,3.44.27,1.06.65,1.98,1.16,2.75.51.77,1.14,1.38,1.89,1.81s1.61.65,2.58.65Z"/>
    <path class="st0" d="M372.33,90.75h-1.85v5.5c0,.37.17.62.51.75s.86.24,1.56.33c.2.03.3.17.3.42,0,.12-.02.26-.05.42-.45-.03-1-.06-1.64-.09-.64-.02-1.27-.04-1.89-.04-.43,0-.93.01-1.5.04-.57.03-1.1.05-1.6.09-.03-.17-.05-.3-.05-.4,0-.23.09-.37.28-.4.63-.1,1.08-.22,1.34-.36s.39-.38.39-.71v-12.73c0-.32-.12-.55-.36-.71-.24-.16-.71-.28-1.41-.36-.17-.02-.25-.16-.25-.43,0-.1.02-.23.05-.4.5.03,1.02.06,1.55.09.53.03,1.04.04,1.53.04h3.38c1.8,0,3.16.4,4.07,1.19.92.79,1.38,1.86,1.38,3.21,0,.37-.06.75-.19,1.15-.12.4-.32.79-.57,1.18s-.59.74-1,1.06-.89.59-1.44.79l4.18,5.8c.32.43.67.73,1.05.9.38.17.74.29,1.08.38.15.03.22.15.22.35,0,.13-.02.28-.05.45-.38-.03-.85-.06-1.4-.09-.55-.02-1.06-.04-1.53-.04-.35,0-.71-.15-1.06-.45-.36-.3-.7-.68-1.01-1.15l-4-5.78ZM371.8,89.73c1.17,0,2.07-.25,2.7-.74.63-.49.95-1.35.95-2.59,0-.52-.07-.99-.2-1.43-.13-.43-.35-.81-.64-1.12-.29-.32-.67-.57-1.15-.75-.47-.18-1.05-.28-1.74-.28h-1.25v6.9h1.32Z"/>
    <path class="st0" d="M185.82,112.83v6.4h3.9c.33,0,.57-.16.71-.49s.25-.72.34-1.19c.05-.22.2-.33.45-.33.05,0,.12,0,.2.03.08.02.15.03.2.05-.03.37-.06.78-.09,1.25-.02.47-.04.88-.04,1.23,0,.28,0,.63.02,1.04.02.41.05.87.1,1.39-.13.03-.26.05-.38.05-.27,0-.42-.11-.48-.32-.08-.47-.2-.86-.34-1.19-.14-.32-.38-.49-.71-.49h-3.9v5.9c0,.35.23.58.68.7.45.12,1.19.17,2.23.17h1.38c.48,0,.9-.07,1.26-.21.36-.14.67-.33.95-.58.28-.24.52-.53.74-.86.22-.33.42-.7.62-1.1.05-.12.17-.17.38-.17.08,0,.17.03.26.08.09.05.18.1.26.15-.15.32-.28.7-.39,1.14-.11.44-.21.86-.31,1.26-.1.4-.2.74-.31,1.03-.11.28-.25.42-.41.42-.13,0-.33,0-.58-.03s-.52-.03-.81-.04c-.29,0-.59-.02-.89-.04-.3-.02-.56-.03-.77-.03h-5.48c-.48,0-1,.01-1.55.04-.55.03-1.08.05-1.58.09-.03-.17-.05-.3-.05-.4,0-.23.08-.37.25-.4.63-.12,1.09-.24,1.36-.38s.41-.37.41-.7v-12.73c0-.33-.12-.56-.36-.69s-.71-.25-1.41-.39c-.17-.03-.25-.18-.25-.43,0-.08,0-.15.01-.21,0-.06.02-.12.04-.19.72.05,1.32.08,1.8.1s.92.03,1.3.03h4.93c.75,0,1.4-.03,1.95-.08.55-.05.92-.08,1.1-.08.22,0,.36.14.44.41.08.27.14.6.19.99.05.38.11.79.18,1.22.07.43.19.8.38,1.1-.13.1-.28.15-.45.15-.22,0-.36-.07-.43-.22-.2-.43-.39-.8-.57-1.11-.18-.31-.4-.56-.64-.76s-.53-.35-.88-.45c-.34-.1-.76-.15-1.26-.15h-3.7Z"/>
    <path class="st0" d="M209.49,124.08v-10.45c0-.37-.13-.62-.4-.78s-.72-.27-1.35-.35c-.18-.02-.27-.16-.27-.43,0-.1.02-.23.05-.4.42.03.84.06,1.27.09.43.03.84.04,1.23.04s.75-.01,1.15-.04c.4-.02.79-.05,1.18-.09.03.17.05.3.05.4,0,.27-.08.41-.25.43-.57.08-.95.2-1.16.35s-.31.39-.31.73v14.73s-.09.03-.17.04c-.08,0-.15.01-.2.01-.12,0-.23-.03-.32-.09-.1-.06-.22-.18-.35-.36l-10.15-13.38v11.78c0,.33.12.57.35.7.23.13.68.26,1.35.38.17.03.25.17.25.4,0,.1-.02.23-.05.4-.42-.03-.84-.06-1.26-.09-.43-.02-.82-.04-1.19-.04-.33,0-.73.01-1.18.04-.45.03-.86.05-1.23.09-.03-.17-.05-.3-.05-.4,0-.23.09-.37.27-.4.6-.12,1-.24,1.21-.38s.31-.37.31-.7v-12.85c0-.27-.1-.47-.29-.61s-.59-.25-1.19-.34c-.18-.03-.27-.18-.27-.43,0-.08,0-.16.02-.22,0-.05,0-.11.02-.17.33.03.65.06.95.08.27.02.55.03.85.04.3,0,.57.01.8.01.48,0,.8.02.96.05.16.03.29.12.39.25l8.98,11.98Z"/>
    <path class="st0" d="M228.17,128.36c-1.4,0-2.62-.22-3.68-.65-1.05-.43-1.92-1.03-2.61-1.79-.69-.76-1.21-1.65-1.55-2.67-.34-1.03-.51-2.13-.51-3.31,0-.98.17-1.97.51-2.97.34-1,.86-1.9,1.55-2.71.69-.81,1.56-1.47,2.61-1.98,1.05-.51,2.28-.76,3.68-.76.55,0,1.05.01,1.51.04.46.03.9.07,1.31.12s.83.13,1.23.22c.4.09.82.2,1.25.31.02.45.08,1,.18,1.65.1.65.23,1.31.4,1.98-.13.07-.27.1-.4.1s-.25-.02-.36-.05-.18-.12-.21-.28c-.3-1.1-.77-1.88-1.42-2.35-.65-.47-1.59-.7-2.83-.7-1.03,0-1.95.17-2.74.5-.79.33-1.46.8-2,1.4-.54.6-.95,1.32-1.23,2.16-.27.84-.41,1.78-.41,2.81,0,1.15.17,2.21.52,3.18s.82,1.8,1.41,2.5c.59.7,1.28,1.24,2.08,1.62.79.38,1.64.58,2.54.58.72,0,1.32-.07,1.81-.21.49-.14.9-.35,1.23-.61.33-.27.6-.6.83-.99s.44-.84.64-1.34c.12-.25.32-.38.6-.38.08,0,.17.01.26.04.09.03.16.05.21.09-.2.58-.4,1.23-.6,1.92-.2.7-.37,1.4-.5,2.1-.82.13-1.65.24-2.5.31s-1.78.11-2.8.11Z"/>
    <path class="st0" d="M236.17,119.93c0-1.15.21-2.23.62-3.25s.98-1.91,1.7-2.67c.72-.77,1.55-1.38,2.5-1.83.95-.45,1.95-.67,3-.67,1.45,0,2.72.23,3.8.69,1.08.46,1.98,1.08,2.69,1.85.71.78,1.24,1.67,1.59,2.69.35,1.02.52,2.08.52,3.2,0,1.32-.22,2.5-.65,3.54-.43,1.04-1.03,1.92-1.79,2.65-.76.72-1.65,1.28-2.68,1.66-1.03.38-2.12.58-3.29.58s-2.27-.2-3.25-.6c-.98-.4-1.83-.97-2.54-1.71-.71-.74-1.26-1.63-1.65-2.66-.39-1.03-.59-2.18-.59-3.45ZM244.77,127.15c.78,0,1.5-.15,2.15-.45.65-.3,1.21-.72,1.67-1.25.47-.53.83-1.17,1.09-1.9.26-.73.39-1.53.39-2.4,0-1.2-.12-2.31-.38-3.34s-.63-1.92-1.14-2.67c-.51-.76-1.15-1.35-1.93-1.79s-1.68-.65-2.71-.65c-.68,0-1.34.13-1.96.39-.62.26-1.18.63-1.65,1.12-.47.49-.85,1.1-1.14,1.81-.28.72-.43,1.54-.43,2.47,0,1.23.13,2.38.4,3.44.27,1.06.65,1.98,1.16,2.75.51.77,1.14,1.38,1.89,1.81s1.61.65,2.58.65Z"/>
    <path class="st0" d="M259.3,126.26c0,.28.12.48.38.6.25.12.59.17,1.02.17h2.73c.48,0,.9-.06,1.25-.19s.65-.3.9-.54.47-.52.66-.86c.19-.34.36-.73.51-1.16.05-.13.15-.2.3-.2.08,0,.17.02.26.06.09.04.19.09.29.14-.12.5-.23,1.03-.34,1.59s-.2,1.19-.29,1.89c-.02.18-.07.3-.15.35s-.18.08-.3.08c-.28,0-.64-.02-1.06-.06-.43-.04-.8-.06-1.11-.06h-6.25c-.38,0-.87.01-1.45.04-.58.03-1.14.05-1.67.09-.03-.17-.05-.3-.05-.4,0-.23.08-.37.25-.4.68-.12,1.15-.25,1.4-.39s.38-.36.38-.66v-12.75c0-.33-.12-.57-.35-.71s-.68-.26-1.35-.36c-.08-.02-.15-.06-.19-.14-.04-.08-.06-.16-.06-.26,0-.12.02-.26.05-.42.57.03,1.13.06,1.68.09.55.03,1.02.04,1.4.04.57,0,1.17-.01,1.8-.04.63-.02,1.2-.05,1.7-.09.03.17.05.3.05.4,0,.28-.09.43-.27.45-.72.08-1.25.2-1.59.36-.34.16-.51.45-.51.86v12.5Z"/>
    <path class="st0" d="M268.6,119.93c0-1.15.21-2.23.62-3.25s.98-1.91,1.7-2.67c.72-.77,1.55-1.38,2.5-1.83.95-.45,1.95-.67,3-.67,1.45,0,2.72.23,3.8.69,1.08.46,1.98,1.08,2.69,1.85.71.78,1.24,1.67,1.59,2.69.35,1.02.52,2.08.52,3.2,0,1.32-.22,2.5-.65,3.54-.43,1.04-1.03,1.92-1.79,2.65-.76.72-1.65,1.28-2.68,1.66-1.03.38-2.12.58-3.29.58s-2.27-.2-3.25-.6c-.98-.4-1.83-.97-2.54-1.71-.71-.74-1.26-1.63-1.65-2.66-.39-1.03-.59-2.18-.59-3.45ZM277.2,127.15c.78,0,1.5-.15,2.15-.45.65-.3,1.21-.72,1.67-1.25.47-.53.83-1.17,1.09-1.9.26-.73.39-1.53.39-2.4,0-1.2-.12-2.31-.38-3.34s-.63-1.92-1.14-2.67c-.51-.76-1.15-1.35-1.93-1.79s-1.68-.65-2.71-.65c-.68,0-1.34.13-1.96.39-.62.26-1.18.63-1.65,1.12-.47.49-.85,1.1-1.14,1.81-.28.72-.43,1.54-.43,2.47,0,1.23.13,2.38.4,3.44.27,1.06.65,1.98,1.16,2.75.51.77,1.14,1.38,1.89,1.81s1.61.65,2.58.65Z"/>
    <path class="st0" d="M302.73,112.28c.03-.07.07-.13.11-.2.04-.07.11-.12.21-.15s.23-.06.4-.09c.17-.02.4-.04.7-.04.13,0,.31,0,.53-.01.22,0,.45-.02.7-.03.25,0,.5-.02.76-.04.26-.02.5-.03.71-.05.03.17.05.3.05.4,0,.27-.08.41-.25.43-.6.08-1,.2-1.2.34-.2.14-.3.33-.3.56,0,.02.01.24.04.66s.06,1.13.11,2.12c.05.99.11,2.31.19,3.96.07,1.65.16,3.7.26,6.15.02.32.12.55.33.7.2.15.61.27,1.23.38.08.02.15.06.19.14.04.07.06.16.06.26s-.02.23-.05.4c-.58-.03-1.11-.06-1.59-.09-.48-.02-.91-.04-1.31-.04-.17,0-.38,0-.62.01-.25,0-.51.02-.79.02-.27,0-.55.02-.81.04-.27.02-.5.03-.7.05-.03-.17-.05-.3-.05-.4,0-.27.08-.4.25-.4.67-.13,1.12-.27,1.36-.4.24-.13.36-.36.36-.67,0-.05-.01-.36-.04-.92s-.06-1.26-.1-2.08-.08-1.7-.12-2.65-.08-1.85-.12-2.69-.08-1.57-.11-2.18c-.03-.61-.05-.98-.05-1.11l-5.48,13.23c-.07.15-.13.26-.19.34-.06.08-.14.11-.24.11-.12,0-.19,0-.23-.02l-6.13-14.05c-.02.17-.04.57-.06,1.21-.02.64-.06,1.4-.1,2.29-.04.88-.09,1.82-.14,2.8s-.1,1.89-.14,2.73c-.04.83-.07,1.53-.1,2.1-.03.57-.04.87-.04.9,0,.52.57.88,1.7,1.08.17.02.25.15.25.4,0,.1-.02.23-.05.4-.45-.03-.89-.06-1.33-.09-.43-.02-.82-.04-1.15-.04-.27,0-.62.01-1.08.04-.45.03-.88.05-1.27.09-.03-.17-.05-.3-.05-.4,0-.23.08-.37.25-.4.45-.08.81-.2,1.09-.36s.43-.4.46-.71c0-.15.02-.57.05-1.26.03-.69.07-1.51.11-2.46.04-.95.09-1.96.14-3.03.05-1.07.1-2.05.14-2.96.04-.91.08-1.66.1-2.25.02-.59.04-.9.04-.91,0-.27-.1-.46-.31-.59-.21-.12-.6-.24-1.19-.34-.17-.02-.25-.16-.25-.43,0-.1.02-.23.05-.4.22.02.46.03.74.05.27.02.55.03.82.04.28,0,.54.02.79.03.25,0,.45.01.6.01.3,0,.53.01.7.04.17.03.3.05.4.09s.17.08.21.15c.04.07.08.13.11.2l5.35,12.48,5.08-12.48Z"/>
    <path class="st0" d="M318.25,119.38c.53.07,1.07.19,1.6.36.53.18,1.02.42,1.45.74.43.32.78.71,1.05,1.19.27.47.4,1.04.4,1.69,0,.73-.14,1.39-.41,1.97-.28.58-.67,1.08-1.18,1.48-.51.4-1.12.71-1.84.92-.72.22-1.51.33-2.38.33h-3.95c-.28,0-.6,0-.96.03-.36.02-.7.03-1.01.05-.37.02-.74.03-1.12.05-.02-.03-.02-.08-.02-.15-.02-.03-.03-.07-.03-.12v-.12c0-.23.09-.37.28-.4.65-.13,1.1-.26,1.35-.39s.38-.35.38-.69v-12.73c0-.17-.03-.3-.09-.41s-.15-.2-.29-.28c-.13-.07-.31-.14-.53-.2s-.49-.12-.82-.19c-.18-.03-.28-.19-.28-.48,0-.08,0-.15.03-.2,0-.05,0-.1.02-.15.5.03,1.04.06,1.61.09.58.03,1.06.04,1.46.04h3.08c.93,0,1.73.1,2.39.31.66.21,1.2.5,1.61.86.42.37.72.79.91,1.26s.29.97.29,1.49c0,.38-.07.76-.23,1.12-.15.37-.35.71-.61,1.03-.26.32-.57.6-.94.85-.37.25-.78.44-1.23.57v.08ZM314.58,119.05c1.47,0,2.52-.26,3.16-.77s.96-1.33.96-2.45c0-1.02-.32-1.77-.96-2.26-.64-.49-1.7-.74-3.16-.74h-.38v6.23h.38ZM314.2,126.13c0,.18.06.33.17.45.12.12.26.21.44.28.18.07.36.11.56.14.2.03.39.04.58.04.63,0,1.21-.05,1.73-.15.52-.1.96-.28,1.33-.53.37-.25.65-.59.85-1.01.2-.42.3-.96.3-1.61,0-1.2-.41-2.11-1.24-2.73-.83-.62-1.95-.92-3.39-.92h-1.33v6.05Z"/>
    <path class="st0" d="M329.05,126.31c0,.33.12.56.35.69.23.12.67.25,1.3.39.17.03.25.17.25.4,0,.1-.02.23-.05.4-.52-.03-1.03-.06-1.55-.09-.52-.02-1.01-.04-1.48-.04s-.95.01-1.49.04c-.54.03-1.05.05-1.54.09-.03-.17-.05-.3-.05-.4,0-.23.08-.37.25-.4.63-.12,1.07-.24,1.3-.38s.35-.37.35-.7v-12.73c0-.33-.12-.57-.35-.71s-.67-.26-1.3-.36c-.1-.02-.17-.07-.2-.15-.03-.08-.05-.17-.05-.28s.02-.23.05-.4c.5.03,1.02.06,1.56.09.54.03,1.03.04,1.46.04s.9-.01,1.44-.04c.54-.02,1.07-.05,1.59-.09.03.17.05.3.05.4,0,.25-.08.39-.25.43-.63.1-1.07.22-1.3.36-.23.14-.35.38-.35.71v12.73Z"/>
    <path class="st0" d="M342.85,122.11h-5.58l-1.6,4.03c-.08.2-.12.37-.12.5,0,.35.51.6,1.52.75.12.02.2.06.24.14.04.07.06.16.06.26s-.02.23-.05.4c-.45-.03-.92-.06-1.42-.09-.5-.02-.99-.04-1.48-.04-.33,0-.68,0-1.03.03-.35.02-.72.05-1.1.1-.03-.13-.05-.27-.05-.4,0-.12.02-.22.06-.3s.13-.13.26-.15c.52-.08.9-.19,1.16-.31.26-.12.45-.32.56-.59l6.03-14.5c.12-.28.27-.42.48-.42.07,0,.17.02.3.05l6.05,14.95c.1.23.33.42.68.55.35.13.69.22,1.02.28.1.03.18.08.24.14.06.06.09.16.09.31,0,.1-.02.23-.05.4-.53-.03-1.06-.06-1.58-.09-.52-.02-1-.04-1.45-.04s-1,.01-1.6.04c-.6.03-1.14.05-1.62.09-.03-.17-.05-.3-.05-.4,0-.15.03-.25.09-.31.06-.06.11-.09.16-.09.43-.08.78-.18,1.05-.29.27-.11.4-.27.4-.49,0-.1-.03-.22-.1-.38l-1.58-4.12ZM342.45,121.08l-2.33-6.12-2.43,6.12h4.75Z"/>
  </g>
</svg>