<?xml version="1.0" encoding="UTF-8"?>
<svg id="Capa_2" xmlns="http://www.w3.org/2000/svg" version="1.1" viewBox="0 0 773.21 136.53">
  <!-- Generator: Adobe Illustrator 30.5.1, SVG Export Plug-In . SVG Version: 2.1.4 Build 3)  -->
  <defs>
    <style>
      .st0 {
        fill: #fff;
      }
    </style>
  </defs>
  <path class="st0" d="M135.46,65.8c-3.87-4.79-9.21-7.18-15.42-7.2-13.09-.05-26.17-.02-39.26-.01h-2.55l.1.13s0,0,0,0c9.98,12.9,19.72,25.5,29.6,38.27h52.05c-8.15-10.41-16.2-20.91-24.51-31.19Z"/>
  <path class="st0" d="M156.42,0c-21.31,0-42.62-.01-63.92,0-11.57,0-23.14-.04-34.71.11-18.24.24-31.87,8.13-40.38,24.57C11.78,35.54,5.97,46.29.15,57.03c-.05.1-.1.19-.15.29l30.83,39.66.64-1.19,3.9-7.28.28-.52h0c6.32-11.85,12.68-23.68,18.84-35.62,4.57-8.85,11.54-13.03,21.45-12.97,20.18.13,40.36.03,60.54.06.11,0,.21,0,.32,0L157.95,0h-1.53Z"/>
  <path class="st0" d="M106.44,96.98h0c-19.76,0-39.27,0-58.85,0h-16.75l-19.02,35.54-2.15,4.01h1.08s62.15,0,62.15,0c.49,0,.98,0,1.47,0,8.33-.04,14.59-3.95,18.57-11.26,1.54-2.83,3.07-5.68,4.59-8.52l8.78-16.66c.15-.28.29-.56.44-.84.04-.07.07-.14.11-.2l1.09-2.06h-1.49Z"/>
  <g>
    <path class="st0" d="M229.95,72.43h-16.93l.66-4.98h23.12v34.3c-2.21,1.48-5.27,2.69-9.18,3.65-3.91.96-7.6,1.44-11.06,1.44-7.45,0-14.05-1.68-19.81-5.03-5.75-3.36-10.22-7.98-13.39-13.89-3.17-5.9-4.76-12.5-4.76-19.81,0-7.75,1.7-14.62,5.09-20.64,3.39-6.01,8.04-10.68,13.94-14,5.9-3.32,12.43-4.98,19.58-4.98,2.73,0,6.01.37,9.85,1.11,3.83.74,6.67,1.73,8.52,2.99l-2.1,5.09c-2.73-1.11-5.2-1.92-7.41-2.43-2.21-.52-5.09-.77-8.63-.77-5.39.07-10.49,1.44-15.32,4.09-4.83,2.66-8.74,6.51-11.73,11.56-2.99,5.05-4.48,11.01-4.48,17.87s1.35,12.34,4.04,17.32c2.69,4.98,6.34,8.8,10.95,11.45,4.61,2.66,9.79,3.98,15.55,3.98,4.35,0,8.85-.85,13.5-2.54v-25.78Z"/>
    <path class="st0" d="M265.86,60.15c-3.65,2.07-6.62,4.35-8.91,6.86v38.28h-6.86v-53.66h4.54l1.99,8.52c2.51-2.06,5.44-4,8.8-5.81,3.36-1.81,6.29-2.71,8.8-2.71l1.88,5.42c-3.17,0-6.58,1.03-10.23,3.1Z"/>
    <path class="st0" d="M301.21,100.76c2.8,0,6.07-1.05,9.79-3.15,3.72-2.1,6.8-4.7,9.24-7.8v-38.28h6.86v53.77h-5.64l-1.11-8.3c-2.29,2.66-5.35,4.92-9.18,6.8-3.84,1.88-7.41,2.82-10.73,2.82-5.53,0-9.66-1.62-12.39-4.87-2.73-3.24-4.09-7.56-4.09-12.95v-37.18h6.86v35.85c0,8.85,3.47,13.28,10.4,13.28Z"/>
    <path class="st0" d="M387.51,78.52c-.07,5.39-1.09,10.22-3.04,14.49-1.95,4.28-4.8,7.63-8.52,10.07-3.73,2.43-8.17,3.65-13.33,3.65-4.43,0-8.96-1.77-13.61-5.31v29.32h-6.86V51.63h4.54l1.44,4.43c2.14-1.84,4.48-3.28,7.03-4.31,2.54-1.03,5.18-1.55,7.91-1.55,7.75,0,13.76,2.58,18.04,7.75,4.28,5.16,6.42,12.02,6.42,20.58ZM380.54,78.63c0-6.93-1.44-12.45-4.31-16.54-2.88-4.09-7.23-6.14-13.06-6.14-2.95,0-5.57.55-7.86,1.66-2.29,1.11-4.39,2.66-6.31,4.65v32.97c1.99,1.77,4.06,3.17,6.2,4.2,2.14,1.03,4.72,1.55,7.75,1.55,5.68,0,10.01-2.08,13-6.25,2.99-4.17,4.52-9.53,4.59-16.1Z"/>
    <path class="st0" d="M419.48,106.73c-5.02,0-9.35-1.22-13-3.65-3.65-2.43-6.44-5.81-8.35-10.12-1.92-4.32-2.88-9.24-2.88-14.77.07-5.31,1.14-10.09,3.21-14.33,2.07-4.24,5.03-7.58,8.91-10.01,3.87-2.43,8.39-3.65,13.55-3.65,7.89,0,14.01,2.53,18.37,7.58,4.35,5.05,6.53,12.04,6.53,20.97,0,5.39-1.07,10.2-3.21,14.44-2.14,4.24-5.2,7.56-9.18,9.96-3.98,2.4-8.63,3.6-13.94,3.6ZM438.85,78.85c0-6.86-1.55-12.39-4.65-16.6-3.1-4.2-7.56-6.31-13.39-6.31s-10.27,2.07-13.55,6.2c-3.28,4.13-4.96,9.44-5.03,15.93,0,6.86,1.55,12.39,4.65,16.6,3.1,4.2,7.56,6.31,13.39,6.31s10.27-2.06,13.55-6.2c3.28-4.13,4.96-9.44,5.03-15.93Z"/>
    <path class="st0" d="M498.26,79.07v26.22h-14.27V30.05h23.57c8.85,0,16.02,1.97,21.52,5.92,5.49,3.95,8.24,10.01,8.24,18.2,0,5.46-1.42,10.07-4.26,13.83-2.84,3.76-6.58,6.55-11.23,8.35-4.65,1.81-9.74,2.71-15.27,2.71h-8.3ZM522.16,55.06c0-4.65-1.27-7.98-3.82-10.01-2.54-2.03-6.29-3.04-11.23-3.04h-8.85v25.23h9.07c4.43,0,7.93-1.01,10.51-3.04,2.58-2.03,4.02-5.07,4.32-9.13Z"/>
    <path class="st0" d="M570.57,65.79c-3.58,1.77-6.92,4.02-10.01,6.75v32.75h-14.38v-53.66h7.52l4.76,8.96c2.58-2.29,5.61-4.35,9.07-6.2,3.47-1.84,6.53-2.77,9.18-2.77l2.88,11.51c-2.43,0-5.44.89-9.02,2.66Z"/>
    <path class="st0" d="M612.11,106.62c-5.75,0-10.79-1.14-15.1-3.43-4.32-2.29-7.65-5.55-10.01-9.79-2.36-4.24-3.54-9.2-3.54-14.88s1.18-10.66,3.54-14.94c2.36-4.28,5.7-7.58,10.01-9.9,4.32-2.32,9.35-3.49,15.1-3.49s10.79,1.14,15.1,3.43c4.32,2.29,7.65,5.55,10.01,9.79,2.36,4.24,3.54,9.2,3.54,14.88s-1.18,10.66-3.54,14.94c-2.36,4.28-5.7,7.58-10.01,9.9-4.32,2.32-9.35,3.49-15.1,3.49ZM625.95,78.29c0-4.65-1.29-8.45-3.87-11.4-2.58-2.95-5.9-4.43-9.96-4.43s-7.29,1.51-9.9,4.54c-2.62,3.03-3.93,6.86-3.93,11.51s1.29,8.45,3.87,11.4c2.58,2.95,5.9,4.43,9.96,4.43s7.28-1.51,9.9-4.54c2.62-3.02,3.93-6.86,3.93-11.51Z"/>
    <path class="st0" d="M664.89,35.92c0,2.29-.79,4.2-2.38,5.75-1.59,1.55-3.52,2.32-5.81,2.32s-4.09-.77-5.64-2.32c-1.55-1.55-2.32-3.47-2.32-5.75s.77-4.2,2.32-5.75c1.55-1.55,3.43-2.32,5.64-2.32s4.22.77,5.81,2.32c1.59,1.55,2.38,3.47,2.38,5.75ZM664.01,51.63v53.66h-14.38v-53.66h14.38Z"/>
    <path class="st0" d="M704.94,61.81c-2.51,0-4.87.57-7.08,1.71-2.21,1.14-4.65,2.67-7.3,4.59v37.18h-14.38v-53.66h9.4l2.43,5.75c3.32-2.36,6.86-4.2,10.62-5.53,3.76-1.33,7.12-1.99,10.07-1.99,6.79,0,11.54,1.92,14.27,5.75,2.73,3.84,4.09,9.18,4.09,16.04v33.64h-14.38v-32.97c0-3.32-.68-5.9-2.05-7.75-1.37-1.84-3.26-2.77-5.7-2.77Z"/>
    <path class="st0" d="M755.29,51.74h9.74l4.43,11.06h-14.16v22.79c0,2.88.68,5.2,2.05,6.97,1.36,1.77,3.3,2.66,5.81,2.66,1.92,0,3.87-.48,5.86-1.44l4.2,10.4c-1.11.88-2.75,1.66-4.92,2.32-2.18.66-4.15,1-5.92,1-6.71,0-11.95-1.7-15.71-5.09-3.76-3.39-5.64-8.15-5.64-14.27v-25.34h-7.19v-11.06h7.19v-12.72l14.27-2.54v15.27Z"/>
  </g>
</svg>