<?xml version="1.0" encoding="UTF-8"?>
<svg id="Capa_2" xmlns="http://www.w3.org/2000/svg" version="1.1" viewBox="0 0 878 384.36">
  <!-- Generator: Adobe Illustrator 30.5.1, SVG Export Plug-In . SVG Version: 2.1.4 Build 3)  -->
  <defs>
    <style>
      .st0 {
        fill: #fff;
      }
    </style>
  </defs>
  <g>
    <path class="st0" d="M4.66,250.85c3.11-5.62,7.35-10,12.73-13.14,5.38-3.14,11.38-4.71,18.01-4.71,8.07,0,14.99,1.92,20.75,5.74,5.76,3.83,9.95,9.23,12.58,16.2h-8.49c-2.07-4.9-5.23-8.73-9.47-11.49-4.24-2.76-9.37-4.14-15.37-4.14-5.31,0-10.09,1.24-14.34,3.73-4.24,2.48-7.57,6.06-9.99,10.71-2.42,4.66-3.62,10.06-3.62,16.2s1.21,11.52,3.62,16.15c2.41,4.62,5.74,8.18,9.99,10.66,4.24,2.48,9.02,3.73,14.34,3.73,6,0,11.13-1.36,15.37-4.09,4.24-2.72,7.4-6.5,9.47-11.33h8.49c-2.62,6.9-6.83,12.25-12.63,16.04-5.8,3.8-12.7,5.69-20.7,5.69-6.62,0-12.63-1.57-18.01-4.71-5.38-3.14-9.63-7.5-12.73-13.09-3.11-5.59-4.66-11.94-4.66-19.04s1.55-13.47,4.66-19.1Z"/>
    <path class="st0" d="M125.03,288.99h-32.91l-6.31,17.18h-7.66l26.39-71.42h8.18l26.29,71.42h-7.66l-6.31-17.18ZM122.86,282.99l-14.28-39.12-14.28,39.12h28.57Z"/>
    <path class="st0" d="M189.1,306.18l-17.91-30.22h-13.35v30.22h-7.24v-72.35h21.74c8.07,0,14.2,1.93,18.37,5.8,4.17,3.86,6.26,8.94,6.26,15.21,0,5.25-1.5,9.71-4.5,13.4-3,3.69-7.44,6.09-13.3,7.19l18.63,30.74h-8.69ZM157.84,270.05h14.59c5.66,0,9.92-1.38,12.78-4.14,2.86-2.76,4.3-6.45,4.3-11.08s-1.38-8.44-4.14-11.02c-2.76-2.59-7.11-3.88-13.04-3.88h-14.49v30.12Z"/>
    <path class="st0" d="M282.04,234.76v71.42h-7.25v-57.03l-25.46,57.03h-5.28l-25.46-56.82v56.82h-7.24v-71.42h7.66l27.64,61.89,27.63-61.89h7.76Z"/>
    <path class="st0" d="M305.74,239.73v27.01h27.43v6h-27.43v27.43h30.53v6h-37.78v-72.45h37.78v6h-30.53Z"/>
    <path class="st0" d="M405.11,306.18h-7.24l-40.06-60.86v60.86h-7.24v-72.35h7.24l40.06,60.76v-60.76h7.24v72.35Z"/>
    <path class="st0" d="M506.85,254.94c-2.07-4.76-5.23-8.5-9.47-11.23-4.24-2.73-9.23-4.09-14.96-4.09-5.38,0-10.21,1.24-14.49,3.73-4.28,2.48-7.66,6.02-10.14,10.61-2.48,4.59-3.73,9.92-3.73,15.99s1.24,11.42,3.73,16.04c2.48,4.62,5.86,8.18,10.14,10.66,4.28,2.48,9.11,3.73,14.49,3.73,5.04,0,9.57-1.09,13.61-3.26,4.04-2.17,7.28-5.28,9.73-9.32,2.45-4.04,3.85-8.75,4.19-14.13h-30.43v-5.9h38.09v5.28c-.35,6.35-2.07,12.09-5.18,17.23-3.11,5.14-7.26,9.19-12.47,12.16-5.21,2.97-11.06,4.45-17.54,4.45s-12.77-1.57-18.22-4.71c-5.45-3.14-9.75-7.52-12.89-13.15-3.14-5.62-4.71-11.99-4.71-19.1s1.57-13.47,4.71-19.1c3.14-5.62,7.43-10,12.89-13.14,5.45-3.14,11.52-4.71,18.22-4.71,7.73,0,14.49,1.93,20.29,5.8,5.8,3.86,10,9.25,12.63,16.15h-8.49Z"/>
    <path class="st0" d="M572.78,288.99h-32.91l-6.31,17.18h-7.66l26.39-71.42h8.18l26.29,71.42h-7.66l-6.31-17.18ZM570.6,282.99l-14.28-39.12-14.28,39.12h28.57Z"/>
    <path class="st0" d="M605.59,300.28h25.98v5.9h-33.23v-72.35h7.25v66.45Z"/>
    <path class="st0" d="M649.16,233.83v72.35h-7.25v-72.35h7.25Z"/>
    <path class="st0" d="M720.16,306.18h-7.24l-40.06-60.86v60.86h-7.25v-72.35h7.25l40.06,60.76v-60.76h7.24v72.35Z"/>
    <path class="st0" d="M778.64,238.17c5.73,2.9,10.11,7.07,13.14,12.52,3.04,5.45,4.55,11.94,4.55,19.46s-1.52,13.89-4.55,19.3c-3.04,5.42-7.42,9.56-13.14,12.42-5.73,2.86-12.59,4.29-20.6,4.29h-21.43v-72.35h21.43c8,0,14.87,1.45,20.6,4.35ZM781.07,292.25c5.28-5.28,7.92-12.64,7.92-22.1s-2.64-16.96-7.92-22.31c-5.28-5.35-12.96-8.02-23.03-8.02h-14.18v60.34h14.18c10.07,0,17.75-2.64,23.03-7.92Z"/>
    <path class="st0" d="M823.97,302.19c-5.45-3.14-9.75-7.52-12.89-13.15-3.14-5.62-4.71-11.99-4.71-19.1s1.57-13.47,4.71-19.1c3.14-5.62,7.43-10,12.89-13.14,5.45-3.14,11.52-4.71,18.22-4.71s12.87,1.57,18.32,4.71c5.45,3.14,9.73,7.52,12.83,13.14,3.1,5.62,4.66,11.99,4.66,19.1s-1.55,13.47-4.66,19.1c-3.11,5.62-7.38,10.01-12.83,13.15-5.45,3.14-11.56,4.71-18.32,4.71s-12.77-1.57-18.22-4.71ZM856.68,296.86c4.28-2.48,7.66-6.05,10.14-10.71,2.48-4.66,3.73-10.06,3.73-16.2s-1.24-11.52-3.73-16.15c-2.48-4.62-5.87-8.18-10.14-10.66-4.28-2.48-9.11-3.73-14.49-3.73s-10.21,1.24-14.49,3.73c-4.28,2.48-7.66,6.04-10.14,10.66-2.48,4.62-3.73,10.01-3.73,16.15s1.24,11.54,3.73,16.2c2.48,4.66,5.86,8.23,10.14,10.71,4.28,2.48,9.11,3.73,14.49,3.73s10.21-1.24,14.49-3.73Z"/>
  </g>
  <g>
    <path class="st0" d="M364.03,373.95h-19.94l-3.83,10.41h-4.64l15.99-43.27h4.95l15.93,43.27h-4.64l-3.83-10.41ZM362.71,370.31l-8.65-23.7-8.65,23.7h17.31Z"/>
    <path class="st0" d="M405.16,340.53v3.64h-12.16v40.19h-4.39v-40.19h-12.23v-3.64h28.78Z"/>
    <path class="st0" d="M416.51,344.1v16.37h16.62v3.64h-16.62v16.62h18.5v3.64h-22.89v-43.89h22.89v3.64h-18.5Z"/>
    <path class="st0" d="M448.05,380.79h15.74v3.57h-20.13v-43.83h4.39v40.26Z"/>
    <path class="st0" d="M474.45,340.53v43.83h-4.39v-43.83h4.39Z"/>
    <path class="st0" d="M488.81,344.1v16.37h16.62v3.64h-16.62v16.62h18.5v3.64h-22.89v-43.89h22.89v3.64h-18.5Z"/>
    <path class="st0" d="M539.29,384.36l-10.85-18.31h-8.09v18.31h-4.39v-43.83h13.17c4.89,0,8.6,1.17,11.13,3.51,2.53,2.34,3.79,5.41,3.79,9.22,0,3.18-.91,5.88-2.73,8.12-1.82,2.24-4.51,3.69-8.06,4.36l11.29,18.62h-5.27ZM520.35,362.48h8.84c3.43,0,6.01-.84,7.74-2.51,1.73-1.67,2.6-3.91,2.6-6.71s-.84-5.11-2.51-6.68c-1.67-1.57-4.31-2.35-7.9-2.35h-8.78v18.25Z"/>
  </g>
  <g>
    <path class="st0" d="M432.45,125.71c2.37-.45,4.71-1.19,7.05-2.23,2.33-1.04,4.65-2.4,6.96-4.09,2.31-1.68,4.59-3.77,6.86-6.27.18-.25.28-.45.28-.59,0-.21-.08-.42-.22-.62-.15-.21-.33-.4-.54-.57s-.43-.33-.68-.47c-.24-.14-.46-.25-.64-.35-1.94,1.75-3.88,3.26-5.83,4.52-1.95,1.26-3.88,2.3-5.8,3.12-1.92.82-3.8,1.42-5.66,1.8-1.12.23-2.23.38-3.31.47.05,1.91.19,3.74.39,5.47.38-.06.77-.12,1.15-.19Z"/>
    <path class="st0" d="M416.12,116.54c-.28-.2-.57-.38-.84-.59-1.95-1.49-3.71-3.31-5.28-5.45-1.57-2.15-2.91-4.57-4.02-7.27-1.11-2.7-1.96-5.66-2.56-8.86-.6-3.21-.9-6.62-.9-10.25,0-3.07.24-6.11.71-9.11.47-3,1.19-5.86,2.15-8.59.96-2.72,2.17-5.25,3.64-7.57,1.47-2.32,3.19-4.33,5.18-6.02,1.98-1.7,4.24-3.02,6.77-3.98,2.53-.96,5.34-1.44,8.43-1.44,1.8,0,3.57.18,5.3.54,1.73.36,3.36.88,4.88,1.58,1.52.69,2.93,1.55,4.21,2.56,1.28,1.02,2.38,2.18,3.31,3.5.88,1.32,1.48,2.7,1.82,4.14.33,1.44.51,2.96.54,4.55,0,.32,0,.63-.02.92-.01.29-.03.59-.05.92l3.01.1c.18-3.6.33-6.67.45-9.21.12-2.54.17-4.6.17-6.2,0-.76-.53-1.6-1.59-2.53-1.06-.92-2.53-1.79-4.4-2.6-1.87-.81-4.09-1.49-6.66-2.04-2.57-.55-5.37-.83-8.4-.83-4.39,0-8.4.61-12.05,1.82-3.65,1.21-6.93,2.89-9.83,5.02-2.91,2.14-5.45,4.65-7.63,7.53-2.18,2.89-3.99,5.99-5.44,9.31-1.44,3.32-2.53,6.8-3.25,10.44-.73,3.64-1.09,7.25-1.09,10.85s.37,7.29,1.13,10.65c.75,3.36,1.82,6.47,3.2,9.33,1.38,2.86,3.06,5.44,5.02,7.74,1.96,2.3,4.15,4.25,6.58,5.87,2.29,1.53,4.78,2.71,7.43,3.57-.07-1.22-.1-2.47-.1-3.76,0-1.54.08-3.08.21-4.63Z"/>
    <path class="st0" d="M459.03,76.3c3.12,0,5.98.27,8.6.8,2.62.53,4.88,1.19,6.77,1.99,1.89.8,3.37,1.64,4.43,2.55,1.06.9,1.59,1.73,1.59,2.49,0,1.59-.06,3.66-.19,6.2-.13,2.54-.28,5.61-.47,9.21l-3.01-.07c.02-.32.04-.63.05-.93.01-.3.02-.61.02-.93-.02-1.59-.2-3.12-.52-4.59-.32-1.47-.94-2.83-1.84-4.1-.95-1.32-2.07-2.47-3.38-3.46-1.3-.99-2.74-1.83-4.29-2.51-1.56-.68-3.23-1.19-5-1.52-1.78-.33-3.6-.5-5.47-.5-3.23,0-6.16.49-8.79,1.47-2.63.98-4.99,2.34-7.06,4.09-2.08,1.74-3.88,3.8-5.4,6.16-1.52,2.37-2.79,4.94-3.79,7.72-1,2.78-1.75,5.71-2.23,8.78-.48,3.07-.73,6.16-.73,9.28,0,4.32.36,8.22,1.07,11.72s1.72,6.61,3.01,9.33,2.83,5.07,4.62,7.05c1.79,1.97,3.76,3.6,5.92,4.88s4.47,2.23,6.93,2.84c2.46.61,4.99.92,7.6.92,2.08,0,3.83-.14,5.26-.43,1.43-.29,2.6-.68,3.5-1.18s1.58-1.08,2.03-1.77c.45-.68.72-1.4.81-2.16.18-1.38.31-2.91.36-4.59.06-1.67.09-3.32.09-4.93v-3.12c0-1.71-.12-3.04-.36-4-.24-.96-.68-1.67-1.32-2.15-.64-.47-1.52-.76-2.65-.87-1.13-.1-2.59-.16-4.36-.16h-1.7c-.3,0-.65,0-1.04.02-.39.01-.88.02-1.45.02l-.24-3.39c.37.02.7.03,1,.03h2.28c1.52,0,3.14-.01,4.85-.03,1.71-.02,3.31-.05,4.8-.09s2.78-.06,3.86-.09c1.08-.02,1.77-.03,2.04-.03,1.25,0,2.14.31,2.68.93.54.62.81,1.7.81,3.22,0,.95-.03,2.14-.09,3.57-.06,1.43-.12,3.03-.19,4.8-.07,1.77-.15,3.66-.24,5.7-.09,2.03-.17,4.11-.24,6.23-.02.83-.08,1.53-.17,2.09-.09.57-.25,1.04-.47,1.44-.22.39-.51.73-.88,1.02-.37.29-.84.57-1.42.85-.67.35-1.62.72-2.84,1.13-1.22.4-2.65.78-4.28,1.14-1.63.36-3.41.65-5.35.88-1.94.23-3.96.35-6.06.35-2.86,0-5.79-.24-8.78-.73-2.99-.48-5.89-1.3-8.71-2.46-2.82-1.15-5.48-2.68-7.98-4.59-2.5-1.9-4.69-4.28-6.54-7.13-1.86-2.85-3.33-6.21-4.41-10.08-1.09-3.87-1.63-8.34-1.63-13.42,0-3.6.37-7.21,1.13-10.84.75-3.62,1.88-7.1,3.38-10.42s3.38-6.42,5.63-9.3c2.25-2.87,4.88-5.37,7.88-7.5,3-2.12,6.38-3.79,10.15-5,3.76-1.21,7.91-1.82,12.43-1.82Z"/>
  </g>
  <path class="st0" d="M439.42,196.88c-38,0-68.91-30.91-68.91-68.91v-59.06c0-38,30.91-68.91,68.91-68.91s68.91,30.91,68.91,68.91v59.06c0,38-30.91,68.91-68.91,68.91ZM439.42,4.92c-35.28,0-63.99,28.7-63.99,63.99v59.06c0,35.28,28.7,63.99,63.99,63.99s63.99-28.7,63.99-63.99v-59.06c0-35.28-28.7-63.99-63.99-63.99Z"/>
</svg>