<?xml version="1.0" encoding="UTF-8"?>
<svg id="Capa_2" xmlns="http://www.w3.org/2000/svg" version="1.1" viewBox="0 0 872.91 316.04">
  <!-- Generator: Adobe Illustrator 30.5.1, SVG Export Plug-In . SVG Version: 2.1.4 Build 3)  -->
  <defs>
    <style>
      .st0 {
        fill: #fff;
      }
    </style>
  </defs>
  <g>
    <polygon class="st0" points="140.26 0 0 315.64 11.24 315.64 140.27 25.29 269.35 315.64 280.59 315.64 140.26 0"/>
    <polygon class="st0" points="15.84 315.64 27.1 315.64 140.28 64.15 253.5 315.64 264.77 315.64 140.27 39.13 15.84 315.64"/>
    <polygon class="st0" points="32.07 315.64 41.1 315.64 140.33 97.43 239.61 315.64 248.63 315.64 140.33 77.58 32.07 315.64"/>
    <polygon class="st0" points="47.39 315.64 55.51 315.64 140.25 129.3 225.03 315.64 233.15 315.64 140.25 111.44 47.39 315.64"/>
    <polygon class="st0" points="61.7 315.64 68.92 315.64 140.29 158.72 211.68 315.64 218.91 315.64 140.29 142.84 61.7 315.64"/>
    <polygon class="st0" points="74.36 315.64 81.13 315.64 140.29 185.55 199.47 315.64 206.24 315.64 140.29 170.67 74.36 315.64"/>
    <polygon class="st0" points="86.78 315.64 93.1 315.64 140.29 211.87 187.5 315.64 193.82 315.64 140.29 197.98 86.78 315.64"/>
  </g>
  <g>
    <path class="st0" d="M305.35,53.2c0-7.48,1.36-14.45,4.08-20.92,2.72-6.47,6.52-12.11,11.41-16.94,4.89-4.83,10.62-8.59,17.18-11.29,6.56-2.7,13.69-4.05,21.38-4.05s14.9,1.35,21.47,4.05c6.56,2.7,12.28,6.47,17.14,11.29s8.64,10.48,11.33,16.94c2.69,6.47,4.04,13.44,4.04,20.92s-1.33,14.53-4,20.99c-2.67,6.47-6.43,12.13-11.29,16.98-4.86,4.86-10.56,8.64-17.1,11.33-6.54,2.7-13.73,4.05-21.59,4.05s-15.09-1.35-21.71-4.05c-6.62-2.7-12.35-6.48-17.18-11.33-4.83-4.86-8.57-10.52-11.21-16.98-2.64-6.47-3.96-13.46-3.96-20.99ZM319.93,53.2c0,7.63,1.69,14.52,5.07,20.64,3.38,6.13,8.03,11,13.97,14.61,5.93,3.61,12.74,5.41,20.44,5.41s14.57-1.8,20.48-5.41c5.91-3.61,10.53-8.48,13.88-14.61,3.35-6.13,5.03-13.01,5.03-20.64s-1.68-14.5-5.03-20.6c-3.35-6.1-7.98-10.94-13.88-14.53-5.91-3.58-12.73-5.37-20.48-5.37s-14.5,1.79-20.44,5.37c-5.93,3.58-10.59,8.43-13.97,14.53-3.38,6.1-5.07,12.97-5.07,20.6Z"/>
    <path class="st0" d="M494.07,93.4c6.76,0,12.62-.88,17.59-2.65,4.97-1.76,8.5-3.48,10.59-5.14l6.18,11.45c-2.47,2.08-6.77,4.18-12.9,6.31-6.13,2.13-13.47,3.19-22.04,3.19-8.02,0-15.46-1.35-22.33-4.05-6.87-2.7-12.87-6.47-18-11.29-5.14-4.83-9.15-10.46-12.03-16.9s-4.33-13.4-4.33-20.88,1.43-14.46,4.28-20.96c2.86-6.49,6.85-12.16,11.99-17.02,5.14-4.86,11.15-8.65,18.05-11.37,6.89-2.73,14.35-4.09,22.37-4.09,8.57,0,15.92,1.06,22.04,3.19,6.12,2.13,10.42,4.23,12.9,6.31l-6.18,11.45c-2.09-1.71-5.62-3.44-10.59-5.18-4.97-1.74-10.84-2.61-17.59-2.61-6.15,0-11.78.99-16.89,2.96-5.11,1.97-9.55,4.76-13.31,8.37-3.76,3.61-6.67,7.86-8.73,12.74-2.06,4.88-3.09,10.2-3.09,15.97s1.03,11.18,3.09,16.09c2.06,4.91,4.97,9.17,8.73,12.78,3.76,3.61,8.2,6.4,13.31,8.37,5.11,1.97,10.74,2.96,16.89,2.96Z"/>
    <path class="st0" d="M560.77,1.87h64.27v12.07h-50.35v33.34h49.36v11.76h-49.36v33.57h50.35v12.07h-64.27V1.87Z"/>
    <path class="st0" d="M696.16,1.87h14.67l40.21,102.83h-15.08l-9.39-24.77h-46.14l-9.56,24.77h-15.08L696.16,1.87ZM684.95,67.93h37.16l-18.46-49.7h-.25l-18.46,49.7Z"/>
    <path class="st0" d="M796.37,14.49l.91.16v90.05h-14.09V1.87h19.86l56.45,89.97-.91.16V1.87h14.09v102.83h-20.02l-56.28-90.21Z"/>
    <path class="st0" d="M345.49,141.73c6.6,0,12.29.71,17.07,2.14s8.54,2.93,11.29,4.52c2.75,1.59,4.39,2.63,4.91,3.12l-7.64,11.58c-.87-.71-2.4-1.74-4.6-3.08-2.2-1.34-4.95-2.55-8.25-3.61-3.3-1.07-7.07-1.6-11.29-1.6-6.55,0-11.71,1.25-15.51,3.74-3.79,2.49-5.69,6.01-5.69,10.55,0,3.07,1,5.76,3,8.09,2,2.33,4.82,4.45,8.47,6.36,3.65,1.92,7.91,3.89,12.77,5.91,4,1.59,7.92,3.39,11.77,5.42s7.35,4.41,10.51,7.14c3.16,2.74,5.68,5.91,7.56,9.53,1.88,3.61,2.82,7.78,2.82,12.48s-1,8.84-3,12.57c-2,3.72-4.81,6.89-8.43,9.49-3.62,2.6-7.83,4.59-12.64,5.95-4.81,1.37-9.99,2.05-15.55,2.05-7.01,0-13.33-.82-18.98-2.46-5.65-1.64-10.19-3.37-13.64-5.17-3.45-1.81-5.43-2.93-5.95-3.37l8.08-12.07c.69.55,1.97,1.36,3.82,2.42s4.14,2.18,6.86,3.33c2.72,1.15,5.79,2.12,9.21,2.92,3.42.79,7.07,1.19,10.95,1.19,7.76,0,13.64-1.64,17.64-4.93,4-3.29,5.99-7.5,5.99-12.65,0-3.94-1.27-7.34-3.82-10.18-2.55-2.85-5.94-5.39-10.16-7.64-4.23-2.24-8.89-4.41-13.99-6.49-5.21-2.24-9.99-4.71-14.33-7.39-4.34-2.68-7.83-5.9-10.47-9.65-2.64-3.75-3.95-8.28-3.95-13.59s1.58-9.88,4.73-13.88c3.16-4,7.41-7.12,12.77-9.36,5.36-2.24,11.25-3.37,17.68-3.37Z"/>
    <path class="st0" d="M489.16,143.7h14.94v108.41h-14.94v-108.41Z"/>
    <path class="st0" d="M623.88,143.7h27.02c12.22,0,22.28,2.31,30.19,6.94,7.91,4.63,13.77,11.02,17.59,19.18,3.82,8.16,5.73,17.49,5.73,28.01s-1.91,19.93-5.73,28.09c-3.82,8.16-9.67,14.57-17.55,19.22-7.88,4.65-17.96,6.98-30.23,6.98h-27.02v-108.41ZM638.64,156.51v82.78h11.03c9.04,0,16.42-1.78,22.15-5.34,5.73-3.56,9.98-8.45,12.73-14.66,2.75-6.21,4.15-13.32,4.21-21.31,0-8.05-1.36-15.18-4.08-21.39-2.72-6.21-6.98-11.11-12.77-14.7-5.79-3.58-13.2-5.38-22.24-5.38h-11.03Z"/>
    <path class="st0" d="M805.15,143.7h67.76v12.73h-53.08v35.15h52.04v12.4h-52.04v35.4h53.08v12.73h-67.76v-108.41Z"/>
  </g>
  <g>
    <path class="st0" d="M305.35,297.72h10.91v2.11h-8.54v5.83h8.38v2.06h-8.38v5.87h8.54v2.11h-10.91v-17.99Z"/>
    <path class="st0" d="M325.62,297.72h2.39v15.88h7.26v2.11h-9.65v-17.99Z"/>
    <path class="st0" d="M362.36,297.39c1.06,0,1.98.12,2.75.35s1.38.49,1.82.75c.44.26.71.44.79.52l-1.23,1.92c-.14-.12-.39-.29-.74-.51-.35-.22-.8-.42-1.33-.6s-1.14-.27-1.82-.27c-1.05,0-1.89.21-2.5.62-.61.41-.92,1-.92,1.75,0,.51.16.96.48,1.34.32.39.78.74,1.36,1.06.59.32,1.27.65,2.06.98.64.26,1.27.56,1.89.9.62.34,1.18.73,1.69,1.19.51.45.91.98,1.22,1.58.3.6.45,1.29.45,2.07s-.16,1.47-.48,2.09c-.32.62-.77,1.14-1.36,1.57-.58.43-1.26.76-2.03.99s-1.61.34-2.5.34c-1.13,0-2.15-.14-3.06-.41-.91-.27-1.64-.56-2.2-.86-.55-.3-.87-.49-.96-.56l1.3-2c.11.09.32.22.62.4.3.18.67.36,1.1.55.44.19.93.35,1.48.48.55.13,1.14.2,1.76.2,1.25,0,2.2-.27,2.84-.82.64-.55.96-1.24.96-2.1,0-.65-.21-1.22-.62-1.69-.41-.47-.96-.89-1.64-1.27s-1.43-.73-2.25-1.08c-.84-.37-1.61-.78-2.31-1.23-.7-.45-1.26-.98-1.69-1.6-.42-.62-.64-1.37-.64-2.26s.25-1.64.76-2.3c.51-.66,1.19-1.18,2.06-1.55.86-.37,1.81-.56,2.85-.56Z"/>
    <path class="st0" d="M382.56,297.72h2.49l6.82,17.99h-2.56l-1.59-4.33h-7.83l-1.62,4.33h-2.56l6.85-17.99ZM380.66,309.28h6.31l-3.13-8.69h-.04l-3.13,8.69Z"/>
    <path class="st0" d="M399.46,297.72h2.39v15.88h7.26v2.11h-9.65v-17.99Z"/>
    <path class="st0" d="M424.81,315.71h-2.82l-6.75-17.99h2.7l5.47,15.15,5.5-15.15h2.68l-6.77,17.99Z"/>
    <path class="st0" d="M442.95,297.72h2.49l6.82,17.99h-2.56l-1.59-4.33h-7.83l-1.62,4.33h-2.56l6.85-17.99ZM441.05,309.28h6.31l-3.13-8.69h-.04l-3.13,8.69Z"/>
    <path class="st0" d="M459.78,297.72h4.35c1.97,0,3.59.38,4.86,1.15,1.27.77,2.22,1.83,2.83,3.18s.92,2.9.92,4.65-.31,3.31-.92,4.66-1.56,2.42-2.83,3.19c-1.27.77-2.89,1.16-4.87,1.16h-4.35v-17.99ZM462.16,299.85v13.74h1.78c1.45,0,2.64-.29,3.57-.89s1.61-1.4,2.05-2.43c.44-1.03.67-2.21.68-3.54,0-1.34-.22-2.52-.66-3.55-.44-1.03-1.12-1.84-2.06-2.44-.93-.6-2.13-.89-3.58-.89h-1.78Z"/>
    <path class="st0" d="M480.47,306.7c0-1.31.23-2.53.69-3.66.46-1.13,1.11-2.12,1.94-2.96.83-.84,1.8-1.5,2.92-1.98,1.11-.47,2.32-.71,3.63-.71s2.53.24,3.64.71c1.11.47,2.08,1.13,2.91,1.98.83.85,1.47,1.83,1.92,2.96.46,1.13.69,2.35.69,3.66s-.23,2.54-.68,3.67c-.45,1.13-1.09,2.12-1.92,2.97-.83.85-1.79,1.51-2.9,1.98-1.11.47-2.33.71-3.66.71s-2.56-.24-3.68-.71c-1.12-.47-2.1-1.13-2.92-1.98-.82-.85-1.45-1.84-1.9-2.97-.45-1.13-.67-2.36-.67-3.67ZM482.94,306.7c0,1.34.29,2.54.86,3.61.57,1.07,1.36,1.92,2.37,2.56,1.01.63,2.16.95,3.47.95s2.47-.32,3.48-.95,1.79-1.48,2.36-2.56c.57-1.07.85-2.28.85-3.61s-.28-2.54-.85-3.6c-.57-1.07-1.35-1.91-2.36-2.54-1-.63-2.16-.94-3.48-.94s-2.46.31-3.47.94c-1.01.63-1.8,1.47-2.37,2.54-.57,1.07-.86,2.27-.86,3.6Z"/>
    <path class="st0" d="M507.17,297.72h6.45c1,0,1.9.2,2.72.61.82.4,1.47,1,1.96,1.77.49.78.73,1.72.73,2.84s-.23,2.03-.68,2.75c-.45.73-1,1.27-1.63,1.64-.63.37-1.22.57-1.76.61l4.57,7.77h-2.71l-4.28-7.6h-2.98v7.6h-2.39v-17.99ZM509.56,306.37h3.22c1.1,0,2.01-.27,2.73-.8.72-.54,1.08-1.39,1.08-2.58s-.36-2.03-1.07-2.55c-.71-.52-1.62-.78-2.72-.78h-3.23v6.71Z"/>
    <path class="st0" d="M540.85,297.72h6.45c1,0,1.9.2,2.72.61.82.4,1.47,1,1.96,1.77.49.78.73,1.72.73,2.84s-.23,2.03-.68,2.75c-.45.73-1,1.27-1.63,1.64-.63.37-1.22.57-1.76.61l4.57,7.77h-2.71l-4.28-7.6h-2.98v7.6h-2.39v-17.99ZM543.24,306.37h3.22c1.1,0,2.01-.27,2.73-.8.72-.54,1.08-1.39,1.08-2.58s-.36-2.03-1.07-2.55c-.71-.52-1.62-.78-2.72-.78h-3.23v6.71Z"/>
    <path class="st0" d="M561.96,297.72h10.91v2.11h-8.54v5.83h8.38v2.06h-8.38v5.87h8.54v2.11h-10.91v-17.99Z"/>
    <path class="st0" d="M587.23,297.72h2.49l6.82,17.99h-2.56l-1.59-4.33h-7.83l-1.62,4.33h-2.56l6.85-17.99ZM585.33,309.28h6.31l-3.13-8.69h-.04l-3.13,8.69Z"/>
    <path class="st0" d="M604.12,297.72h2.39v15.88h7.26v2.11h-9.65v-17.99Z"/>
    <path class="st0" d="M635.12,297.72h10.91v2.11h-8.54v5.83h8.38v2.06h-8.38v5.87h8.54v2.11h-10.91v-17.99Z"/>
    <path class="st0" d="M661.15,297.39c1.06,0,1.98.12,2.75.35.77.24,1.37.49,1.82.75.44.26.71.44.79.52l-1.23,1.92c-.14-.12-.39-.29-.74-.51-.35-.22-.8-.42-1.33-.6s-1.14-.27-1.82-.27c-1.05,0-1.89.21-2.5.62-.61.41-.92,1-.92,1.75,0,.51.16.96.48,1.34s.78.74,1.36,1.06c.59.32,1.27.65,2.06.98.64.26,1.27.56,1.89.9.62.34,1.18.73,1.69,1.19.51.45.91.98,1.22,1.58.3.6.45,1.29.45,2.07s-.16,1.47-.48,2.09c-.32.62-.77,1.14-1.36,1.57-.58.43-1.26.76-2.03.99s-1.61.34-2.5.34c-1.13,0-2.15-.14-3.06-.41-.91-.27-1.64-.56-2.2-.86-.55-.3-.87-.49-.96-.56l1.3-2c.11.09.32.22.62.4s.67.36,1.1.55.93.35,1.48.48c.55.13,1.14.2,1.76.2,1.25,0,2.2-.27,2.84-.82.64-.55.96-1.24.96-2.1,0-.65-.2-1.22-.61-1.69-.41-.47-.96-.89-1.64-1.27-.68-.37-1.43-.73-2.25-1.08-.84-.37-1.61-.78-2.31-1.23-.7-.45-1.26-.98-1.68-1.6-.42-.62-.64-1.37-.64-2.26s.25-1.64.76-2.3c.51-.66,1.19-1.18,2.06-1.55s1.81-.56,2.85-.56Z"/>
    <path class="st0" d="M679.58,299.83h-4.98v-2.11h12.36v2.11h-4.98v15.88h-2.4v-15.88Z"/>
    <path class="st0" d="M698.62,297.72h2.49l6.82,17.99h-2.56l-1.59-4.33h-7.83l-1.62,4.33h-2.56l6.85-17.99ZM696.72,309.28h6.31l-3.13-8.69h-.04l-3.13,8.69Z"/>
    <path class="st0" d="M717.54,299.83h-4.98v-2.11h12.36v2.11h-4.98v15.88h-2.41v-15.88Z"/>
    <path class="st0" d="M733.16,297.72h10.91v2.11h-8.54v5.83h8.38v2.06h-8.38v5.87h8.54v2.11h-10.91v-17.99Z"/>
    <path class="st0" d="M774.02,305.94h9.31v.98c0,1.25-.22,2.43-.67,3.54-.45,1.1-1.08,2.07-1.89,2.91-.82.84-1.77,1.49-2.87,1.96-1.1.47-2.31.71-3.62.71s-2.57-.24-3.69-.73c-1.12-.49-2.09-1.16-2.91-2.02-.82-.86-1.45-1.85-1.9-2.98-.45-1.13-.67-2.33-.67-3.61s.22-2.47.67-3.6c.45-1.13,1.08-2.12,1.9-2.97.82-.85,1.79-1.52,2.91-2.01,1.12-.49,2.35-.73,3.69-.73.91,0,1.75.1,2.51.29s1.45.47,2.06.82c.61.35,1.15.75,1.63,1.19.48.44.89.91,1.23,1.4l-2.17,1.13c-.56-.75-1.28-1.38-2.15-1.87-.88-.49-1.91-.74-3.1-.74-.97,0-1.86.19-2.69.56-.82.37-1.53.89-2.13,1.54-.6.65-1.06,1.41-1.39,2.26-.33.85-.49,1.76-.49,2.73s.16,1.87.49,2.73c.33.86.79,1.62,1.39,2.28.6.66,1.31,1.17,2.13,1.55.82.37,1.72.56,2.69.56s1.77-.15,2.53-.46c.76-.31,1.43-.74,2-1.28.57-.54,1.02-1.18,1.34-1.91.33-.73.51-1.51.55-2.34h-6.67v-1.88Z"/>
    <path class="st0" d="M791.71,297.72h6.45c1,0,1.9.2,2.72.61.82.4,1.47,1,1.96,1.77.49.78.73,1.72.73,2.84s-.23,2.03-.68,2.75c-.45.73-1,1.27-1.63,1.64-.63.37-1.22.57-1.76.61l4.57,7.77h-2.71l-4.28-7.6h-2.98v7.6h-2.39v-17.99ZM794.1,306.37h3.22c1.1,0,2.01-.27,2.73-.8.72-.54,1.08-1.39,1.08-2.58s-.36-2.03-1.07-2.55-1.62-.78-2.72-.78h-3.23v6.71Z"/>
    <path class="st0" d="M811.46,306.7c0-1.31.23-2.53.69-3.66.46-1.13,1.11-2.12,1.94-2.96.83-.84,1.8-1.5,2.92-1.98,1.11-.47,2.32-.71,3.63-.71s2.53.24,3.64.71c1.11.47,2.08,1.13,2.91,1.98.83.85,1.47,1.83,1.92,2.96.46,1.13.69,2.35.69,3.66s-.23,2.54-.68,3.67c-.45,1.13-1.09,2.12-1.92,2.97-.83.85-1.79,1.51-2.9,1.98-1.11.47-2.33.71-3.66.71s-2.56-.24-3.68-.71c-1.12-.47-2.1-1.13-2.92-1.98-.82-.85-1.45-1.84-1.9-2.97-.45-1.13-.67-2.36-.67-3.67ZM813.93,306.7c0,1.34.29,2.54.86,3.61.57,1.07,1.36,1.92,2.37,2.56s2.16.95,3.47.95,2.47-.32,3.47-.95c1-.63,1.79-1.48,2.36-2.56.57-1.07.85-2.28.85-3.61s-.28-2.54-.85-3.6c-.57-1.07-1.35-1.91-2.36-2.54-1-.63-2.16-.94-3.47-.94s-2.46.31-3.47.94c-1.01.63-1.8,1.47-2.37,2.54-.57,1.07-.86,2.27-.86,3.6Z"/>
    <path class="st0" d="M849.7,297.72h2.39v11.17c0,1.48-.3,2.76-.91,3.82-.61,1.07-1.44,1.89-2.5,2.46-1.06.57-2.27.86-3.63.86s-2.58-.29-3.64-.86c-1.07-.57-1.9-1.39-2.51-2.46s-.91-2.34-.91-3.82v-11.17h2.38v11.05c0,1.04.2,1.95.61,2.71.41.76.97,1.35,1.68,1.76.71.41,1.51.62,2.39.62s1.68-.21,2.38-.62,1.25-1,1.66-1.76c.41-.76.61-1.67.61-2.71v-11.05Z"/>
    <path class="st0" d="M861.28,297.72h5.23c1.16,0,2.2.18,3.13.55.93.37,1.67.94,2.22,1.72.55.78.83,1.8.83,3.05s-.27,2.28-.83,3.09c-.55.82-1.29,1.43-2.22,1.83-.93.4-1.97.61-3.13.61h-2.84v7.13h-2.39v-17.99ZM863.67,306.63h2.18c.79,0,1.51-.11,2.16-.34.65-.23,1.16-.6,1.55-1.12s.58-1.21.58-2.09-.19-1.57-.58-2.06c-.39-.5-.9-.85-1.55-1.05-.65-.2-1.37-.31-2.16-.31h-2.18v6.96Z"/>
  </g>
</svg>